<svg version="1.1" viewBox="0.0 0.0 800.0 200.0" fill="none" stroke="none" stroke-linecap="square" stroke-miterlimit="10" xmlns:xlink="http://www.w3.org/1999/xlink" xmlns="http://www.w3.org/2000/svg"><clipPath id="p.0"><path d="m0 0l800.0 0l0 200.0l-800.0 0l0 -200.0z" clip-rule="nonzero"/></clipPath><g clip-path="url(#p.0)"><path fill="#000000" fill-opacity="0.0" d="m0 0l800.0 0l0 200.0l-800.0 0z" fill-rule="evenodd"/><path fill="#000000" fill-opacity="0.0" d="m7.684011 -39.989502l775.81104 0l0 249.88977l-775.81104 0z" fill-rule="evenodd"/><path fill="#000000" d="m231.94847 17.447144l3.03125 45.015625l-3.03125 0q-6.046875 -20.203125 -17.28125 -29.09375q-11.234375 -8.890625 -26.953125 -8.890625q-13.1875 0 -23.828125 6.6875q-10.640625 6.6875 -16.75 21.34375q-6.09375 14.640625 -6.09375 36.421875q0 17.96875 5.75 31.15625q5.765625 13.1875 17.328125 20.21875q11.578125 7.03125 26.421875 7.03125q12.890625 0 22.75 -5.515625q9.875 -5.53125 21.6875 -21.9375l3.03125 1.953125q-9.96875 17.6875 -23.25 25.890625q-13.28125 8.203125 -31.53125 8.203125q-32.921875 0 -50.984375 -24.421875q-13.468742 -18.15625 -13.468742 -42.765625q0 -19.828125 8.875 -36.421875q8.890617 -16.609375 24.468742 -25.734375q15.578125 -9.140625 34.03125 -9.140625q14.359375 0 28.328125 7.03125q4.09375 2.15625 5.859375 2.15625q2.625 0 4.578125 -1.859375q2.546875 -2.640625 3.625 -7.328125l3.40625 0z" fill-rule="nonzero"/><path fill="#000000" d="m247.44066 82.27527l36.45314 0l0 1.9375l-1.828125 0q-4.109375 0 -5.65625 0.859375q-1.53125 0.859375 -2.1875 2.375q-0.640625 1.5 -0.640625 7.546875l0 34.578125q0 9.46875 1.421875 12.546875q1.4375 3.078125 4.71875 5.109375q3.28125 2.03125 8.28125 2.03125q5.734375 0 9.765625 -2.578125q4.046875 -2.578125 6.046875 -7.109375q2.0 -4.53125 2.0 -15.78125l0 -28.796875q0 -4.75 -0.984375 -6.78125q-0.984375 -2.03125 -2.5 -2.8125q-2.34375 -1.1875 -6.609375 -1.1875l0 -1.9375l24.421875 0l0 1.9375l-1.453125 0q-2.96875 0 -4.953125 1.203125q-1.984375 1.1875 -2.859375 3.578125q-0.6875 1.671875 -0.6875 6.0l0 26.8125q0 12.453125 -1.640625 17.96875q-1.640625 5.515625 -8.0 10.15625q-6.34375 4.640625 -17.328125 4.640625q-9.171875 0 -14.171875 -2.453125q-6.8125 -3.328125 -9.625 -8.53125q-2.8125 -5.21875 -2.8125 -14.015625l0 -34.578125q0 -6.09375 -0.68751526 -7.578125q-0.671875 -1.484375 -2.34375 -2.375q-1.65625 -0.890625 -6.140625 -0.828125l0 -1.9375zm141.86751 45.828125l-2.65625 24.796875l-62.703125 0l0 -1.921875l2.34375 0q3.0625 0 4.9375 -1.09375q1.359375 -0.734375 2.09375 -2.5q0.5625 -1.25 0.5625 -6.5625l0 -46.453125q0 -5.421875 -0.578125 -6.765625q-0.5625 -1.359375 -2.3125 -2.375q-1.734375 -1.015625 -4.703125 -1.015625l-2.34375 0l0 -1.9375l37.640625 0l0 1.9375l-3.0625 0q-3.078125 0 -4.953125 1.09375q-1.359375 0.71875 -2.140625 2.5q-0.5625 1.25 -0.5625 6.5625l0 44.984375q0 5.421875 0.625 6.90625q0.625 1.484375 2.4375 2.21875q1.3125 0.46875 6.3125 0.46875l5.875 0q5.625 0 9.375 -1.984375q3.75 -1.984375 6.484375 -6.25q2.734375 -4.265625 5.1875 -12.609375l2.140625 0zm61.2847 -45.828125l0 19.125l-1.875 0q-1.65625 -6.625 -3.6875 -9.515625q-2.03125 -2.890625 -5.578125 -4.609375q-1.984375 -0.9375 -6.921875 -0.9375l-5.265625 0l0 54.484375q0 5.40625 0.59375 6.765625q0.609375 1.359375 2.34375 2.375q1.75 1.015625 4.765625 1.015625l2.34375 0l0 1.921875l-36.96875 0l0 -1.921875l2.34375 0q3.078125 0 4.953125 -1.09375q1.34375 -0.734375 2.125 -2.5q0.578125 -1.25 0.578125 -6.5625l0 -54.484375l-5.109375 0q-7.125 0 -10.359375 3.03125q-4.53125 4.21875 -5.734375 12.03125l-1.96875 0l0 -19.125l63.421875 0zm6.3576355 0l36.453125 0l0 1.9375l-1.828125 0q-4.109375 0 -5.65625 0.859375q-1.53125 0.859375 -2.1875 2.375q-0.640625 1.5 -0.640625 7.546875l0 34.578125q0 9.46875 1.421875 12.546875q1.4375 3.078125 4.71875 5.109375q3.28125 2.03125 8.28125 2.03125q5.734375 0 9.765625 -2.578125q4.046875 -2.578125 6.046875 -7.109375q2.0 -4.53125 2.0 -15.78125l0 -28.796875q0 -4.75 -0.984375 -6.78125q-0.984375 -2.03125 -2.5 -2.8125q-2.34375 -1.1875 -6.609375 -1.1875l0 -1.9375l24.421875 0l0 1.9375l-1.453125 0q-2.96875 0 -4.953125 1.203125q-1.984375 1.1875 -2.859375 3.578125q-0.6875 1.671875 -0.6875 6.0l0 26.8125q0 12.453125 -1.640625 17.96875q-1.640625 5.515625 -8.0 10.15625q-6.34375 4.640625 -17.328125 4.640625q-9.171875 0 -14.171875 -2.453125q-6.8125 -3.328125 -9.625 -8.53125q-2.8125 -5.21875 -2.8125 -14.015625l0 -34.578125q0 -6.09375 -0.6875 -7.578125q-0.671875 -1.484375 -2.34375 -2.375q-1.65625 -0.890625 -6.140625 -0.828125l0 -1.9375zm102.85187 38.4375l0 19.796875q0 5.71875 0.703125 7.203125q0.703125 1.484375 2.46875 2.375q1.78125 0.890625 6.625 0.890625l0 1.921875l-36.140625 0l0 -1.921875q4.890625 0 6.625 -0.90625q1.75 -0.921875 2.453125 -2.375q0.703125 -1.46875 0.703125 -7.1875l0 -45.828125q0 -5.734375 -0.703125 -7.21875q-0.703125 -1.484375 -2.46875 -2.359375q-1.765625 -0.890625 -6.609375 -0.890625l0 -1.9375l32.796875 0q12.8125 0 18.75 1.78125q5.9375 1.765625 9.6875 6.53125q3.75 4.765625 3.75 11.171875q0 7.8125 -5.625 12.921875q-3.59375 3.21875 -10.046875 4.84375l16.984375 23.890625q3.328125 4.640625 4.734375 5.78125q2.140625 1.625 4.953125 1.78125l0 1.921875l-22.25 0l-22.75 -32.1875l-4.640625 0zm0 -34.625l0 30.9375l2.96875 0q7.234375 0 10.828125 -1.328125q3.59375 -1.328125 5.65625 -4.796875q2.0625 -3.46875 2.0625 -9.03125q0 -8.078125 -3.78125 -11.921875q-3.78125 -3.859375 -12.15625 -3.859375l-5.578125 0zm77.75812 0.25l0 28.75l1.40625 0q6.71875 0 9.734375 -4.21875q3.015625 -4.21875 3.859375 -12.4375l1.96875 0l0 36.96875l-1.96875 0q-0.625 -6.046875 -2.640625 -9.890625q-2.0 -3.859375 -4.65625 -5.1875q-2.65625 -1.328125 -7.703125 -1.328125l0 19.890625q0 5.84375 0.484375 7.140625q0.5 1.296875 1.84375 2.140625q1.359375 0.828125 4.390625 0.828125l4.21875 0q9.890625 0 15.84375 -4.578125q5.96875 -4.59375 8.578125 -13.96875l1.921875 0l-3.171875 22.453125l-61.03125 0l0 -1.921875l2.34375 0q3.0625 0 4.9375 -1.09375q1.359375 -0.734375 2.09375 -2.5q0.5625 -1.25 0.5625 -6.5625l0 -46.453125q0 -4.796875 -0.25 -5.890625q-0.53125 -1.828125 -1.9375 -2.8125q-1.96875 -1.453125 -5.40625 -1.453125l-2.34375 0l0 -1.9375l59.109375 0l0 20.890625l-1.984375 0q-1.515625 -7.65625 -4.25 -10.984375q-2.734375 -3.34375 -7.734375 -4.90625q-2.90625 -0.9375 -10.9375 -0.9375l-7.28125 0z" fill-rule="nonzero"/><path fill="#000000" fill-opacity="0.0" d="m189.6693 -0.6771653l610.3307 0l0 51.937008l-610.3307 0z" fill-rule="evenodd"/><path fill="#000000" fill-opacity="0.0" d="m24.341558 174.79721l743.1181 0" fill-rule="evenodd"/><path stroke="#000000" stroke-width="3.0" stroke-linejoin="round" stroke-linecap="butt" d="m41.226387 174.79723l709.34845 0" fill-rule="evenodd"/><path fill="#000000" stroke="#000000" stroke-width="3.0" stroke-linecap="butt" d="m41.226387 174.79723l-7.1348305 -4.995865l-7.1348286 4.995865l7.1348286 4.995865z" fill-rule="evenodd"/><path fill="#000000" stroke="#000000" stroke-width="3.0" stroke-linecap="butt" d="m750.5748 174.79723l7.1348267 4.995865l7.1348267 -4.995865l-7.1348267 -4.995865z" fill-rule="evenodd"/></g></svg>