<svg version="1.1" viewBox="0.0 0.0 800.0 200.0" fill="none" stroke="none" stroke-linecap="square" stroke-miterlimit="10" xmlns:xlink="http://www.w3.org/1999/xlink" xmlns="http://www.w3.org/2000/svg"><clipPath id="p.0"><path d="m0 0l800.0 0l0 200.0l-800.0 0l0 -200.0z" clip-rule="nonzero"/></clipPath><g clip-path="url(#p.0)"><path fill="#000000" fill-opacity="0.0" d="m0 0l800.0 0l0 200.0l-800.0 0z" fill-rule="evenodd"/><path fill="#000000" fill-opacity="0.0" d="m-3.0866141 -15.989501l806.1732 0l0 249.88977l-806.1732 0z" fill-rule="evenodd"/><path fill="#000000" d="m106.04476 176.90027l0 -3.609375l4.984375 0q8.390625 0 11.90625 -5.375q2.15625 -3.21875 2.15625 -14.453125l0 -85.546875q0 -12.40625 -2.734375 -15.53125q-3.8125 -4.296875 -11.328125 -4.296875l-4.984375 0l0 -3.609375l53.906258 0q29.6875 0 45.15625 6.734375q15.484375 6.734375 24.90625 22.46875q9.421875 15.71875 9.421875 36.328125q0 27.625 -16.796875 46.1875q-18.84375 20.703125 -57.421875 20.703125l-59.171883 0zm37.796883 -9.578125q12.390625 2.734375 20.796875 2.734375q22.65625 0 37.59375 -15.90625q14.9375 -15.921875 14.9375 -43.171875q0 -27.4375 -14.9375 -43.25q-14.9375 -15.828125 -38.375 -15.828125q-8.796875 0 -20.015625 2.828125l0 112.59375z" fill-rule="nonzero"/><path fill="#000000" d="m276.119 110.33777l0 28.75l1.40625 0q6.71875 0 9.734375 -4.21875q3.015625 -4.21875 3.859375 -12.4375l1.96875 0l0 36.96875l-1.96875 0q-0.625 -6.046875 -2.640625 -9.890625q-2.0 -3.859375 -4.65625 -5.1875q-2.65625 -1.328125 -7.703125 -1.328125l0 19.890625q0 5.84375 0.484375 7.140625q0.5 1.296875 1.84375 2.140625q1.359375 0.828125 4.390625 0.828125l4.21875 0q9.890625 0 15.84375 -4.578125q5.96875 -4.59375 8.578125 -13.96875l1.921875 0l-3.171875 22.453125l-61.03125 0l0 -1.921875l2.34375 0q3.0625 0 4.9375 -1.09375q1.359375 -0.734375 2.09375 -2.5q0.5625 -1.25 0.5625 -6.5625l0 -46.453125q0 -4.796875 -0.25 -5.890625q-0.53125 -1.828125 -1.9375 -2.8125q-1.96875 -1.453125 -5.40625 -1.453125l-2.34375 0l0 -1.9375l59.109375 0l0 20.890625l-1.984375 0q-1.515625 -7.65625 -4.25 -10.984375q-2.734375 -3.34375 -7.734375 -4.90625q-2.90625 -0.9375 -10.9375 -0.9375l-7.28125 0zm92.90451 42.5l19.171875 -46.5625l28.734375 0l0 1.9375l-2.28125 0q-3.125 0 -5.0 1.09375q-1.3125 0.71875 -2.09375 2.4375q-0.5625 1.25 -0.5625 6.515625l0 46.5625q0 5.40625 0.5625 6.765625q0.578125 1.359375 2.34375 2.375q1.78125 1.015625 4.75 1.015625l2.28125 0l0 1.921875l-36.859375 0l0 -1.921875l2.28125 0q3.125 0 5.0 -1.09375q1.3125 -0.734375 2.09375 -2.5q0.5625 -1.25 0.5625 -6.5625l0 -52.34375l-27.078125 64.421875l-1.25 0l-27.5 -63.953125l0 49.734375q0 5.203125 0.265625 6.40625q0.671875 2.609375 2.9375 4.25q2.265625 1.640625 7.109375 1.640625l0 1.921875l-24.15625 0l0 -1.921875l0.71875 0q2.34375 0.046875 4.375 -0.75q2.03125 -0.8125 3.078125 -2.171875q1.046875 -1.359375 1.609375 -3.796875q0.109375 -0.578125 0.109375 -5.3125l0 -44.6875q0 -5.359375 -0.578125 -6.6875q-0.5625 -1.328125 -2.34375 -2.34375q-1.765625 -1.015625 -4.734375 -1.015625l-2.234375 0l0 -1.9375l28.84375 0l19.84375 46.5625zm91.02661 -47.546875q16.875 -0.625 27.421875 9.84375q10.546875 10.46875 10.546875 26.203125q0 13.421875 -7.859375 23.640625q-10.421875 13.53125 -29.421875 13.53125q-19.0625 0 -29.484375 -12.90625q-8.21875 -10.21875 -8.21875 -24.21875q0 -15.734375 10.703125 -26.21875q10.703125 -10.5 26.3125 -9.875zm0.625 3.328125q-9.6875 0 -14.734375 9.90625q-4.109375 8.125 -4.109375 23.328125q0 18.0625 6.34375 26.71875q4.4375 6.03125 12.40625 6.03125q5.359375 0 8.953125 -2.59375q4.578125 -3.34375 7.125 -10.65625q2.5625 -7.3125 2.5625 -19.078125q0 -14.015625 -2.609375 -20.96875q-2.59375 -6.953125 -6.640625 -9.8125q-4.03125 -2.875 -9.296875 -2.875zm67.71069 -2.34375l34.84375 43.8125l0 -30.375q0 -6.34375 -1.828125 -8.59375q-2.5 -3.015625 -8.390625 -2.90625l0 -1.9375l23.34375 0l0 1.9375q-4.484375 0.5625 -6.03125 1.484375q-1.53125 0.90625 -2.390625 2.96875q-0.859375 2.046875 -0.859375 7.046875l0 58.796875l-1.765625 0l-47.75 -58.796875l0 44.890625q0 6.09375 2.78125 8.234375q2.78125 2.140625 6.375 2.140625l1.671875 0l0 1.921875l-25.046906 0l0 -1.921875q5.8281555 -0.0625 8.1094055 -2.40625q2.296875 -2.34375 2.296875 -7.96875l0 -49.828125l-1.5 -1.875q-2.25 -2.8125 -3.9687805 -3.703125q-1.71875 -0.890625 -4.9375 -0.984375l0 -1.9375l25.046906 0zm89.52368 68.703125l0 1.921875l-36.921875 0l0 -1.921875l2.34375 0q3.0625 0 4.9375 -1.09375q1.359375 -0.734375 2.09375 -2.5q0.5625 -1.25 0.5625 -6.5625l0 -46.453125q0 -5.421875 -0.578125 -6.765625q-0.5625 -1.359375 -2.3125 -2.375q-1.734375 -1.015625 -4.703125 -1.015625l-2.34375 0l0 -1.9375l36.921875 0l0 1.9375l-2.34375 0q-3.078125 0 -4.953125 1.09375q-1.359375 0.71875 -2.140625 2.5q-0.5625 1.25 -0.5625 6.5625l0 46.453125q0 5.40625 0.59375 6.765625q0.59375 1.359375 2.34375 2.375q1.75 1.015625 4.71875 1.015625l2.34375 0zm73.63135 -70.3125l0 24.484375l-2.03125 0q-2.28125 -9.59375 -8.53125 -14.6875q-6.25 -5.109375 -14.171875 -5.109375q-6.609375 0 -12.140625 3.8125q-5.515625 3.796875 -8.0625 9.9375q-3.28125 7.859375 -3.28125 17.5q0 9.484375 2.390625 17.265625q2.390625 7.78125 7.5 11.765625q5.109375 3.984375 13.234375 3.984375q6.65625 0 12.203125 -2.90625q5.546875 -2.921875 11.703125 -10.0625l0 6.09375q-5.9375 6.203125 -12.375 8.984375q-6.4375 2.78125 -15.03125 2.78125q-11.296875 0 -20.078125 -4.53125q-8.765625 -4.53125 -13.53125 -13.015625q-4.765625 -8.484375 -4.765625 -18.0625q0 -10.109375 5.28125 -19.171875q5.296875 -9.0625 14.265625 -14.0625q8.984375 -5.0 19.09375 -5.0q7.453125 0 15.734375 3.234375q4.78125 1.875 6.09375 1.875q1.65625 0 2.875 -1.21875q1.234375 -1.234375 1.59375 -3.890625l2.03125 0z" fill-rule="nonzero"/><path fill="#000000" fill-opacity="0.0" d="m269.66928 23.322834l610.3307 0l0 87.055115l-610.3307 0z" fill-rule="evenodd"/><path fill="#000000" d="m288.04428 46.10783l32.1875 0l-3.46875 11.25l-1.1875 0q0.59375 -2.46875 0.59375 -4.40625q0 -2.28125 -1.40625 -3.4375q-1.0625 -0.875 -5.46875 -0.875l-3.34375 0l-8.375 29.187504q-1.59375 5.5 -1.59375 6.78125q0 1.1875 1.0 1.953125q1.0 0.765625 3.53125 0.765625l1.4375 0l-0.375 1.15625l-18.4375 0l0.34375 -1.15625l0.8125 0q2.4375 0 3.75 -0.78125q0.90625 -0.53125 1.640625 -1.921875q0.734375 -1.390625 2.046875 -5.890625l8.78125 -30.093754l-2.53125 0q-3.65625 0 -5.890625 0.9375q-2.234375 0.9375 -3.609375 2.71875q-1.375 1.78125 -2.25 5.0625l-1.15625 0l2.96875 -11.25zm61.203125 2.28125l-4.84375 16.750004l3.96875 0q4.25 0 6.15625 -1.2968788q1.90625 -1.296875 3.28125 -4.796875l1.15625 0l-4.34375 15.375004l-1.25 0q0.5625 -1.9375 0.5625 -3.3125q0 -1.34375 -0.546875 -2.15625q-0.546875 -0.8125 -1.5 -1.203125q-0.953125 -0.390625 -4.015625 -0.390625l-4.03125 0l-4.09375 14.03125q-0.59375 2.03125 -0.59375 3.09375q0 0.8125 0.78125 1.4375q0.53125 0.4375 2.65625 0.4375l3.75 0q6.09375 0 9.765625 -2.15625q3.671875 -2.15625 6.578125 -7.5l1.15625 0l-4.0 11.78125l-32.75 0l0.40625 -1.15625q2.4375 -0.0625 3.28125 -0.4375q1.25 -0.5625 1.8125 -1.4375q0.84375 -1.28125 2.0 -5.375l7.4375 -25.562504q0.875 -3.09375 0.875 -4.71875q0 -1.1875 -0.828125 -1.859375q-0.828125 -0.671875 -3.234375 -0.671875l-0.65625 0l0.375 -1.15625l30.4375 0l-2.625 10.21875l-1.15625 0q0.21875 -1.4375 0.21875 -2.40625q0 -1.65625 -0.8125 -2.78125q-1.0625 -1.4375 -3.09375 -2.1875q-1.5 -0.5625 -6.90625 -0.5625l-5.375 0zm60.96875 40.093754l-6.78125 -20.59375q-2.375 0.03125 -4.875 -0.46875l-3.65625 12.8125q-0.71875 2.5 -0.71875 4.21875q0 1.3125 0.90625 2.0625q0.6875 0.5625 3.75 0.8125l-0.28125 1.15625l-16.40625 0l0.34375 -1.15625q2.3125 -0.09375 3.125 -0.46875q1.28125 -0.53125 1.875 -1.4375q1.0 -1.46875 2.09375 -5.1875l7.40625 -25.593754q0.75 -2.5625 0.75 -3.96875q0 -1.4375 -1.171875 -2.4375q-1.171875 -1.0 -3.359375 -0.96875l0.375 -1.15625l13.8125 0q6.9375 0 10.0 2.625q3.0625 2.625 3.0625 6.90625q0 4.09375 -3.140625 7.484375q-3.140625 3.3906288 -8.609375 4.296879l4.125 12.40625q1.5 4.5625 3.0 5.9375q1.5 1.375 4.84375 1.5625l-0.34375 1.15625l-10.125 0zm-11.125 -22.84375q2.0 0.28125 3.5625 0.28125q5.375 0 8.5 -2.9843788q3.125 -2.984375 3.125 -7.421875q0 -3.46875 -1.953125 -5.3125q-1.953125 -1.84375 -5.859375 -1.84375q-1.0 0 -2.375 0.25l-5.0 17.031254zm70.859375 -20.500004l-3.21875 35.250004q-0.25 2.46875 -0.25 3.25q0 1.25 0.46875 1.90625q0.59375 0.90625 1.609375 1.34375q1.015625 0.4375 3.421875 0.4375l-0.34375 1.15625l-16.6875 0l0.34375 -1.15625l0.71875 0q2.03125 0 3.3125 -0.875q0.90625 -0.59375 1.40625 -1.96875q0.34375 -0.96875 0.65625 -4.5625l0.5 -5.375l-12.125 0l-4.3125 5.84375q-1.46875 1.96875 -1.84375 2.828125q-0.375 0.859375 -0.375 1.609375q0 1.0 0.8125 1.71875q0.8125 0.71875 2.6875 0.78125l-0.34375 1.15625l-12.53125 0l0.34375 -1.15625q2.3125 -0.09375 4.078125 -1.546875q1.765625 -1.453125 5.265625 -6.203125l25.3125 -34.437504l1.09375 0zm-6.1875 10.40625l-12.28125 16.718754l10.65625 0l1.625 -16.718754zm44.921875 -9.4375l13.0937805 33.218754l7.09375 -24.812504q0.875 -3.0625 0.875 -4.75q0 -1.15625 -0.8125 -1.8125q-0.8125 -0.65625 -3.03125 -0.65625q-0.375 0 -0.78125 -0.03125l0.34375 -1.15625l13.625 0l-0.375 1.15625q-2.125 -0.03125 -3.15625 0.4375q-1.46875 0.65625 -2.1875 1.6875q-1.0 1.46875 -2.03125 5.125l-9.96875 34.937504l-1.125 0l-14.0937805 -35.750004l-7.53125 26.406254q-0.84375 3.0 -0.84375 4.59375q0 1.1875 0.765625 1.796875q0.765625 0.609375 3.640625 0.828125l-0.3125 1.15625l-13.3125 0l0.4375 -1.15625q2.5 -0.0625 3.34375 -0.4375q1.28125 -0.5625 1.90625 -1.46875q0.90625 -1.375 2.03125 -5.3125l8.40625 -29.468754q-1.21875 -1.875 -2.609375 -2.578125q-1.390625 -0.703125 -4.328125 -0.796875l0.34375 -1.15625l10.59375 0zm61.06253 2.28125l-4.84375 16.750004l3.96875 0q4.25 0 6.15625 -1.2968788q1.90625 -1.296875 3.28125 -4.796875l1.15625 0l-4.34375 15.375004l-1.25 0q0.5625 -1.9375 0.5625 -3.3125q0 -1.34375 -0.546875 -2.15625q-0.546875 -0.8125 -1.5 -1.203125q-0.953125 -0.390625 -4.015625 -0.390625l-4.03125 0l-4.09375 14.03125q-0.59375 2.03125 -0.59375 3.09375q0 0.8125 0.78125 1.4375q0.53125 0.4375 2.65625 0.4375l3.75 0q6.09375 0 9.765625 -2.15625q3.671875 -2.15625 6.578125 -7.5l1.15625 0l-4.0 11.78125l-32.75 0l0.40625 -1.15625q2.4375 -0.0625 3.28125 -0.4375q1.25 -0.5625 1.8125 -1.4375q0.84375 -1.28125 2.0 -5.375l7.4375 -25.562504q0.875 -3.09375 0.875 -4.71875q0 -1.1875 -0.828125 -1.859375q-0.828125 -0.671875 -3.234375 -0.671875l-0.65625 0l0.375 -1.15625l30.4375 0l-2.625 10.21875l-1.15625 0q0.21875 -1.4375 0.21875 -2.40625q0 -1.65625 -0.8125 -2.78125q-1.0625 -1.4375 -3.09375 -2.1875q-1.5 -0.5625 -6.90625 -0.5625l-5.375 0z" fill-rule="nonzero"/></g></svg>