<svg version="1.1" viewBox="0.0 0.0 800.0 200.0" fill="none" stroke="none" stroke-linecap="square" stroke-miterlimit="10" xmlns:xlink="http://www.w3.org/1999/xlink" xmlns="http://www.w3.org/2000/svg"><clipPath id="p.0"><path d="m0 0l800.0 0l0 200.0l-800.0 0l0 -200.0z" clip-rule="nonzero"/></clipPath><g clip-path="url(#p.0)"><path fill="#000000" fill-opacity="0.0" d="m0 0l800.0 0l0 200.0l-800.0 0z" fill-rule="evenodd"/><path fill="#000000" fill-opacity="0.0" d="m-2.6246718E-7 -39.989502l800.0 0l0 249.88977l-800.0 0z" fill-rule="evenodd"/><path fill="#000000" d="m142.41223 17.447144l3.421875 41.796875l-3.421875 0q-5.171875 -15.625 -13.375 -23.53125q-11.8125 -11.421875 -30.375 -11.421875q-25.28125 0 -38.46875 20.015625q-11.03125 16.890625 -11.03125 40.234375q0 18.9375 7.3125 34.5625q7.328125 15.625 19.1875 22.90625q11.875 7.28125 24.375 7.28125q7.328125 0 14.15625 -1.859375q6.84375 -1.859375 13.1875 -5.46875l0 -38.28125q0 -9.96875 -1.515625 -13.03125q-1.515625 -3.078125 -4.6875 -4.6875q-3.171875 -1.625 -11.1875 -1.625l0 -3.703125l51.28125 0l0 3.703125l-2.453125 0q-7.609375 0 -10.4375 5.078125q-1.953125 3.625 -1.953125 14.265625l0 40.53125q-11.234375 6.046875 -22.171875 8.875q-10.9375 2.84375 -24.3125 2.84375q-38.390625 0 -58.3125 -24.609375q-14.9375 -18.46875 -14.9375 -42.578125q0 -17.484375 8.40625 -33.5q9.953125 -19.046875 27.34375 -29.296875q14.546875 -8.5 34.375 -8.5q7.21875 0 13.125 1.171875q5.90625 1.171875 16.75 5.171875q5.46875 2.0625 7.328125 2.0625q1.859375 0 3.171875 -1.703125q1.3125 -1.71875 1.609375 -6.703125l3.609375 0z" fill-rule="nonzero"/><path fill="#000000" d="m193.15833 86.33777l0 28.75l1.40625 0q6.71875 0 9.734375 -4.21875q3.015625 -4.21875 3.859375 -12.4375l1.96875 0l0 36.96875l-1.96875 0q-0.625 -6.046875 -2.640625 -9.890625q-2.0 -3.859375 -4.65625 -5.1875q-2.65625 -1.328125 -7.703125 -1.328125l0 19.890625q0 5.84375 0.484375 7.140625q0.5 1.296875 1.84375 2.140625q1.359375 0.828125 4.390625 0.828125l4.21875 0q9.890625 0 15.84375 -4.578125q5.96875 -4.59375 8.578125 -13.96875l1.921875 0l-3.171875 22.453125l-61.03125 0l0 -1.921875l2.34375 0q3.0625 0 4.9375 -1.09375q1.359375 -0.734375 2.09375 -2.5q0.5625 -1.25 0.5625 -6.5625l0 -46.453125q0 -4.796875 -0.25 -5.890625q-0.53125 -1.828125 -1.9375 -2.8125q-1.96875 -1.453125 -5.40625 -1.453125l-2.34375 0l0 -1.9375l59.109375 0l0 20.890625l-1.984375 0q-1.515625 -7.65625 -4.25 -10.984375q-2.734375 -3.34375 -7.734375 -4.90625q-2.90625 -0.9375 -10.9375 -0.9375l-7.28125 0zm83.263885 -5.046875q16.875 -0.625 27.421875 9.84375q10.546875 10.46875 10.546875 26.203125q0 13.421875 -7.859375 23.640625q-10.421875 13.53125 -29.421875 13.53125q-19.0625 0 -29.484375 -12.90625q-8.21875 -10.21875 -8.21875 -24.21875q0 -15.734375 10.703125 -26.21875q10.703125 -10.5 26.3125 -9.875zm0.625 3.328125q-9.6875 0 -14.734375 9.90625q-4.109375 8.125 -4.109375 23.328125q0 18.0625 6.34375 26.71875q4.4375 6.03125 12.40625 6.03125q5.359375 0 8.953125 -2.59375q4.578125 -3.34375 7.125 -10.65625q2.5625 -7.3125 2.5625 -19.078125q0 -14.015625 -2.609375 -20.96875q-2.59375 -6.953125 -6.640625 -9.8125q-4.03125 -2.875 -9.296875 -2.875zm114.74191 -3.953125l0 24.890625l-1.9375 0q-3.484375 -10.203125 -10.46875 -15.515625q-6.96875 -5.3125 -15.25 -5.3125q-7.921875 0 -13.1875 4.453125q-5.25 4.453125 -7.4375 12.421875q-2.1875 7.96875 -2.1875 16.359375q0 10.140625 2.390625 17.796875q2.390625 7.65625 7.734375 11.25q5.34375 3.59375 12.6875 3.59375q2.546875 0 5.21875 -0.546875q2.6875 -0.546875 5.5 -1.578125l0 -14.6875q0 -4.171875 -0.578125 -5.390625q-0.5625 -1.234375 -2.359375 -2.21875q-1.796875 -0.984375 -4.34375 -0.984375l-1.828125 0l0 -1.921875l34.3125 0l0 1.921875q-3.890625 0.265625 -5.4375 1.078125q-1.53125 0.796875 -2.359375 2.671875q-0.46875 0.984375 -0.46875 4.84375l0 14.6875q-6.78125 3.015625 -14.09375 4.546875q-7.3125 1.546875 -15.1875 1.546875q-10.046875 0 -16.6875 -2.734375q-6.640625 -2.734375 -11.71875 -7.1875q-5.078125 -4.453125 -7.9375 -10.03125q-3.640625 -7.1875 -3.640625 -16.09375q0 -15.9375 11.1875 -26.921875q11.203125 -10.984375 28.171875 -10.984375q5.265625 0 9.484375 0.828125q2.296875 0.421875 7.421875 2.375q5.125 1.953125 6.0625 1.953125q1.46875 0 2.71875 -1.0625q1.25 -1.078125 2.28125 -4.046875l1.9375 0zm37.695007 40.046875l0 19.796875q0 5.71875 0.703125 7.203125q0.703125 1.484375 2.46875 2.375q1.78125 0.890625 6.625 0.890625l0 1.921875l-36.140625 0l0 -1.921875q4.890625 0 6.625 -0.90625q1.75 -0.921875 2.453125 -2.375q0.703125 -1.46875 0.703125 -7.1875l0 -45.828125q0 -5.734375 -0.703125 -7.21875q-0.703125 -1.484375 -2.46875 -2.359375q-1.765625 -0.890625 -6.609375 -0.890625l0 -1.9375l32.796875 0q12.8125 0 18.75 1.78125q5.9375 1.765625 9.6875 6.53125q3.75 4.765625 3.75 11.171875q0 7.8125 -5.625 12.921875q-3.59375 3.21875 -10.046875 4.84375l16.984375 23.890625q3.328125 4.640625 4.734375 5.78125q2.140625 1.625 4.953125 1.78125l0 1.921875l-22.25 0l-22.75 -32.1875l-4.640625 0zm0 -34.625l0 30.9375l2.96875 0q7.234375 0 10.828125 -1.328125q3.59375 -1.328125 5.65625 -4.796875q2.0625 -3.46875 2.0625 -9.03125q0 -8.078125 -3.78125 -11.921875q-3.78125 -3.859375 -12.15625 -3.859375l-5.578125 0zm93.07062 46.703125l-24.953125 0l-2.96875 6.875q-1.453125 3.4375 -1.453125 5.6875q0 2.96875 2.390625 4.375q1.40625 0.828125 6.9375 1.25l0 1.921875l-23.5 0l0 -1.921875q3.8125 -0.578125 6.25 -3.15625q2.453125 -2.578125 6.046875 -10.65625l25.25 -56.34375l1.0 0l25.46875 57.90625q3.640625 8.234375 5.984375 10.375q1.765625 1.609375 5.0 1.875l0 1.921875l-34.171875 0l0 -1.921875l1.40625 0q4.125 0 5.78125 -1.15625q1.15625 -0.828125 1.15625 -2.390625q0 -0.9375 -0.3125 -1.921875q-0.109375 -0.46875 -1.5625 -3.90625l-3.75 -8.8125zm-1.78125 -3.84375l-10.515625 -24.328125l-10.828125 24.328125l21.34375 0zm63.226868 -8.015625l0 19.578125q0 5.71875 0.703125 7.203125q0.703125 1.484375 2.5 2.375q1.796875 0.890625 6.59375 0.890625l0 1.921875l-35.890625 0l0 -1.921875q4.90625 0 6.640625 -0.90625q1.75 -0.921875 2.453125 -2.375q0.703125 -1.46875 0.703125 -7.1875l0 -45.828125q0 -5.734375 -0.703125 -7.21875q-0.703125 -1.484375 -2.484375 -2.359375q-1.765625 -0.890625 -6.609375 -0.890625l0 -1.9375l30.78125 0q15.203125 0 21.8125 5.421875q6.625 5.421875 6.625 13.546875q0 6.875 -4.28125 11.765625q-4.265625 4.890625 -11.765625 6.671875q-5.046875 1.25 -17.078125 1.25zm0 -34.59375l0 30.53125q1.71875 0.09375 2.609375 0.09375q6.34375 0 9.78125 -3.765625q3.4375 -3.78125 3.4375 -11.703125q0 -7.859375 -3.4375 -11.5q-3.4375 -3.65625 -10.25 -3.65625l-2.140625 0zm65.50928 32.609375l0 21.875q0 5.40625 0.59375 6.765625q0.609375 1.359375 2.34375 2.375q1.75 1.015625 4.71875 1.015625l2.34375 0l0 1.921875l-36.921875 0l0 -1.921875l2.34375 0q3.078125 0 4.953125 -1.09375q1.359375 -0.734375 2.078125 -2.5q0.578125 -1.25 0.578125 -6.5625l0 -46.453125q0 -5.421875 -0.578125 -6.765625q-0.5625 -1.359375 -2.3125 -2.375q-1.75 -1.015625 -4.71875 -1.015625l-2.34375 0l0 -1.9375l36.921875 0l0 1.9375l-2.34375 0q-3.0625 0 -4.9375 1.09375q-1.359375 0.71875 -2.140625 2.5q-0.578125 1.25 -0.578125 6.5625l0 20.0l24.953125 0l0 -20.0q0 -5.421875 -0.578125 -6.765625q-0.5625 -1.359375 -2.34375 -2.375q-1.765625 -1.015625 -4.734375 -1.015625l-2.296875 0l0 -1.9375l36.875 0l0 1.9375l-2.28125 0q-3.125 0 -4.953125 1.09375q-1.359375 0.71875 -2.140625 2.5q-0.5625 1.25 -0.5625 6.5625l0 46.453125q0 5.40625 0.5625 6.765625q0.578125 1.359375 2.34375 2.375q1.78125 1.015625 4.75 1.015625l2.28125 0l0 1.921875l-36.875 0l0 -1.921875l2.296875 0q3.125 0 4.953125 -1.09375q1.34375 -0.734375 2.125 -2.5q0.578125 -1.25 0.578125 -6.5625l0 -21.875l-24.953125 0zm129.6325 -36.671875l0 1.9375q-3.484375 0.46875 -5.359375 2.03125q-2.609375 2.1875 -8.234375 11.921875l-15.3125 25.578125l0 17.078125q0 5.46875 0.5625 6.796875q0.578125 1.328125 2.265625 2.34375q1.703125 1.015625 4.515625 1.015625l3.953125 0l0 1.921875l-39.625 0l0 -1.921875l3.703125 0q3.125 0 4.9375 -1.09375q1.359375 -0.734375 2.140625 -2.5q0.5625 -1.25 0.5625 -6.5625l0 -14.171875l-16.609375 -30.25q-4.9375 -8.96875 -6.96875 -10.546875q-2.03125 -1.59375 -5.421875 -1.640625l0 -1.9375l33.84375 0l0 1.9375l-1.5 0q-3.078125 0 -4.3125 0.890625q-1.21875 0.875 -1.21875 1.859375q0 1.875 4.171875 9.4375l12.765625 23.375l12.703125 -21.296875q4.734375 -7.8125 4.734375 -10.359375q0 -1.40625 -1.34375 -2.34375q-1.78125 -1.3125 -6.515625 -1.5625l0 -1.9375l21.5625 0z" fill-rule="nonzero"/><path fill="#000000" fill-opacity="0.0" d="m189.6693 -0.6771653l610.3307 0l0 51.937008l-610.3307 0z" fill-rule="evenodd"/><path fill="#000000" fill-opacity="0.0" d="m24.341558 174.79721l743.1181 0" fill-rule="evenodd"/><path stroke="#000000" stroke-width="3.0" stroke-linejoin="round" stroke-linecap="butt" d="m41.226387 174.79723l709.34845 0" fill-rule="evenodd"/><path fill="#000000" stroke="#000000" stroke-width="3.0" stroke-linecap="butt" d="m41.226387 174.79723l-7.1348305 -4.995865l-7.1348286 4.995865l7.1348286 4.995865z" fill-rule="evenodd"/><path fill="#000000" stroke="#000000" stroke-width="3.0" stroke-linecap="butt" d="m750.5748 174.79723l7.1348267 4.995865l7.1348267 -4.995865l-7.1348267 -4.995865z" fill-rule="evenodd"/></g></svg>