<svg version="1.1" viewBox="0.0 0.0 1000.0 150.0" fill="none" stroke="none" stroke-linecap="square" stroke-miterlimit="10" xmlns:xlink="http://www.w3.org/1999/xlink" xmlns="http://www.w3.org/2000/svg"><clipPath id="p.0"><path d="m0 0l1000.0 0l0 150.0l-1000.0 0l0 -150.0z" clip-rule="nonzero"/></clipPath><g clip-path="url(#p.0)"><path fill="#000000" fill-opacity="0.0" d="m0 0l1000.0 0l0 150.0l-1000.0 0z" fill-rule="evenodd"/><path fill="#ffe599" d="m129.50818 136.22047l-19.967209 -85.44882l-15.560356 0l19.967194 85.44882z" fill-rule="evenodd"/><path fill="#d9d9d9" d="m145.50818 136.22047l-19.967209 -85.44882l-15.560356 0l19.967201 85.44882z" fill-rule="evenodd"/><path fill="#a4c2f4" d="m161.50818 136.22047l-19.967209 -85.44882l-15.560356 0l19.967201 85.44882z" fill-rule="evenodd"/><path fill="#ea9999" d="m177.50818 136.22047l-19.967209 -85.44882l-15.560364 0l19.967209 85.44882z" fill-rule="evenodd"/><path fill="#ea9999" d="m241.50818 136.22047l-19.967209 -85.44882l-15.560364 0l19.967209 85.44882z" fill-rule="evenodd"/><path fill="#a4c2f4" d="m257.50818 136.22047l-19.967209 -85.44882l-15.560364 0l19.967209 85.44882z" fill-rule="evenodd"/><path fill="#d9d9d9" d="m273.50818 136.22047l-19.967209 -85.44882l-15.560364 0l19.967209 85.44882z" fill-rule="evenodd"/><path fill="#ffe599" d="m289.50818 136.22047l-19.967194 -85.44882l-15.560379 0l19.967209 85.44882z" fill-rule="evenodd"/><path fill="#000000" fill-opacity="0.0" d="m285.68124 49.97638l20.472443 86.61417" fill-rule="evenodd"/><path stroke="#000000" stroke-width="1.0" stroke-linejoin="round" stroke-linecap="butt" d="m285.68124 49.97638l20.472443 86.61417" fill-rule="evenodd"/><path fill="#000000" fill-opacity="0.0" d="m269.68124 49.97638l20.472443 86.61417" fill-rule="evenodd"/><path stroke="#000000" stroke-width="1.0" stroke-linejoin="round" stroke-linecap="butt" d="m269.68124 49.97638l20.472443 86.61417" fill-rule="evenodd"/><path fill="#000000" fill-opacity="0.0" d="m253.68124 49.97638l20.472443 86.61417" fill-rule="evenodd"/><path stroke="#000000" stroke-width="1.0" stroke-linejoin="round" stroke-linecap="butt" d="m253.68124 49.97638l20.472443 86.61417" fill-rule="evenodd"/><path fill="#000000" fill-opacity="0.0" d="m237.68124 49.97638l20.472443 86.61417" fill-rule="evenodd"/><path stroke="#000000" stroke-width="1.0" stroke-linejoin="round" stroke-linecap="butt" d="m237.68124 49.97638l20.472443 86.61417" fill-rule="evenodd"/><path fill="#000000" fill-opacity="0.0" d="m221.68124 49.97638l20.472427 86.61417" fill-rule="evenodd"/><path stroke="#000000" stroke-width="1.0" stroke-linejoin="round" stroke-linecap="butt" d="m221.68124 49.97638l20.472427 86.61417" fill-rule="evenodd"/><path fill="#000000" fill-opacity="0.0" d="m205.68124 49.97638l20.472427 86.61417" fill-rule="evenodd"/><path stroke="#000000" stroke-width="1.0" stroke-linejoin="round" stroke-linecap="butt" d="m205.68124 49.97638l20.472427 86.61417" fill-rule="evenodd"/><path fill="#000000" fill-opacity="0.0" d="m189.68124 49.97638l20.472427 86.61417" fill-rule="evenodd"/><path stroke="#000000" stroke-width="1.0" stroke-linejoin="round" stroke-linecap="butt" d="m189.68124 49.97638l20.472427 86.61417" fill-rule="evenodd"/><path fill="#000000" fill-opacity="0.0" d="m173.68124 49.97638l20.472427 86.61417" fill-rule="evenodd"/><path stroke="#000000" stroke-width="1.0" stroke-linejoin="round" stroke-linecap="butt" d="m173.68124 49.97638l20.472427 86.61417" fill-rule="evenodd"/><path fill="#000000" fill-opacity="0.0" d="m157.68124 49.97638l20.472427 86.61417" fill-rule="evenodd"/><path stroke="#000000" stroke-width="1.0" stroke-linejoin="round" stroke-linecap="butt" d="m157.68124 49.97638l20.472427 86.61417" fill-rule="evenodd"/><path fill="#000000" fill-opacity="0.0" d="m141.68124 49.97638l20.472427 86.61417" fill-rule="evenodd"/><path stroke="#000000" stroke-width="1.0" stroke-linejoin="round" stroke-linecap="butt" d="m141.68124 49.97638l20.472427 86.61417" fill-rule="evenodd"/><path fill="#000000" fill-opacity="0.0" d="m125.68124 49.97638l20.472435 86.61417" fill-rule="evenodd"/><path stroke="#000000" stroke-width="1.0" stroke-linejoin="round" stroke-linecap="butt" d="m125.68124 49.97638l20.472435 86.61417" fill-rule="evenodd"/><path fill="#000000" fill-opacity="0.0" d="m109.68124 49.97638l20.472435 86.61417" fill-rule="evenodd"/><path stroke="#000000" stroke-width="1.0" stroke-linejoin="round" stroke-linecap="butt" d="m109.68124 49.97638l20.472435 86.61417" fill-rule="evenodd"/><path fill="#000000" fill-opacity="0.0" d="m93.68124 49.97638l20.472443 86.61417" fill-rule="evenodd"/><path stroke="#000000" stroke-width="1.0" stroke-linejoin="round" stroke-linecap="butt" d="m93.68124 49.97638l20.472443 86.61417" fill-rule="evenodd"/><path fill="#000000" fill-opacity="0.0" d="m77.68124 49.97638l20.472443 86.61417" fill-rule="evenodd"/><path stroke="#000000" stroke-width="1.0" stroke-linejoin="round" stroke-linecap="butt" d="m77.68124 49.97638l20.472443 86.61417" fill-rule="evenodd"/><path fill="#ffe599" d="m878.3267 136.22047l19.967224 -85.44882l15.560364 0l-19.967224 85.44882z" fill-rule="evenodd"/><path fill="#d9d9d9" d="m862.3267 136.22047l19.967224 -85.44882l15.560364 0l-19.967224 85.44882z" fill-rule="evenodd"/><path fill="#a4c2f4" d="m846.3267 136.22047l19.967224 -85.44882l15.560364 0l-19.967224 85.44882z" fill-rule="evenodd"/><path fill="#ea9999" d="m830.3267 136.22047l19.967224 -85.44882l15.560364 0l-19.967224 85.44882z" fill-rule="evenodd"/><path fill="#ea9999" d="m766.3267 136.22047l19.967224 -85.44882l15.560364 0l-19.967224 85.44882z" fill-rule="evenodd"/><path fill="#a4c2f4" d="m750.3267 136.22047l19.967224 -85.44882l15.560364 0l-19.967224 85.44882z" fill-rule="evenodd"/><path fill="#d9d9d9" d="m734.3267 136.22047l19.967224 -85.44882l15.560364 0l-19.967224 85.44882z" fill-rule="evenodd"/><path fill="#ffe599" d="m718.3267 136.22047l19.967224 -85.44882l15.560364 0l-19.967224 85.44882z" fill-rule="evenodd"/><path fill="#000000" fill-opacity="0.0" d="m-44.220474 19.079391l1088.4409 0l0 109.25984l-1088.4409 0z" fill-rule="evenodd"/><path fill="#000000" d="m324.83594 119.58931l0 -2.3125l3.1875 0q5.375 0 7.625 -3.4375q1.375 -2.0625 1.375 -9.25l0 -54.75q0 -7.9375 -1.75 -9.9375q-2.4375 -2.75 -7.25 -2.75l-3.1875 0l0 -2.3125l34.5 0q19.0 0 28.90625 4.3125q9.90625 4.3125 15.9375 14.375q6.03125 10.0625 6.03125 23.25q0 17.6875 -10.75 29.5625q-12.0625 13.25 -36.75 13.25l-37.875 0zm24.1875 -6.125q7.9375 1.75 13.3125 1.75q14.5 0 24.0625 -10.1875q9.5625 -10.1875 9.5625 -27.625q0 -17.5625 -9.5625 -27.6875q-9.5625 -10.125 -24.5625 -10.125q-5.625 0 -12.8125 1.8125l0 72.0625z" fill-rule="nonzero"/><path fill="#000000" d="m444.3828 118.136185l0 1.453125l-27.6875 0l0 -1.453125l1.75 0q2.3125 0 3.71875 -0.8125q1.015625 -0.546875 1.5625 -1.875q0.421875 -0.9375 0.421875 -4.921875l0 -34.84375q0 -4.0625 -0.4375 -5.078125q-0.421875 -1.015625 -1.734375 -1.78125q-1.296875 -0.765625 -3.53125 -0.765625l-1.75 0l0 -1.4375l27.6875 0l0 1.4375l-1.75 0q-2.3125 0 -3.71875 0.828125q-1.015625 0.546875 -1.59375 1.875q-0.4375 0.9375 -0.4375 4.921875l0 34.84375q0 4.0625 0.453125 5.078125q0.453125 1.015625 1.75 1.78125q1.3125 0.75 3.546875 0.75l1.75 0zm23.085938 -22.6875l0 14.84375q0 4.296875 0.53125 5.40625q0.53125 1.109375 1.859375 1.78125q1.328125 0.65625 4.953125 0.65625l0 1.453125l-27.109375 0l0 -1.453125q3.671875 0 4.984375 -0.671875q1.3125 -0.6875 1.828125 -1.78125q0.53125 -1.09375 0.53125 -5.390625l0 -34.375q0 -4.296875 -0.53125 -5.40625q-0.515625 -1.125 -1.84375 -1.78125q-1.328125 -0.671875 -4.96875 -0.671875l0 -1.4375l24.609375 0q9.609375 0 14.0625 1.328125q4.453125 1.328125 7.265625 4.90625q2.8125 3.5625 2.8125 8.375q0 5.859375 -4.21875 9.6875q-2.6875 2.421875 -7.53125 3.625l12.734375 17.9375q2.5 3.46875 3.546875 4.328125q1.609375 1.21875 3.71875 1.328125l0 1.453125l-16.6875 0l-17.0625 -24.140625l-3.484375 0zm0 -25.984375l0 23.203125l2.234375 0q5.421875 0 8.109375 -0.984375q2.703125 -1.0 4.25 -3.59375q1.546875 -2.609375 1.546875 -6.78125q0 -6.0625 -2.84375 -8.953125q-2.828125 -2.890625 -9.109375 -2.890625l-4.1875 0zm58.320312 0.203125l0 21.5625l1.0625 0q5.03125 0 7.296875 -3.15625q2.265625 -3.171875 2.890625 -9.34375l1.484375 0l0 27.734375l-1.484375 0q-0.46875 -4.53125 -1.96875 -7.421875q-1.5 -2.890625 -3.5 -3.890625q-1.984375 -1.0 -5.78125 -1.0l0 14.921875q0 4.375 0.375 5.359375q0.375 0.96875 1.390625 1.59375q1.015625 0.625 3.28125 0.625l3.15625 0q7.421875 0 11.890625 -3.4375q4.484375 -3.4375 6.4375 -10.46875l1.4375 0l-2.375 16.84375l-45.78125 0l0 -1.453125l1.75 0q2.3125 0 3.71875 -0.8125q1.015625 -0.546875 1.5625 -1.875q0.421875 -0.9375 0.421875 -4.921875l0 -34.84375q0 -3.59375 -0.1875 -4.421875q-0.390625 -1.359375 -1.453125 -2.109375q-1.484375 -1.09375 -4.0625 -1.09375l-1.75 0l0 -1.4375l44.328125 0l0 15.65625l-1.484375 0q-1.125 -5.734375 -3.1875 -8.234375q-2.046875 -2.5 -5.796875 -3.671875q-2.1875 -0.703125 -8.203125 -0.703125l-5.46875 0zm86.765625 -4.265625l0 18.671875l-1.453125 0q-2.609375 -7.65625 -7.84375 -11.640625q-5.234375 -3.984375 -11.453125 -3.984375q-5.9375 0 -9.890625 3.34375q-3.9375 3.34375 -5.578125 9.328125q-1.640625 5.96875 -1.640625 12.25q0 7.625 1.796875 13.375q1.796875 5.734375 5.796875 8.4375q4.015625 2.6875 9.515625 2.6875q1.921875 0 3.921875 -0.40625q2.015625 -0.421875 4.125 -1.203125l0 -11.015625q0 -3.125 -0.4375 -4.03125q-0.421875 -0.921875 -1.765625 -1.65625q-1.34375 -0.75 -3.265625 -0.75l-1.359375 0l0 -1.453125l25.734375 0l0 1.453125q-2.921875 0.1875 -4.078125 0.796875q-1.15625 0.609375 -1.78125 2.015625q-0.34375 0.734375 -0.34375 3.625l0 11.015625q-5.078125 2.265625 -10.578125 3.421875q-5.484375 1.15625 -11.375 1.15625q-7.546875 0 -12.53125 -2.046875q-4.96875 -2.0625 -8.78125 -5.390625q-3.8125 -3.34375 -5.953125 -7.53125q-2.734375 -5.390625 -2.734375 -12.0625q0 -11.953125 8.390625 -20.1875q8.40625 -8.25 21.140625 -8.25q3.9375 0 7.109375 0.625q1.71875 0.3125 5.5625 1.78125q3.84375 1.453125 4.546875 1.453125q1.09375 0 2.03125 -0.796875q0.9375 -0.796875 1.71875 -3.03125l1.453125 0zm40.304688 39.109375l-18.703125 0l-2.234375 5.15625q-1.09375 2.578125 -1.09375 4.25q0 2.234375 1.796875 3.28125q1.0625 0.625 5.203125 0.9375l0 1.453125l-17.625 0l0 -1.453125q2.859375 -0.421875 4.6875 -2.359375q1.84375 -1.9375 4.53125 -7.984375l18.953125 -42.265625l0.734375 0l19.109375 43.4375q2.734375 6.171875 4.484375 7.765625q1.328125 1.21875 3.75 1.40625l0 1.453125l-25.625 0l0 -1.453125l1.0625 0q3.078125 0 4.328125 -0.859375q0.859375 -0.625 0.859375 -1.796875q0 -0.703125 -0.234375 -1.4375q-0.078125 -0.359375 -1.171875 -2.9375l-2.8125 -6.59375zm-1.328125 -2.890625l-7.890625 -18.25l-8.125 18.25l16.015625 0z" fill-rule="nonzero"/><path fill="#000000" fill-opacity="0.0" d="m56.53018 49.47572l251.46457 0" fill-rule="evenodd"/><path stroke="#000000" stroke-width="3.0" stroke-linejoin="round" stroke-linecap="butt" d="m73.41501 49.475716l217.69492 0" fill-rule="evenodd"/><path fill="#000000" stroke="#000000" stroke-width="3.0" stroke-linecap="butt" d="m73.415016 49.475716l-7.1348343 -4.995861l-7.1348267 4.995861l7.1348267 4.995861z" fill-rule="evenodd"/><path fill="#000000" stroke="#000000" stroke-width="3.0" stroke-linecap="butt" d="m291.10992 49.475716l7.1348267 4.995861l7.1348267 -4.995861l-7.1348267 -4.995861z" fill-rule="evenodd"/><path fill="#000000" fill-opacity="0.0" d="m421.39108 49.475067l528.5984 0" fill-rule="evenodd"/><path stroke="#000000" stroke-width="3.0" stroke-linejoin="round" stroke-linecap="butt" d="m438.2759 49.475067l494.82877 0" fill-rule="evenodd"/><path fill="#000000" stroke="#000000" stroke-width="3.0" stroke-linecap="butt" d="m438.2759 49.475067l-7.1348267 -4.995865l-7.1348267 4.995865l7.1348267 4.995861z" fill-rule="evenodd"/><path fill="#000000" stroke="#000000" stroke-width="3.0" stroke-linecap="butt" d="m933.1047 49.475067l7.1348267 4.995861l7.1348267 -4.995861l-7.1348267 -4.995865z" fill-rule="evenodd"/><path fill="#000000" fill-opacity="0.0" d="m53.35958 136.42078l896.62994 0.15748596" fill-rule="evenodd"/><path stroke="#000000" stroke-width="3.0" stroke-linejoin="round" stroke-linecap="butt" d="m70.24441 136.42374l862.8603 0.15156555" fill-rule="evenodd"/><path fill="#000000" stroke="#000000" stroke-width="3.0" stroke-linecap="butt" d="m70.24441 136.42374l-7.1339493 -4.997101l-7.135708 4.9945984l7.133953 4.997116z" fill-rule="evenodd"/><path fill="#000000" stroke="#000000" stroke-width="3.0" stroke-linecap="butt" d="m933.1047 136.57529l7.133972 4.997116l7.135681 -4.9945984l-7.133972 -4.997116z" fill-rule="evenodd"/><path fill="#000000" fill-opacity="0.0" d="m722.1537 49.97638l-20.472473 86.61417" fill-rule="evenodd"/><path stroke="#000000" stroke-width="1.0" stroke-linejoin="round" stroke-linecap="butt" d="m722.1537 49.97638l-20.472473 86.61417" fill-rule="evenodd"/><path fill="#000000" fill-opacity="0.0" d="m738.1537 49.97638l-20.472473 86.61417" fill-rule="evenodd"/><path stroke="#000000" stroke-width="1.0" stroke-linejoin="round" stroke-linecap="butt" d="m738.1537 49.97638l-20.472473 86.61417" fill-rule="evenodd"/><path fill="#000000" fill-opacity="0.0" d="m754.1537 49.97638l-20.472473 86.61417" fill-rule="evenodd"/><path stroke="#000000" stroke-width="1.0" stroke-linejoin="round" stroke-linecap="butt" d="m754.1537 49.97638l-20.472473 86.61417" fill-rule="evenodd"/><path fill="#000000" fill-opacity="0.0" d="m770.1537 49.97638l-20.472473 86.61417" fill-rule="evenodd"/><path stroke="#000000" stroke-width="1.0" stroke-linejoin="round" stroke-linecap="butt" d="m770.1537 49.97638l-20.472473 86.61417" fill-rule="evenodd"/><path fill="#000000" fill-opacity="0.0" d="m786.1537 49.97638l-20.472473 86.61417" fill-rule="evenodd"/><path stroke="#000000" stroke-width="1.0" stroke-linejoin="round" stroke-linecap="butt" d="m786.1537 49.97638l-20.472473 86.61417" fill-rule="evenodd"/><path fill="#000000" fill-opacity="0.0" d="m802.1537 49.97638l-20.472473 86.61417" fill-rule="evenodd"/><path stroke="#000000" stroke-width="1.0" stroke-linejoin="round" stroke-linecap="butt" d="m802.1537 49.97638l-20.472473 86.61417" fill-rule="evenodd"/><path fill="#000000" fill-opacity="0.0" d="m818.1537 49.97638l-20.472473 86.61417" fill-rule="evenodd"/><path stroke="#000000" stroke-width="1.0" stroke-linejoin="round" stroke-linecap="butt" d="m818.1537 49.97638l-20.472473 86.61417" fill-rule="evenodd"/><path fill="#000000" fill-opacity="0.0" d="m834.1537 49.97638l-20.472473 86.61417" fill-rule="evenodd"/><path stroke="#000000" stroke-width="1.0" stroke-linejoin="round" stroke-linecap="butt" d="m834.1537 49.97638l-20.472473 86.61417" fill-rule="evenodd"/><path fill="#000000" fill-opacity="0.0" d="m850.1537 49.97638l-20.472473 86.61417" fill-rule="evenodd"/><path stroke="#000000" stroke-width="1.0" stroke-linejoin="round" stroke-linecap="butt" d="m850.1537 49.97638l-20.472473 86.61417" fill-rule="evenodd"/><path fill="#000000" fill-opacity="0.0" d="m866.1537 49.97638l-20.472473 86.61417" fill-rule="evenodd"/><path stroke="#000000" stroke-width="1.0" stroke-linejoin="round" stroke-linecap="butt" d="m866.1537 49.97638l-20.472473 86.61417" fill-rule="evenodd"/><path fill="#000000" fill-opacity="0.0" d="m882.1537 49.97638l-20.472473 86.61417" fill-rule="evenodd"/><path stroke="#000000" stroke-width="1.0" stroke-linejoin="round" stroke-linecap="butt" d="m882.1537 49.97638l-20.472473 86.61417" fill-rule="evenodd"/><path fill="#000000" fill-opacity="0.0" d="m898.1537 49.97638l-20.472473 86.61417" fill-rule="evenodd"/><path stroke="#000000" stroke-width="1.0" stroke-linejoin="round" stroke-linecap="butt" d="m898.1537 49.97638l-20.472473 86.61417" fill-rule="evenodd"/><path fill="#000000" fill-opacity="0.0" d="m914.1537 49.97638l-20.472473 86.61417" fill-rule="evenodd"/><path stroke="#000000" stroke-width="1.0" stroke-linejoin="round" stroke-linecap="butt" d="m914.1537 49.97638l-20.472473 86.61417" fill-rule="evenodd"/><path fill="#000000" fill-opacity="0.0" d="m930.1537 49.97638l-20.472473 86.61417" fill-rule="evenodd"/><path stroke="#000000" stroke-width="1.0" stroke-linejoin="round" stroke-linecap="butt" d="m930.1537 49.97638l-20.472473 86.61417" fill-rule="evenodd"/></g></svg>