<svg version="1.1" viewBox="0.0 0.0 800.0 200.0" fill="none" stroke="none" stroke-linecap="square" stroke-miterlimit="10" xmlns:xlink="http://www.w3.org/1999/xlink" xmlns="http://www.w3.org/2000/svg"><clipPath id="p.0"><path d="m0 0l800.0 0l0 200.0l-800.0 0l0 -200.0z" clip-rule="nonzero"/></clipPath><g clip-path="url(#p.0)"><path fill="#000000" fill-opacity="0.0" d="m0 0l800.0 0l0 200.0l-800.0 0z" fill-rule="evenodd"/><path fill="#000000" fill-opacity="0.0" d="m-3.0866141 -15.989501l806.1732 0l0 249.88977l-806.1732 0z" fill-rule="evenodd"/><path fill="#000000" d="m70.53637 105.90027l61.531258 0l0 -37.890625q0 -10.15625 -1.265625 -13.375q-0.984375 -2.4375 -4.1093826 -4.203125q-4.203125 -2.34375 -8.890625 -2.34375l-4.6875 0l0 -3.609375l56.640633 0l0 3.609375l-4.6875 0q-4.6875 0 -8.875 2.25q-3.125 1.5625 -4.25 4.734375q-1.125 3.171875 -1.125 12.9375l0 85.453125q0 10.0625 1.265625 13.28125q0.984375 2.4375 4.0 4.203125q4.296875 2.34375 8.984375 2.34375l4.6875 0l0 3.609375l-56.640633 0l0 -3.609375l4.6875 0q8.109375 0 11.828133 -4.796875q2.4375 -3.125 2.4375 -15.03125l0 -40.328125l-61.531258 0l0 40.328125q0 10.0625 1.28125 13.28125q0.96875 2.4375 4.09375 4.203125q4.203125 2.34375 8.890625 2.34375l4.78125 0l0 3.609375l-56.73437 0l0 -3.609375l4.6875 0q8.203125 0 11.90625 -4.796875q2.34375 -3.125 2.34375 -15.03125l0 -85.453125q0 -10.15625 -1.265625 -13.375q-0.96875 -2.4375 -4.0 -4.203125q-4.296875 -2.34375 -8.984375 -2.34375l-4.6875 0l0 -3.609375l56.73437 0l0 3.609375l-4.78125 0q-4.6875 0 -8.890625 2.25q-3.03125 1.5625 -4.203125 4.734375q-1.171875 3.171875 -1.171875 12.9375l0 37.890625z" fill-rule="nonzero"/><path fill="#000000" d="m212.9231 174.9784l0 1.921875l-36.921875 0l0 -1.921875l2.34375 0q3.0625 0 4.9375 -1.09375q1.359375 -0.734375 2.09375 -2.5q0.5625 -1.25 0.5625 -6.5625l0 -46.453125q0 -5.421875 -0.578125 -6.765625q-0.5625 -1.359375 -2.3125 -2.375q-1.734375 -1.015625 -4.703125 -1.015625l-2.34375 0l0 -1.9375l36.921875 0l0 1.9375l-2.34375 0q-3.078125 0 -4.953125 1.09375q-1.359375 0.71875 -2.140625 2.5q-0.5625 1.25 -0.5625 6.5625l0 46.453125q0 5.40625 0.59375 6.765625q0.59375 1.359375 2.34375 2.375q1.75 1.015625 4.71875 1.015625l2.34375 0zm52.537598 -70.3125l0.578125 23.546875l-2.140625 0q-1.5 -8.859375 -7.421875 -14.25q-5.9062347 -5.390625 -12.781235 -5.390625q-5.3125 0 -8.40625 2.84375q-3.09375 2.828125 -3.09375 6.53125q0 2.34375 1.09375 4.171875q1.5 2.4375 4.84375 4.84375q2.4375 1.71875 11.296875 6.09375q12.39061 6.09375 16.718735 11.5q4.265625 5.421875 4.265625 12.390625q0 8.859375 -6.90625 15.25q-6.890625 6.375 -17.51561 6.375q-3.34375 0 -6.3125 -0.6875q-2.953125 -0.671875 -7.4375 -2.546875q-2.5 -1.046875 -4.109375 -1.046875q-1.359375 0 -2.875 1.046875q-1.5 1.046875 -2.4375 3.171875l-1.9375 0l0 -26.65625l1.9375 0q2.28125 11.25 8.8125 17.15625q6.546875 5.90625 14.09375 5.90625q5.828125 0 9.29686 -3.171875q3.46875 -3.171875 3.46875 -7.390625q0 -2.5 -1.328125 -4.84375q-1.328125 -2.34375 -4.046875 -4.453125q-2.7031097 -2.109375 -9.57811 -5.5q-9.625 -4.734375 -13.84375 -8.0625q-4.21875 -3.34375 -6.484375 -7.453125q-2.265625 -4.109375 -2.265625 -9.0625q0 -8.4375 6.1875 -14.375q6.203125 -5.9375 15.625 -5.9375q3.4375 0 6.671875 0.828125q2.4375 0.625 5.9531097 2.328125q3.515625 1.6875 4.921875 1.6875q1.359375 0 2.140625 -0.828125q0.78125 -0.84375 1.453125 -4.015625l1.5625 0zm76.50464 1.609375l0 19.125l-1.875 0q-1.65625 -6.625 -3.6875 -9.515625q-2.03125 -2.890625 -5.578125 -4.609375q-1.984375 -0.9375 -6.921875 -0.9375l-5.265625 0l0 54.484375q0 5.40625 0.59375 6.765625q0.609375 1.359375 2.34375 2.375q1.75 1.015625 4.765625 1.015625l2.34375 0l0 1.921875l-36.96875 0l0 -1.921875l2.34375 0q3.078125 0 4.953125 -1.09375q1.34375 -0.734375 2.125 -2.5q0.578125 -1.25 0.578125 -6.5625l0 -54.484375l-5.109375 0q-7.125 0 -10.359375 3.03125q-4.53125 4.21875 -5.734375 12.03125l-1.96875 0l0 -19.125l63.421875 0zm43.118042 -0.984375q16.875 -0.625 27.421875 9.84375q10.546875 10.46875 10.546875 26.203125q0 13.421875 -7.859375 23.640625q-10.421875 13.53125 -29.421875 13.53125q-19.0625 0 -29.484375 -12.90625q-8.21875 -10.21875 -8.21875 -24.21875q0 -15.734375 10.703125 -26.21875q10.703125 -10.5 26.3125 -9.875zm0.625 3.328125q-9.6875 0 -14.734375 9.90625q-4.109375 8.125 -4.109375 23.328125q0 18.0625 6.34375 26.71875q4.4375 6.03125 12.40625 6.03125q5.359375 0 8.953125 -2.59375q4.578125 -3.34375 7.125 -10.65625q2.5625 -7.3125 2.5625 -19.078125q0 -14.015625 -2.609375 -20.96875q-2.59375 -6.953125 -6.640625 -9.8125q-4.03125 -2.875 -9.296875 -2.875zm69.47629 36.09375l0 19.796875q0 5.71875 0.703125 7.203125q0.703125 1.484375 2.46875 2.375q1.78125 0.890625 6.625 0.890625l0 1.921875l-36.140625 0l0 -1.921875q4.890625 0 6.625 -0.90625q1.75 -0.921875 2.453125 -2.375q0.703125 -1.46875 0.703125 -7.1875l0 -45.828125q0 -5.734375 -0.703125 -7.21875q-0.703125 -1.484375 -2.46875 -2.359375q-1.765625 -0.890625 -6.609375 -0.890625l0 -1.9375l32.796875 0q12.8125 0 18.75 1.78125q5.9375 1.765625 9.6875 6.53125q3.75 4.765625 3.75 11.171875q0 7.8125 -5.625 12.921875q-3.59375 3.21875 -10.046875 4.84375l16.984375 23.890625q3.328125 4.640625 4.734375 5.78125q2.140625 1.625 4.953125 1.78125l0 1.921875l-22.25 0l-22.75 -32.1875l-4.640625 0zm0 -34.625l0 30.9375l2.96875 0q7.234375 0 10.828125 -1.328125q3.59375 -1.328125 5.65625 -4.796875q2.0625 -3.46875 2.0625 -9.03125q0 -8.078125 -3.78125 -11.921875q-3.78125 -3.859375 -12.15625 -3.859375l-5.578125 0zm87.75809 64.890625l0 1.921875l-36.921875 0l0 -1.921875l2.34375 0q3.0625 0 4.9375 -1.09375q1.359375 -0.734375 2.09375 -2.5q0.5625 -1.25 0.5625 -6.5625l0 -46.453125q0 -5.421875 -0.578125 -6.765625q-0.5625 -1.359375 -2.3125 -2.375q-1.734375 -1.015625 -4.703125 -1.015625l-2.34375 0l0 -1.9375l36.921875 0l0 1.9375l-2.34375 0q-3.078125 0 -4.953125 1.09375q-1.359375 0.71875 -2.140625 2.5q-0.5625 1.25 -0.5625 6.5625l0 46.453125q0 5.40625 0.59375 6.765625q0.59375 1.359375 2.34375 2.375q1.75 1.015625 4.71875 1.015625l2.34375 0zm73.63135 -70.3125l0 24.484375l-2.03125 0q-2.28125 -9.59375 -8.53125 -14.6875q-6.25 -5.109375 -14.171875 -5.109375q-6.609375 0 -12.140625 3.8125q-5.515625 3.796875 -8.0625 9.9375q-3.28125 7.859375 -3.28125 17.5q0 9.484375 2.390625 17.265625q2.390625 7.78125 7.5 11.765625q5.109375 3.984375 13.234375 3.984375q6.65625 0 12.203125 -2.90625q5.546875 -2.921875 11.703125 -10.0625l0 6.09375q-5.9375 6.203125 -12.375 8.984375q-6.4375 2.78125 -15.03125 2.78125q-11.296875 0 -20.078125 -4.53125q-8.765625 -4.53125 -13.53125 -13.015625q-4.765625 -8.484375 -4.765625 -18.0625q0 -10.109375 5.28125 -19.171875q5.296875 -9.0625 14.265625 -14.0625q8.984375 -5.0 19.09375 -5.0q7.453125 0 15.734375 3.234375q4.78125 1.875 6.09375 1.875q1.65625 0 2.875 -1.21875q1.234375 -1.234375 1.59375 -3.890625l2.03125 0zm50.211243 52.125l-24.953125 0l-2.96875 6.875q-1.453125 3.4375 -1.453125 5.6875q0 2.96875 2.390625 4.375q1.40625 0.828125 6.9375 1.25l0 1.921875l-23.5 0l0 -1.921875q3.8125 -0.578125 6.25 -3.15625q2.453125 -2.578125 6.046875 -10.65625l25.25 -56.34375l1.0 0l25.46875 57.90625q3.640625 8.234375 5.984375 10.375q1.765625 1.609375 5.0 1.875l0 1.921875l-34.171875 0l0 -1.921875l1.40625 0q4.125 0 5.78125 -1.15625q1.15625 -0.828125 1.15625 -2.390625q0 -0.9375 -0.3125 -1.921875q-0.109375 -0.46875 -1.5625 -3.90625l-3.75 -8.8125zm-1.78125 -3.84375l-10.515625 -24.328125l-10.828125 24.328125l21.34375 0zm101.77374 -0.84375l-2.65625 24.796875l-62.703125 0l0 -1.921875l2.34375 0q3.0625 0 4.9375 -1.09375q1.359375 -0.734375 2.09375 -2.5q0.5625 -1.25 0.5625 -6.5625l0 -46.453125q0 -5.421875 -0.578125 -6.765625q-0.5625 -1.359375 -2.3125 -2.375q-1.734375 -1.015625 -4.703125 -1.015625l-2.34375 0l0 -1.9375l37.640625 0l0 1.9375l-3.0625 0q-3.078125 0 -4.953125 1.09375q-1.359375 0.71875 -2.140625 2.5q-0.5625 1.25 -0.5625 6.5625l0 44.984375q0 5.421875 0.625 6.90625q0.625 1.484375 2.4375 2.21875q1.3125 0.46875 6.3125 0.46875l5.875 0q5.625 0 9.375 -1.984375q3.75 -1.984375 6.484375 -6.25q2.734375 -4.265625 5.1875 -12.609375l2.140625 0z" fill-rule="nonzero"/><path fill="#000000" fill-opacity="0.0" d="m269.66928 23.322834l610.3307 0l0 87.055115l-610.3307 0z" fill-rule="evenodd"/><path fill="#000000" d="m299.48178 48.35783l-5.0 16.781254l5.5625 0q3.75 0 5.609375 -1.1562538q1.859375 -1.15625 3.828125 -4.9375l1.1875 0l-4.40625 15.437504l-1.25 0q0.46875 -1.875 0.46875 -3.09375q0 -1.90625 -1.265625 -2.953125q-1.265625 -1.046875 -4.734375 -1.046875l-5.625 0l-3.6875 12.78125q-1.0 3.40625 -1.0 4.53125q0 1.15625 0.859375 1.78125q0.859375 0.625 4.203125 0.84375l-0.375 1.15625l-16.75 0l0.40625 -1.15625q2.4375 -0.0625 3.25 -0.4375q1.25 -0.53125 1.84375 -1.4375q0.84375 -1.28125 2.0 -5.28125l7.46875 -25.531254q0.90625 -3.09375 0.90625 -4.84375q0 -0.8125 -0.40625 -1.390625q-0.40625 -0.578125 -1.203125 -0.859375q-0.796875 -0.28125 -3.171875 -0.28125l0.375 -1.15625l32.875 0l-3.125 10.71875l-1.1875 0q0.34375 -1.9375 0.34375 -3.1875q0 -2.0625 -1.140625 -3.265625q-1.140625 -1.203125 -2.921875 -1.703125q-1.25 -0.3125 -5.59375 -0.3125l-8.34375 0zm50.0625 38.968754l-0.34375 1.15625l-17.4375 0l0.4375 -1.15625q2.625 -0.0625 3.46875 -0.4375q1.375 -0.53125 2.03125 -1.46875q1.03125 -1.46875 2.125 -5.25l7.375 -25.562504q0.9375 -3.1875 0.9375 -4.8125q0 -0.8125 -0.40625 -1.375q-0.40625 -0.5625 -1.234375 -0.859375q-0.828125 -0.296875 -3.234375 -0.296875l0.375 -1.15625l16.375 0l-0.34375 1.15625q-2.0 -0.03125 -2.96875 0.4375q-1.40625 0.625 -2.140625 1.78125q-0.734375 1.15625 -1.890625 5.125l-7.34375 25.562504q-1.0 3.53125 -1.0 4.5q0 0.78125 0.390625 1.328125q0.390625 0.546875 1.25 0.84375q0.859375 0.296875 3.578125 0.484375zm67.59375 -42.187504l-3.15625 13.34375l-1.1875 0q0.28125 -2.34375 0.28125 -3.46875q0 -3.0625 -2.703125 -5.421875q-2.703125 -2.359375 -7.453125 -2.359375q-9.71875 0 -15.875 9.125q-4.90625 7.21875 -4.90625 16.156254q0 5.9375 3.03125 10.25q3.03125 4.3125 9.34375 4.3125q1.5625 0 2.953125 -0.28125q1.390625 -0.28125 4.203125 -1.25l3.09375 -10.90625q0.65625 -2.25 0.65625 -3.59375q0 -1.125 -0.8125 -1.71875q-1.3125 -0.90625 -4.25 -0.90625l-0.875 0l0.34375 -1.21875l17.625 0l-0.3125 1.21875q-2.40625 0.03125 -3.5 0.5625q-1.09375 0.53125 -1.875 1.8125q-0.53125 0.84375 -1.71875 4.90625l-3.125 10.71875q-4.28125 1.84375 -6.90625 2.453125q-2.625 0.609375 -5.53125 0.609375q-6.6875 0 -10.84375 -2.515625q-4.15625 -2.515625 -6.140625 -6.65625q-1.984375 -4.140625 -1.984375 -8.234375q0 -5.5 2.3125 -10.453129q2.3125 -4.953125 5.765625 -8.375q3.453125 -3.421875 7.515625 -5.390625q5.59375 -2.71875 11.75 -2.71875q4.53125 0 8.1875 1.5q1.46875 0.59375 2.15625 0.59375q0.78125 0 1.328125 -0.359375q0.546875 -0.359375 1.421875 -1.734375l1.1875 0zm24.53125 0.96875l17.90625 0l-0.34375 1.15625q-2.75 0.0625 -3.921875 0.515625q-1.171875 0.453125 -2.0 1.609375q-0.828125 1.15625 -1.734375 4.28125l-4.34375 15.000004q-1.15625 4.0 -1.375 5.25q-0.375 2.0 -0.375 3.71875q0 3.78125 2.8125 6.390625q2.8125 2.609375 7.53125 2.609375q3.09375 0 5.53125 -1.171875q2.4375 -1.171875 4.171875 -3.28125q1.734375 -2.109375 3.171875 -5.71875q1.4375 -3.609375 2.53125 -7.296875l3.75 -12.937504q1.40625 -4.84375 1.40625 -6.3125q0 -1.03125 -0.953125 -1.765625q-0.953125 -0.734375 -3.859375 -0.890625l0.34375 -1.15625l13.46875 0l-0.34375 1.15625q-2.375 0 -3.421875 0.453125q-1.046875 0.453125 -1.828125 1.625q-0.78125 1.171875 -1.75 4.546875l-4.59375 15.718754q-2.21875 7.65625 -4.1875 11.296875q-1.96875 3.640625 -5.703125 6.09375q-3.734375 2.453125 -9.265625 2.453125q-6.375 0 -10.28125 -3.609375q-3.90625 -3.609375 -3.90625 -8.265625q0 -1.84375 0.34375 -3.9375q0.25 -1.375 1.21875 -4.75l4.1875 -14.406254q0.875 -3.125 0.875 -4.59375q0 -1.15625 -0.890625 -1.796875q-0.890625 -0.640625 -4.484375 -0.828125l0.3125 -1.15625zm80.43753 42.375004l-6.78125 -20.59375q-2.375 0.03125 -4.8750305 -0.46875l-3.65625 12.8125q-0.71875 2.5 -0.71875 4.21875q0 1.3125 0.90625 2.0625q0.6875 0.5625 3.75 0.8125l-0.28125 1.15625l-16.40625 0l0.34375 -1.15625q2.3125 -0.09375 3.125 -0.46875q1.28125 -0.53125 1.875 -1.4375q1.0 -1.46875 2.09375 -5.1875l7.40625 -25.593754q0.75 -2.5625 0.75 -3.96875q0 -1.4375 -1.171875 -2.4375q-1.171875 -1.0 -3.359375 -0.96875l0.375 -1.15625l13.8125305 0q6.9375 0 10.0 2.625q3.0625 2.625 3.0625 6.90625q0 4.09375 -3.140625 7.484375q-3.140625 3.3906288 -8.609375 4.296879l4.125 12.40625q1.5 4.5625 3.0 5.9375q1.5 1.375 4.84375 1.5625l-0.34375 1.15625l-10.125 0zm-11.1250305 -22.84375q2.0000305 0.28125 3.5625305 0.28125q5.375 0 8.5 -2.9843788q3.125 -2.984375 3.125 -7.421875q0 -3.46875 -1.953125 -5.3125q-1.953125 -1.84375 -5.859375 -1.84375q-1.0 0 -2.375 0.25l-5.0000305 17.031254zm60.34378 -17.250004l-4.84375 16.750004l3.96875 0q4.25 0 6.15625 -1.2968788q1.90625 -1.296875 3.28125 -4.796875l1.15625 0l-4.34375 15.375004l-1.25 0q0.5625 -1.9375 0.5625 -3.3125q0 -1.34375 -0.546875 -2.15625q-0.546875 -0.8125 -1.5 -1.203125q-0.953125 -0.390625 -4.015625 -0.390625l-4.03125 0l-4.09375 14.03125q-0.59375 2.03125 -0.59375 3.09375q0 0.8125 0.78125 1.4375q0.53125 0.4375 2.65625 0.4375l3.75 0q6.09375 0 9.765625 -2.15625q3.671875 -2.15625 6.578125 -7.5l1.15625 0l-4.0 11.78125l-32.75 0l0.40625 -1.15625q2.4375 -0.0625 3.28125 -0.4375q1.25 -0.5625 1.8125 -1.4375q0.84375 -1.28125 2.0 -5.375l7.4375 -25.562504q0.875 -3.09375 0.875 -4.71875q0 -1.1875 -0.828125 -1.859375q-0.828125 -0.671875 -3.234375 -0.671875l-0.65625 0l0.375 -1.15625l30.4375 0l-2.625 10.21875l-1.15625 0q0.21875 -1.4375 0.21875 -2.40625q0 -1.65625 -0.8125 -2.78125q-1.0625 -1.4375 -3.09375 -2.1875q-1.5 -0.5625 -6.90625 -0.5625l-5.375 0zm34.8125 41.062504l3.5 -15.71875l1.0625 0q-0.21875 2.28125 -0.21875 3.78125q0 4.28125 2.734375 6.96875q2.734375 2.6875 7.140625 2.6875q4.09375 0 6.21875 -2.515625q2.125 -2.515625 2.125 -5.796875q0 -2.125 -0.96875 -3.875q-1.46875 -2.59375 -7.84375 -9.125q-3.09375 -3.1250038 -3.96875 -4.656254q-1.4375 -2.53125 -1.4375 -5.3125q0 -4.4375 3.3125 -7.59375q3.3125 -3.15625 8.5 -3.15625q1.75 0 3.3125 0.34375q0.96875 0.1875 3.53125 1.25q1.8125 0.71875 2.0 0.78125q0.4375 0.09375 0.96875 0.09375q0.90625 0 1.5625 -0.46875q0.65625 -0.46875 1.53125 -2.0l1.1875 0l-3.25 14.0625l-1.0625 0q0.125 -1.875 0.125 -3.03125q0 -3.78125 -2.5 -6.1875q-2.5 -2.40625 -6.59375 -2.40625q-3.25 0 -5.28125 1.90625q-2.03125 1.90625 -2.03125 4.40625q0 2.1875 1.296875 4.171875q1.296875 1.984375 5.96875 6.468754q4.671875 4.484375 6.046875 7.0q1.375 2.515625 1.375 5.359375q0 3.21875 -1.703125 6.234375q-1.703125 3.015625 -4.890625 4.671875q-3.1875 1.65625 -6.96875 1.65625q-1.875 0 -3.5 -0.34375q-1.625 -0.34375 -5.1875 -1.6875q-1.21875 -0.46875 -2.03125 -0.46875q-1.84375 0 -2.875 2.5l-1.1875 0z" fill-rule="nonzero"/></g></svg>