<svg version="1.1" viewBox="0.0 0.0 800.0 100.0" fill="none" stroke="none" stroke-linecap="square" stroke-miterlimit="10" xmlns:xlink="http://www.w3.org/1999/xlink" xmlns="http://www.w3.org/2000/svg"><clipPath id="p.0"><path d="m0 0l800.0 0l0 100.0l-800.0 0l0 -100.0z" clip-rule="nonzero"/></clipPath><g clip-path="url(#p.0)"><path fill="#000000" fill-opacity="0.0" d="m0 0l800.0 0l0 100.0l-800.0 0z" fill-rule="evenodd"/><path fill="#000000" fill-opacity="0.0" d="m0 6.2834644l800.0 0l0 87.433075l-800.0 0z" fill-rule="evenodd"/><path fill="#000000" d="m304.73438 49.585003l23.234375 0l3.671875 -12.421875q1.046875 -3.640625 1.046875 -5.640627q0 -0.96875 -0.46875 -1.65625q-0.46875 -0.6875 -1.4375 -1.015625q-0.953125 -0.34375 -3.78125 -0.34375l0.375 -1.375l20.265625 0l-0.453125 1.375q-2.546875 -0.03125 -3.8125 0.53125q-1.78125 0.765625 -2.640625 2.0q-1.21875 1.7343769 -2.484375 6.125002l-8.875 30.390621q-1.109375 3.78125 -1.109375 5.421875q0 1.40625 0.984375 2.125q0.984375 0.71875 4.703125 0.984375l-0.421875 1.375l-19.59375 0l0.53125 -1.375q2.890625 -0.078125 3.859375 -0.515625q1.484375 -0.671875 2.140625 -1.703125q0.96875 -1.453125 2.375 -6.3125l4.53125 -15.406246l-23.34375 0l-4.5625 15.406246q-1.078125 3.703125 -1.078125 5.421875q0 1.40625 0.96875 2.125q0.96875 0.71875 4.671875 0.984375l-0.296875 1.375l-19.734375 0l0.484375 -1.375q2.921875 -0.078125 3.890625 -0.515625q1.484375 -0.671875 2.1875 -1.703125q0.96875 -1.53125 2.375 -6.3125l8.90625 -30.390621q1.078125 -3.71875 1.078125 -5.640627q0 -0.96875 -0.46875 -1.65625q-0.453125 -0.6875 -1.4375 -1.015625q-0.984375 -0.34375 -3.84375 -0.34375l0.4375 -1.375l19.859375 0l-0.40625 1.375q-2.484375 -0.03125 -3.671875 0.53125q-1.75 0.734375 -2.5625 1.953125q-1.109375 1.6406269 -2.453125 6.171877l-3.640625 12.421875zm53.15039 -20.437502q1.5625 0 2.625 1.078125q1.078125 1.0625 1.078125 2.625002q0 1.53125 -1.09375 2.625q-1.09375 1.09375 -2.609375 1.09375q-1.53125 0 -2.625 -1.09375q-1.09375 -1.09375 -1.09375 -2.625q0 -1.5625019 1.078125 -2.625002q1.078125 -1.078125 2.640625 -1.078125zm0.484375 14.734377l-7.359375 25.999996q-0.734375 2.640625 -0.734375 3.15625q0 0.59375 0.34375 0.96875q0.359375 0.375 0.84375 0.375q0.5625 0 1.328125 -0.59375q2.125 -1.671875 4.28125 -4.75l1.296875 0.84375q-2.53125 3.859375 -5.9375 6.5q-2.53125 1.96875 -4.828125 1.96875q-1.515625 0 -2.484375 -0.90625q-0.96875 -0.90625 -0.96875 -2.28125q0 -1.375 0.921875 -4.5625l4.828125 -16.624996q1.1875 -4.09375 1.1875 -5.125q0 -0.8125 -0.578125 -1.328125q-0.5625 -0.53125 -1.578125 -0.53125q-0.8125 0 -3.375 0.40625l0 -1.4375l12.8125 -2.078125zm31.208984 0l-2.265625 11.390625l-1.375 0q-0.1875 -4.984375 -2.125 -7.234375q-1.921875 -2.265625 -4.78125 -2.265625q-2.296875 0 -3.65625 1.265625q-1.34375 1.25 -1.34375 3.03125q0 1.234375 0.53125 2.34375q0.53125 1.109375 2.359375 3.109375q4.828125 5.28125 6.234375 7.953125q1.40625 2.6718712 1.40625 5.046871q0 3.859375 -3.21875 6.84375q-3.203125 2.984375 -8.09375 2.984375q-2.671875 0 -6.171875 -1.265625q-1.21875 -0.4375 -1.890625 -0.4375q-1.671875 0 -2.515625 1.703125l-1.375 0l2.265625 -12.03125l1.375 0q0.21875 5.640625 2.328125 7.984375q2.125 2.34375 5.796875 2.34375q2.8125 0 4.46875 -1.578125q1.65625 -1.578125 1.65625 -3.875q0 -1.484375 -0.59375 -2.75q-1.046875 -2.234375 -4.375 -6.156246q-3.3125 -3.9375 -4.265625 -5.90625q-0.9375 -1.96875 -0.9375 -3.9375q0 -3.59375 2.609375 -6.078125q2.625 -2.484375 6.734375 -2.484375q1.1875 0 2.15625 0.171875q0.515625 0.125 2.421875 0.84375q1.921875 0.71875 2.546875 0.71875q1.609375 0 2.671875 -1.734375l1.421875 0zm21.748047 -9.203125l-2.90625 10.09375l5.828125 0l-0.625 2.328125l-5.796875 0l-6.375 21.890621q-1.046875 3.53125 -1.046875 4.578125q0 0.625 0.296875 0.96875q0.296875 0.328125 0.703125 0.328125q0.9375 0 2.453125 -1.296875q0.890625 -0.75 3.96875 -4.578125l1.234375 0.9375q-3.421875 4.96875 -6.46875 7.015625q-2.078125 1.40625 -4.1875 1.40625q-1.625 0 -2.671875 -1.015625q-1.03125 -1.03125 -1.03125 -2.625q0 -2.0 1.1875 -6.125l6.1875 -21.484371l-5.59375 0l0.359375 -1.4375q4.09375 -1.125 6.796875 -3.328125q2.703125 -2.203125 6.046875 -7.65625l1.640625 0zm36.50586 20.8125q0 5.5625 -2.953125 11.015621q-2.9375 5.453125 -8.21875 8.65625q-5.265625 3.1875 -10.234375 3.1875q-5.09375 0 -8.296875 -3.25q-3.203125 -3.25 -3.203125 -8.40625q0 -5.453121 3.125 -10.937496q3.140625 -5.5 8.390625 -8.6875q5.25 -3.1875 10.15625 -3.1875q4.890625 0 8.0625 3.234375q3.171875 3.21875 3.171875 8.375zm-6.15625 -2.5625q0 -3.453125 -1.6875 -5.28125q-1.6875 -1.84375 -4.359375 -1.84375q-5.453125 0 -10.046875 7.8125q-4.578125 7.8125 -4.578125 15.531246q0 3.53125 1.78125 5.4375q1.78125 1.90625 4.484375 1.90625q5.234375 0 9.8125 -7.765625q4.59375 -7.781246 4.59375 -15.796871zm12.984375 -6.96875l12.8125 -2.078125l-5.34375 18.03125q6.484375 -11.09375 11.796875 -15.515625q3.0 -2.515625 4.890625 -2.515625q1.234375 0 1.9375 0.71875q0.703125 0.71875 0.703125 2.09375q0 2.453125 -1.265625 4.671875q-0.890625 1.671875 -2.5625 1.671875q-0.84375 0 -1.46875 -0.546875q-0.609375 -0.5625 -0.75 -1.71875q-0.078125 -0.703125 -0.34375 -0.921875q-0.296875 -0.296875 -0.703125 -0.296875q-0.625 0 -1.1875 0.296875q-0.953125 0.515625 -2.921875 2.890625q-3.078125 3.640625 -6.6875 9.421875q-1.5625 2.4531212 -2.671875 5.531246q-1.5625 4.234375 -1.78125 5.09375l-1.1875 4.671875l-5.671875 0l6.859375 -23.046871q1.1875 -4.0 1.1875 -5.71875q0 -0.65625 -0.546875 -1.109375q-0.75 -0.59375 -1.96875 -0.59375q-0.78125 0 -2.859375 0.328125l-0.265625 -1.359375zm37.73242 -2.078125q1.265625 2.140625 1.75 4.015625q0.484375 1.875 0.96875 7.375l1.625 18.249996q2.234375 -2.671875 6.453125 -8.453125q2.046875 -2.8281212 5.046875 -7.687496q1.828125 -2.96875 2.234375 -4.15625q0.21875 -0.59375 0.21875 -1.21875q0 -0.40625 -0.265625 -0.671875q-0.25 -0.265625 -1.34375 -0.609375q-1.09375 -0.359375 -1.828125 -1.296875q-0.71875 -0.953125 -0.71875 -2.171875q0 -1.53125 0.890625 -2.453125q0.890625 -0.921875 2.234375 -0.921875q1.625 0 2.765625 1.359375q1.15625 1.34375 1.15625 3.71875q0 2.9375 -2.0 6.703125q-2.0 3.765625 -7.71875 11.562496q-5.71875 7.78125 -13.84375 16.984375q-5.59375 6.34375 -8.3125 8.0q-2.703125 1.65625 -4.640625 1.65625q-1.140625 0 -2.015625 -0.875q-0.875 -0.875 -0.875 -2.015625q0 -1.453125 1.203125 -2.640625q1.203125 -1.1875 2.625 -1.1875q0.734375 0 1.21875 0.328125q0.296875 0.1875 0.65625 1.0625q0.34375 0.875 0.640625 1.171875q0.1875 0.1875 0.453125 0.1875q0.21875 0 0.78125 -0.375q2.03125 -1.265625 4.75 -4.015625q3.5625 -3.625 5.265625 -5.9375l-2.078125 -23.515621q-0.515625 -5.828125 -1.5625 -7.09375q-1.03125 -1.265625 -3.484375 -1.265625q-0.78125 0 -2.78125 0.21875l-0.34375 -1.359375l10.875 -2.671875z" fill-rule="nonzero"/></g></svg>