<svg version="1.1" viewBox="0.0 0.0 800.0 100.0" fill="none" stroke="none" stroke-linecap="square" stroke-miterlimit="10" xmlns:xlink="http://www.w3.org/1999/xlink" xmlns="http://www.w3.org/2000/svg"><clipPath id="p.0"><path d="m0 0l800.0 0l0 100.0l-800.0 0l0 -100.0z" clip-rule="nonzero"/></clipPath><g clip-path="url(#p.0)"><path fill="#000000" fill-opacity="0.0" d="m0 0l800.0 0l0 100.0l-800.0 0z" fill-rule="evenodd"/><path fill="#000000" fill-opacity="0.0" d="m0 6.2834644l800.0 0l0 87.433075l-800.0 0z" fill-rule="evenodd"/><path fill="#000000" d="m259.4795 27.131876l4.640625 40.53125l29.203125 -40.53125l12.296875 0l0 1.375q-4.015625 0.265625 -4.71875 0.53125q-1.21875 0.46875 -2.25 1.921875q-1.015625 1.4531269 -2.203125 5.562502l-9.3125 31.921871q-0.8125 2.78125 -0.8125 4.375q0 1.453125 1.0 2.1875q1.40625 1.078125 4.453125 1.078125l0.890625 0l-0.34375 1.375l-21.1875 0l0.375 -1.375l1.0 0q2.828125 0 4.3125 -0.8125q1.140625 -0.59375 2.046875 -2.25q0.921875 -1.65625 2.546875 -7.328125l8.3125 -29.171871l-29.359375 40.937496l-1.484375 0l-4.703125 -40.937496l-8.984375 31.140621q-1.15625 3.96875 -1.15625 5.34375q0 1.375 1.0 2.09375q1.015625 0.71875 4.875 0.984375l-0.40625 1.375l-16.59375 0l0.40625 -1.375l1.0 0q3.671875 0 5.3125 -1.859375q1.1875 -1.328125 2.484375 -5.78125l10.953125 -37.515625q-1.234375 -1.265625 -2.34375 -1.703125q-1.109375 -0.453125 -4.125 -0.71875l0.375 -1.375l12.5 0zm48.29297 36.34375q-0.265625 1.8437462 -0.265625 3.0781212q0 3.296875 2.328125 5.625q2.34375 2.3125 5.6875 2.3125q2.671875 0 5.140625 -1.09375q2.46875 -1.09375 7.328125 -4.84375l0.78125 1.078125q-8.796875 8.71875 -16.78125 8.71875q-5.40625 0 -8.15625 -3.40625q-2.75 -3.421875 -2.75 -7.546875q0 -5.531246 3.40625 -11.312496q3.421875 -5.796875 8.578125 -9.0q5.15625 -3.203125 10.609375 -3.203125q3.9375 0 5.828125 1.59375q1.890625 1.59375 1.890625 3.78125q0 3.078125 -2.4375 5.90625q-3.234375 3.671875 -9.5 5.9375q-4.15625 1.515625 -11.6875 2.375zm0.25 -1.828125q5.5 -0.625 8.953125 -2.15625q4.5625 -2.03125 6.84375 -4.875q2.28125 -2.84375 2.28125 -5.390625q0 -1.5625 -0.984375 -2.53125q-0.984375 -0.96875 -2.796875 -0.96875q-3.796875 0 -8.046875 4.03125q-4.25 4.03125 -6.25 11.890625zm53.76367 7.718746q-3.859375 4.640625 -7.796875 6.8125q-3.921875 2.171875 -8.3125 2.171875q-5.265625 0 -8.21875 -2.96875q-2.9375 -2.96875 -2.9375 -7.984375q0 -5.671871 3.171875 -11.156246q3.171875 -5.5 8.53125 -8.921875q5.359375 -3.4375 10.515625 -3.4375q4.046875 0 6.046875 1.6875q2.015625 1.6875 2.015625 4.125q0 2.3125 -1.421875 3.9375q-1.03125 1.265625 -2.5625 1.265625q-1.140625 0 -1.90625 -0.734375q-0.765625 -0.75 -0.765625 -1.859375q0 -0.703125 0.28125 -1.296875q0.28125 -0.59375 1.15625 -1.421875q0.875 -0.84375 1.046875 -1.21875q0.1875 -0.375 0.1875 -0.78125q0 -0.78125 -0.703125 -1.296875q-1.078125 -0.75 -3.03125 -0.75q-3.640625 0 -7.203125 2.5625q-3.5625 2.5625 -6.09375 7.28125q-3.03125 5.71875 -3.03125 11.421871q0 3.796875 2.140625 6.0q2.15625 2.203125 5.875 2.203125q2.84375 0 5.640625 -1.421875q2.8125 -1.4375 6.296875 -5.1875l1.078125 0.96875zm26.685547 -44.671875l-10.421875 36.03125q6.75 -10.171875 10.53125 -13.5q3.796875 -3.34375 7.25 -3.34375q1.78125 0 2.96875 1.21875q1.1875 1.21875 1.1875 3.265625q0 2.453125 -1.046875 5.9375l-4.53125 15.546871q-0.84375 2.828125 -0.84375 3.125q0 0.515625 0.3125 0.859375q0.3125 0.328125 0.71875 0.328125q0.484375 0 1.125 -0.484375q2.109375 -1.640625 4.1875 -4.53125l1.15625 0.703125q-1.265625 1.96875 -3.515625 4.328125q-2.25 2.359375 -3.859375 3.265625q-1.609375 0.90625 -2.875 0.90625q-1.375 0 -2.25 -0.875q-0.859375 -0.875 -0.859375 -2.25q0 -1.625 1.296875 -6.078125l4.265625 -14.843746q0.8125 -2.78125 0.8125 -4.375q0 -0.75 -0.46875 -1.1875q-0.453125 -0.453125 -1.203125 -0.453125q-1.078125 0 -2.453125 0.8125q-2.515625 1.5625 -5.8125 5.796875q-0.890625 1.15625 -5.9375 9.281246q-1.5625 2.59375 -2.5625 5.671875l-2.375 7.609375l-5.578125 0l12.21875 -42.45312l1.296875 -4.609377q0 -0.953125 -0.796875 -1.6875q-0.796875 -0.75 -1.953125 -0.75q-0.671875 0 -2.03125 0.21875l-0.78125 0.109375l0 -1.453125l12.828125 -2.140625zm51.359375 19.187502l-7.234375 25.156246l-0.8125 3.375q-0.109375 0.484375 -0.109375 0.8125q0 0.59375 0.375 1.046875q0.296875 0.328125 0.734375 0.328125q0.484375 0 1.265625 -0.59375q1.453125 -1.078125 3.859375 -4.453125l1.265625 0.890625q-2.5625 3.859375 -5.28125 5.890625q-2.703125 2.015625 -5.0 2.015625q-1.59375 0 -2.390625 -0.796875q-0.796875 -0.796875 -0.796875 -2.328125q0 -1.8125 0.8125 -4.78125l0.78125 -2.78125q-4.859375 6.34375 -8.953125 8.875q-2.921875 1.8125 -5.75 1.8125q-2.703125 0 -4.671875 -2.234375q-1.96875 -2.25 -1.96875 -6.1875q0 -5.90625 3.546875 -12.453121q3.546875 -6.546875 9.0 -10.484375q4.265625 -3.109375 8.046875 -3.109375q2.265625 0 3.765625 1.1875q1.5 1.1875 2.28125 3.921875l1.34375 -4.21875l5.890625 -0.890625zm-13.203125 1.921875q-2.375 0 -5.046875 2.234375q-3.78125 3.140625 -6.734375 9.34375q-2.953125 6.203125 -2.953125 11.203121q0 2.53125 1.265625 4.0q1.265625 1.453125 2.890625 1.453125q4.046875 0 8.796875 -5.96875q6.34375 -7.937496 6.34375 -16.296871q0 -3.140625 -1.234375 -4.546875q-1.21875 -1.421875 -3.328125 -1.421875zm32.328125 -1.921875l-4.9375 16.875q6.9375 -10.34375 10.625 -13.609375q3.6875 -3.265625 7.109375 -3.265625q1.859375 0 3.0625 1.21875q1.203125 1.21875 1.203125 3.1875q0 2.234375 -1.078125 5.9375l-4.53125 15.624996q-0.765625 2.703125 -0.765625 3.296875q0 0.53125 0.296875 0.890625q0.296875 0.34375 0.625 0.34375q0.4375 0 1.078125 -0.484375q1.96875 -1.5625 4.296875 -4.75l1.15625 0.703125q-3.453125 4.9375 -6.53125 7.046875q-2.15625 1.453125 -3.859375 1.453125q-1.375 0 -2.1875 -0.84375q-0.8125 -0.828125 -0.8125 -2.234375q0 -1.78125 1.25 -6.125l4.3125 -14.921871q0.8125 -2.78125 0.8125 -4.34375q0 -0.734375 -0.484375 -1.203125q-0.484375 -0.46875 -1.1875 -0.46875q-1.03125 0 -2.484375 0.890625q-2.75 1.671875 -5.71875 5.515625q-2.96875 3.84375 -6.265625 9.812496q-1.75 3.15625 -2.890625 6.90625l-1.859375 6.125l-5.5625 0l6.75 -23.234371q1.1875 -4.1875 1.1875 -5.046875q0 -0.8125 -0.65625 -1.421875q-0.640625 -0.609375 -1.609375 -0.609375q-0.4375 0 -1.5625 0.140625l-1.40625 0.21875l-0.21875 -1.328125l12.84375 -2.296875zm38.21875 -14.734377q1.5625 0 2.625 1.078125q1.078125 1.0625 1.078125 2.625002q0 1.53125 -1.09375 2.625q-1.09375 1.09375 -2.609375 1.09375q-1.53125 0 -2.625 -1.09375q-1.09375 -1.09375 -1.09375 -2.625q0 -1.5625019 1.078125 -2.625002q1.078125 -1.078125 2.640625 -1.078125zm0.484375 14.734377l-7.359375 25.999996q-0.734375 2.640625 -0.734375 3.15625q0 0.59375 0.34375 0.96875q0.359375 0.375 0.84375 0.375q0.5625 0 1.328125 -0.59375q2.125 -1.671875 4.28125 -4.75l1.296875 0.84375q-2.53125 3.859375 -5.9375 6.5q-2.53125 1.96875 -4.828125 1.96875q-1.515625 0 -2.484375 -0.90625q-0.96875 -0.90625 -0.96875 -2.28125q0 -1.375 0.921875 -4.5625l4.828125 -16.624996q1.1875 -4.09375 1.1875 -5.125q0 -0.8125 -0.578125 -1.328125q-0.5625 -0.53125 -1.578125 -0.53125q-0.8125 0 -3.375 0.40625l0 -1.4375l12.8125 -2.078125zm32.97461 25.484371q-3.859375 4.640625 -7.796875 6.8125q-3.921875 2.171875 -8.3125 2.171875q-5.265625 0 -8.21875 -2.96875q-2.9375 -2.96875 -2.9375 -7.984375q0 -5.671871 3.171875 -11.156246q3.171875 -5.5 8.53125 -8.921875q5.359375 -3.4375 10.515625 -3.4375q4.046875 0 6.046875 1.6875q2.015625 1.6875 2.015625 4.125q0 2.3125 -1.421875 3.9375q-1.03125 1.265625 -2.5625 1.265625q-1.140625 0 -1.90625 -0.734375q-0.765625 -0.75 -0.765625 -1.859375q0 -0.703125 0.28125 -1.296875q0.28125 -0.59375 1.15625 -1.421875q0.875 -0.84375 1.046875 -1.21875q0.1875 -0.375 0.1875 -0.78125q0 -0.78125 -0.703125 -1.296875q-1.078125 -0.75 -3.03125 -0.75q-3.640625 0 -7.203125 2.5625q-3.5625 2.5625 -6.09375 7.28125q-3.03125 5.71875 -3.03125 11.421871q0 3.796875 2.140625 6.0q2.15625 2.203125 5.875 2.203125q2.84375 0 5.640625 -1.421875q2.8125 -1.4375 6.296875 -5.1875l1.078125 0.96875zm31.966797 -25.484371l-2.265625 11.390625l-1.375 0q-0.1875 -4.984375 -2.125 -7.234375q-1.921875 -2.265625 -4.78125 -2.265625q-2.296875 0 -3.65625 1.265625q-1.34375 1.25 -1.34375 3.03125q0 1.234375 0.53125 2.34375q0.53125 1.109375 2.359375 3.109375q4.828125 5.28125 6.234375 7.953125q1.40625 2.6718712 1.40625 5.046871q0 3.859375 -3.21875 6.84375q-3.203125 2.984375 -8.09375 2.984375q-2.671875 0 -6.171875 -1.265625q-1.21875 -0.4375 -1.890625 -0.4375q-1.671875 0 -2.515625 1.703125l-1.375 0l2.265625 -12.03125l1.375 0q0.21875 5.640625 2.328125 7.984375q2.125 2.34375 5.796875 2.34375q2.8125 0 4.46875 -1.578125q1.65625 -1.578125 1.65625 -3.875q0 -1.484375 -0.59375 -2.75q-1.046875 -2.234375 -4.375 -6.156246q-3.3125 -3.9375 -4.265625 -5.90625q-0.9375 -1.96875 -0.9375 -3.9375q0 -3.59375 2.609375 -6.078125q2.625 -2.484375 6.734375 -2.484375q1.1875 0 2.15625 0.171875q0.515625 0.125 2.421875 0.84375q1.921875 0.71875 2.546875 0.71875q1.609375 0 2.671875 -1.734375l1.421875 0z" fill-rule="nonzero"/></g></svg>