<svg version="1.1" viewBox="0.0 0.0 800.0 200.0" fill="none" stroke="none" stroke-linecap="square" stroke-miterlimit="10" xmlns:xlink="http://www.w3.org/1999/xlink" xmlns="http://www.w3.org/2000/svg"><clipPath id="p.0"><path d="m0 0l800.0 0l0 200.0l-800.0 0l0 -200.0z" clip-rule="nonzero"/></clipPath><g clip-path="url(#p.0)"><path fill="#000000" fill-opacity="0.0" d="m0 0l800.0 0l0 200.0l-800.0 0z" fill-rule="evenodd"/><path fill="#000000" fill-opacity="0.0" d="m7.684011 -39.989502l775.81104 0l0 249.88977l-775.81104 0z" fill-rule="evenodd"/><path fill="#000000" d="m149.84117 90.88464l0 38.578125q0 12.5 2.734375 15.53125q3.71875 4.296875 11.234375 4.296875l5.078125 0l0 3.609375l-56.734367 0l0 -3.609375l4.96875 0q8.40625 0 12.015617 -5.46875q1.953125 -3.03125 1.953125 -14.359375l0 -85.546875q0 -12.5 -2.640625 -15.53125q-3.7968674 -4.296875 -11.328117 -4.296875l-4.96875 0l0 -3.609375l48.531242 0q17.765625 0 28.015625 3.671875q10.265625 3.65625 17.296875 12.34375q7.03125 8.6875 7.03125 20.609375q0 16.203125 -10.703125 26.359375q-10.6875 10.15625 -30.21875 10.15625q-4.78125 0 -10.359375 -0.671875q-5.5625 -0.6875 -11.90625 -2.0625zm0 -5.5625q5.171875 0.96875 9.171875 1.46875q4.015625 0.484375 6.84375 0.484375q10.15625 0 17.53125 -7.859375q7.375 -7.859375 7.375 -20.359375q0 -8.59375 -3.515625 -15.96875q-3.515625 -7.375 -9.96875 -11.03125q-6.4375 -3.671875 -14.640625 -3.671875q-4.984375 0 -12.796875 1.859375l0 55.078125z" fill-rule="nonzero"/><path fill="#000000" d="m261.24353 81.29089q16.875 -0.625 27.421875 9.84375q10.546875 10.46875 10.546875 26.203125q0 13.421875 -7.859375 23.640625q-10.421875 13.53125 -29.421875 13.53125q-19.062515 0 -29.48439 -12.90625q-8.21875 -10.21875 -8.21875 -24.21875q0 -15.734375 10.703125 -26.21875q10.703125 -10.5 26.312515 -9.875zm0.625 3.328125q-9.687515 0 -14.73439 9.90625q-4.109375 8.125 -4.109375 23.328125q0 18.0625 6.34375 26.71875q4.4375 6.03125 12.406265 6.03125q5.359375 0 8.953125 -2.59375q4.578125 -3.34375 7.125 -10.65625q2.5625 -7.3125 2.5625 -19.078125q0 -14.015625 -2.609375 -20.96875q-2.59375 -6.953125 -6.640625 -9.8125q-4.03125 -2.875 -9.296875 -2.875zm91.24188 -3.953125l0.578125 23.546875l-2.140625 0q-1.5 -8.859375 -7.421875 -14.25q-5.90625 -5.390625 -12.78125 -5.390625q-5.3125 0 -8.40625 2.84375q-3.09375 2.828125 -3.09375 6.53125q0 2.34375 1.09375 4.171875q1.5 2.4375 4.84375 4.84375q2.4375 1.71875 11.296875 6.09375q12.390625 6.09375 16.71875 11.5q4.265625 5.421875 4.265625 12.390625q0 8.859375 -6.90625 15.25q-6.890625 6.375 -17.515625 6.375q-3.34375 0 -6.3125 -0.6875q-2.953125 -0.671875 -7.4375 -2.546875q-2.5 -1.046875 -4.109375 -1.046875q-1.359375 0 -2.875 1.046875q-1.5 1.046875 -2.4375 3.171875l-1.9375 0l0 -26.65625l1.9375 0q2.28125 11.25 8.8125 17.15625q6.546875 5.90625 14.09375 5.90625q5.828125 0 9.296875 -3.171875q3.46875 -3.171875 3.46875 -7.390625q0 -2.5 -1.328125 -4.84375q-1.328125 -2.34375 -4.046875 -4.453125q-2.703125 -2.109375 -9.578125 -5.5q-9.625 -4.734375 -13.84375 -8.0625q-4.21875 -3.34375 -6.484375 -7.453125q-2.265625 -4.109375 -2.265625 -9.0625q0 -8.4375 6.1875 -14.375q6.203125 -5.9375 15.625 -5.9375q3.4375 0 6.671875 0.828125q2.4375 0.625 5.953125 2.328125q3.515625 1.6875 4.921875 1.6875q1.359375 0 2.140625 -0.828125q0.78125 -0.84375 1.453125 -4.015625l1.5625 0zm76.50464 1.609375l0 19.125l-1.875 0q-1.65625 -6.625 -3.6875 -9.515625q-2.03125 -2.890625 -5.578125 -4.609375q-1.984375 -0.9375 -6.921875 -0.9375l-5.265625 0l0 54.484375q0 5.40625 0.59375 6.765625q0.609375 1.359375 2.34375 2.375q1.75 1.015625 4.765625 1.015625l2.34375 0l0 1.921875l-36.96875 0l0 -1.921875l2.34375 0q3.078125 0 4.953125 -1.09375q1.34375 -0.734375 2.125 -2.5q0.578125 -1.25 0.578125 -6.5625l0 -54.484375l-5.109375 0q-7.125 0 -10.359375 3.03125q-4.53125 4.21875 -5.734375 12.03125l-1.96875 0l0 -19.125l63.421875 0zm109.576416 0l0 1.9375q-1.984375 0.15625 -3.34375 1.09375q-1.34375 0.9375 -2.390625 2.859375q-0.3125 0.625 -3.28125 8.078125l-22.12503 58.265625l-2.03125 0l-17.5 -45.515625l-19.265625 45.515625l-1.9375 0l-23.21875 -57.640625q-3.546875 -8.703125 -4.953125 -10.515625q-1.40625 -1.828125 -4.734375 -2.140625l0 -1.9375l30.625 0l0 1.9375q-3.703125 0.09375 -4.921875 1.109375q-1.21875 1.015625 -1.21875 2.53125q0 1.984375 2.546875 8.390625l13.84375 34.265625l11.09375 -26.765625l-2.90625 -7.5q-2.40625 -6.15625 -3.703125 -8.203125q-1.296875 -2.0625 -3.0 -2.9375q-1.6875 -0.890625 -4.96875 -0.890625l0 -1.9375l34.21875 0l0 1.9375q-3.59375 0.046875 -5.15625 0.5625q-1.09375 0.375 -1.71875 1.234375q-0.625 0.859375 -0.625 1.953125q0 1.1875 2.34375 7.34375l12.8593445 33.421875l11.515686 -30.25q1.8125 -4.6875 2.234375 -6.40625q0.421875 -1.71875 0.421875 -3.171875q0 -2.140625 -1.46875 -3.359375q-1.453125 -1.234375 -5.5625 -1.328125l0 -1.9375l18.328125 0zm33.489563 50.515625l-24.953125 0l-2.96875 6.875q-1.453125 3.4375 -1.453125 5.6875q0 2.96875 2.390625 4.375q1.40625 0.828125 6.9375 1.25l0 1.921875l-23.5 0l0 -1.921875q3.8125 -0.578125 6.25 -3.15625q2.453125 -2.578125 6.046875 -10.65625l25.25 -56.34375l1.0 0l25.46875 57.90625q3.640625 8.234375 5.984375 10.375q1.765625 1.609375 5.0 1.875l0 1.921875l-34.171875 0l0 -1.921875l1.40625 0q4.125 0 5.78125 -1.15625q1.15625 -0.828125 1.15625 -2.390625q0 -0.9375 -0.3125 -1.921875q-0.109375 -0.46875 -1.5625 -3.90625l-3.75 -8.8125zm-1.78125 -3.84375l-10.515625 -24.328125l-10.828125 24.328125l21.34375 0zm62.758118 -8.234375l0 19.796875q0 5.71875 0.703125 7.203125q0.703125 1.484375 2.46875 2.375q1.78125 0.890625 6.625 0.890625l0 1.921875l-36.140625 0l0 -1.921875q4.890625 0 6.625 -0.90625q1.75 -0.921875 2.453125 -2.375q0.703125 -1.46875 0.703125 -7.1875l0 -45.828125q0 -5.734375 -0.703125 -7.21875q-0.703125 -1.484375 -2.46875 -2.359375q-1.765625 -0.890625 -6.609375 -0.890625l0 -1.9375l32.796875 0q12.8125 0 18.75 1.78125q5.9375 1.765625 9.6875 6.53125q3.75 4.765625 3.75 11.171875q0 7.8125 -5.625 12.921875q-3.59375 3.21875 -10.046875 4.84375l16.984375 23.890625q3.328125 4.640625 4.734375 5.78125q2.140625 1.625 4.953125 1.78125l0 1.921875l-22.25 0l-22.75 -32.1875l-4.640625 0zm0 -34.625l0 30.9375l2.96875 0q7.234375 0 10.828125 -1.328125q3.59375 -1.328125 5.65625 -4.796875q2.0625 -3.46875 2.0625 -9.03125q0 -8.078125 -3.78125 -11.921875q-3.78125 -3.859375 -12.15625 -3.859375l-5.578125 0z" fill-rule="nonzero"/><path fill="#000000" fill-opacity="0.0" d="m189.6693 -0.6771653l610.3307 0l0 51.937008l-610.3307 0z" fill-rule="evenodd"/><path fill="#000000" fill-opacity="0.0" d="m24.341558 174.79721l743.1181 0" fill-rule="evenodd"/><path stroke="#000000" stroke-width="3.0" stroke-linejoin="round" stroke-linecap="butt" d="m41.226387 174.79723l709.34845 0" fill-rule="evenodd"/><path fill="#000000" stroke="#000000" stroke-width="3.0" stroke-linecap="butt" d="m41.226387 174.79723l-7.1348305 -4.995865l-7.1348286 4.995865l7.1348286 4.995865z" fill-rule="evenodd"/><path fill="#000000" stroke="#000000" stroke-width="3.0" stroke-linecap="butt" d="m750.5748 174.79723l7.1348267 4.995865l7.1348267 -4.995865l-7.1348267 -4.995865z" fill-rule="evenodd"/></g></svg>