<svg version="1.1" viewBox="0.0 0.0 800.0 200.0" fill="none" stroke="none" stroke-linecap="square" stroke-miterlimit="10" xmlns:xlink="http://www.w3.org/1999/xlink" xmlns="http://www.w3.org/2000/svg"><clipPath id="p.0"><path d="m0 0l800.0 0l0 200.0l-800.0 0l0 -200.0z" clip-rule="nonzero"/></clipPath><g clip-path="url(#p.0)"><path fill="#000000" fill-opacity="0.0" d="m0 0l800.0 0l0 200.0l-800.0 0z" fill-rule="evenodd"/><path fill="#000000" fill-opacity="0.0" d="m24.199474 -39.989502l775.81104 0l0 249.88977l-775.81104 0z" fill-rule="evenodd"/><path fill="#000000" d="m168.35573 152.90027l-35.34375 0l-44.828125 -61.921875q-4.984375 0.203125 -8.109375 0.203125q-1.265625 0 -2.734375 -0.046875q-1.46875 -0.046875 -3.03125 -0.15625l0 38.484375q0 12.5 2.734375 15.53125q3.71875 4.296875 11.140625 4.296875l5.171875 0l0 3.609375l-56.73438 0l0 -3.609375l4.984375 0q8.390625 0 12.0 -5.46875q2.0625 -3.03125 2.0625 -14.359375l0 -85.546875q0 -12.5 -2.734375 -15.53125q-3.8125 -4.296875 -11.328125 -4.296875l-4.984375 0l0 -3.609375l48.23438 0q21.09375 0 31.109375 3.078125q10.015625 3.078125 16.984375 11.328125q6.984375 8.25 6.984375 19.671875q0 12.203125 -7.953125 21.1875q-7.953125 8.984375 -24.65625 12.703125l27.34375 37.984375q9.375 13.09375 16.109375 17.390625q6.734375 4.296875 17.578125 5.46875l0 3.609375zm-94.046875 -68.0625q1.859375 0 3.21875 0.046875q1.375 0.046875 2.25 0.046875q18.953125 0 28.5625 -8.203125q9.625 -8.203125 9.625 -20.90625q0 -12.390625 -7.765625 -20.15625q-7.765625 -7.765625 -20.546875 -7.765625q-5.671875 0 -15.34375 1.859375l0 55.078125z" fill-rule="nonzero"/><path fill="#000000" d="m195.66042 86.33777l0 28.75l1.40625 0q6.71875 0 9.734375 -4.21875q3.015625 -4.21875 3.859375 -12.4375l1.96875 0l0 36.96875l-1.96875 0q-0.625 -6.046875 -2.640625 -9.890625q-2.0 -3.859375 -4.65625 -5.1875q-2.65625 -1.328125 -7.703125 -1.328125l0 19.890625q0 5.84375 0.484375 7.140625q0.5 1.296875 1.84375 2.140625q1.359375 0.828125 4.390625 0.828125l4.21875 0q9.890625 0 15.84375 -4.578125q5.96875 -4.59375 8.578125 -13.96875l1.921875 0l-3.171875 22.453125l-61.03125 0l0 -1.921875l2.34375 0q3.0625 0 4.9375 -1.09375q1.359375 -0.734375 2.09375 -2.5q0.5625 -1.25 0.5625 -6.5625l0 -46.453125q0 -4.796875 -0.25 -5.890625q-0.53125 -1.828125 -1.9375 -2.8125q-1.96875 -1.453125 -5.40625 -1.453125l-2.34375 0l0 -1.9375l59.109375 0l0 20.890625l-1.984375 0q-1.515625 -7.65625 -4.25 -10.984375q-2.734375 -3.34375 -7.734375 -4.90625q-2.90625 -0.9375 -10.9375 -0.9375l-7.28125 0zm92.17012 -5.671875l0.578125 23.546875l-2.140625 0q-1.5 -8.859375 -7.421875 -14.25q-5.90625 -5.390625 -12.78125 -5.390625q-5.3125 0 -8.40625 2.84375q-3.0937347 2.828125 -3.0937347 6.53125q0 2.34375 1.09375 4.171875q1.4999847 2.4375 4.8437347 4.84375q2.4375 1.71875 11.296875 6.09375q12.390625 6.09375 16.71875 11.5q4.265625 5.421875 4.265625 12.390625q0 8.859375 -6.90625 15.25q-6.890625 6.375 -17.515625 6.375q-3.34375 0 -6.3125 -0.6875q-2.953125 -0.671875 -7.4374847 -2.546875q-2.5 -1.046875 -4.109375 -1.046875q-1.359375 0 -2.875 1.046875q-1.5 1.046875 -2.4375 3.171875l-1.9375 0l0 -26.65625l1.9375 0q2.28125 11.25 8.8125 17.15625q6.5468597 5.90625 14.093735 5.90625q5.828125 0 9.296875 -3.171875q3.46875 -3.171875 3.46875 -7.390625q0 -2.5 -1.328125 -4.84375q-1.328125 -2.34375 -4.046875 -4.453125q-2.703125 -2.109375 -9.578125 -5.5q-9.625 -4.734375 -13.843735 -8.0625q-4.21875 -3.34375 -6.484375 -7.453125q-2.265625 -4.109375 -2.265625 -9.0625q0 -8.4375 6.1875 -14.375q6.203125 -5.9375 15.624985 -5.9375q3.4375 0 6.671875 0.828125q2.4375 0.625 5.953125 2.328125q3.515625 1.6875 4.921875 1.6875q1.359375 0 2.140625 -0.828125q0.78125 -0.84375 1.453125 -4.015625l1.5625 0zm48.28586 70.3125l0 1.921875l-36.921875 0l0 -1.921875l2.34375 0q3.0625 0 4.9375 -1.09375q1.359375 -0.734375 2.09375 -2.5q0.5625 -1.25 0.5625 -6.5625l0 -46.453125q0 -5.421875 -0.578125 -6.765625q-0.5625 -1.359375 -2.3125 -2.375q-1.734375 -1.015625 -4.703125 -1.015625l-2.34375 0l0 -1.9375l36.921875 0l0 1.9375l-2.34375 0q-3.078125 0 -4.953125 1.09375q-1.359375 0.71875 -2.140625 2.5q-0.5625 1.25 -0.5625 6.5625l0 46.453125q0 5.40625 0.59375 6.765625q0.59375 1.359375 2.34375 2.375q1.75 1.015625 4.71875 1.015625l2.34375 0zm3.8501282 1.921875l0 -1.921875l2.34375 0q3.078125 0 4.71875 -0.96875q1.640625 -0.96875 2.421875 -2.625q0.46875 -1.09375 0.46875 -6.5625l0 -46.453125q0 -5.421875 -0.578125 -6.765625q-0.578125 -1.359375 -2.328125 -2.375q-1.734375 -1.015625 -4.703125 -1.015625l-2.34375 0l0 -1.9375l31.609375 0q12.65625 0 20.359375 3.4375q9.4375 4.21875 14.296875 12.765625q4.875 8.546875 4.875 19.328125q0 7.4375 -2.40625 13.71875q-2.390625 6.265625 -6.1875 10.359375q-3.796875 4.09375 -8.78125 6.5625q-4.96875 2.46875 -12.15625 3.828125q-3.171875 0.625 -10.0 0.625l-31.609375 0zm26.921875 -66.609375l0 55.09375q0 4.375 0.40625 5.375q0.421875 0.984375 1.421875 1.5q1.40625 0.78125 4.0625 0.78125q8.6875 0 13.28125 -5.9375q6.25 -8.015625 6.25 -24.890625q0 -13.59375 -4.28125 -21.71875q-3.375 -6.34375 -8.6875 -8.640625q-3.75 -1.609375 -12.453125 -1.5625zm77.75809 0.046875l0 28.75l1.40625 0q6.71875 0 9.734375 -4.21875q3.015625 -4.21875 3.859375 -12.4375l1.96875 0l0 36.96875l-1.96875 0q-0.625 -6.046875 -2.640625 -9.890625q-2.0 -3.859375 -4.65625 -5.1875q-2.65625 -1.328125 -7.703125 -1.328125l0 19.890625q0 5.84375 0.484375 7.140625q0.5 1.296875 1.84375 2.140625q1.359375 0.828125 4.390625 0.828125l4.21875 0q9.890625 0 15.84375 -4.578125q5.96875 -4.59375 8.578125 -13.96875l1.921875 0l-3.171875 22.453125l-61.03125 0l0 -1.921875l2.34375 0q3.0625 0 4.9375 -1.09375q1.359375 -0.734375 2.09375 -2.5q0.5625 -1.25 0.5625 -6.5625l0 -46.453125q0 -4.796875 -0.25 -5.890625q-0.53125 -1.828125 -1.9375 -2.8125q-1.96875 -1.453125 -5.40625 -1.453125l-2.34375 0l0 -1.9375l59.109375 0l0 20.890625l-1.984375 0q-1.515625 -7.65625 -4.25 -10.984375q-2.734375 -3.34375 -7.734375 -4.90625q-2.90625 -0.9375 -10.9375 -0.9375l-7.28125 0zm68.638916 -4.0625l34.84375 43.8125l0 -30.375q0 -6.34375 -1.828125 -8.59375q-2.5 -3.015625 -8.390625 -2.90625l0 -1.9375l23.34375 0l0 1.9375q-4.484375 0.5625 -6.03125 1.484375q-1.53125 0.90625 -2.390625 2.96875q-0.859375 2.046875 -0.859375 7.046875l0 58.796875l-1.765625 0l-47.75 -58.796875l0 44.890625q0 6.09375 2.78125 8.234375q2.78125 2.140625 6.375 2.140625l1.671875 0l0 1.921875l-25.046875 0l0 -1.921875q5.828125 -0.0625 8.109375 -2.40625q2.296875 -2.34375 2.296875 -7.96875l0 -49.828125l-1.5 -1.875q-2.25 -2.8125 -3.96875 -3.703125q-1.71875 -0.890625 -4.9375 -0.984375l0 -1.9375l25.046875 0zm117.74249 0l0 19.125l-1.875 0q-1.65625 -6.625 -3.6875 -9.515625q-2.03125 -2.890625 -5.578125 -4.609375q-1.984375 -0.9375 -6.921875 -0.9375l-5.265625 0l0 54.484375q0 5.40625 0.59375 6.765625q0.609375 1.359375 2.34375 2.375q1.75 1.015625 4.765625 1.015625l2.34375 0l0 1.921875l-36.96875 0l0 -1.921875l2.34375 0q3.078125 0 4.953125 -1.09375q1.34375 -0.734375 2.125 -2.5q0.578125 -1.25 0.578125 -6.5625l0 -54.484375l-5.109375 0q-7.125 0 -10.359375 3.03125q-4.53125 4.21875 -5.734375 12.03125l-1.96875 0l0 -19.125l63.421875 0zm53.951355 -1.609375l0.578125 23.546875l-2.140625 0q-1.5 -8.859375 -7.421875 -14.25q-5.90625 -5.390625 -12.78125 -5.390625q-5.3125 0 -8.40625 2.84375q-3.09375 2.828125 -3.09375 6.53125q0 2.34375 1.09375 4.171875q1.5 2.4375 4.84375 4.84375q2.4375 1.71875 11.296875 6.09375q12.390625 6.09375 16.71875 11.5q4.265625 5.421875 4.265625 12.390625q0 8.859375 -6.90625 15.25q-6.890625 6.375 -17.515625 6.375q-3.34375 0 -6.3125 -0.6875q-2.953125 -0.671875 -7.4375 -2.546875q-2.5 -1.046875 -4.109375 -1.046875q-1.359375 0 -2.875 1.046875q-1.5 1.046875 -2.4375 3.171875l-1.9375 0l0 -26.65625l1.9375 0q2.28125 11.25 8.8125 17.15625q6.546875 5.90625 14.09375 5.90625q5.828125 0 9.296875 -3.171875q3.46875 -3.171875 3.46875 -7.390625q0 -2.5 -1.328125 -4.84375q-1.328125 -2.34375 -4.046875 -4.453125q-2.703125 -2.109375 -9.578125 -5.5q-9.625 -4.734375 -13.84375 -8.0625q-4.21875 -3.34375 -6.484375 -7.453125q-2.265625 -4.109375 -2.265625 -9.0625q0 -8.4375 6.1875 -14.375q6.203125 -5.9375 15.625 -5.9375q3.4375 0 6.671875 0.828125q2.4375 0.625 5.953125 2.328125q3.515625 1.6875 4.921875 1.6875q1.359375 0 2.140625 -0.828125q0.78125 -0.84375 1.453125 -4.015625l1.5625 0z" fill-rule="nonzero"/><path fill="#000000" fill-opacity="0.0" d="m189.6693 -0.6771653l610.3307 0l0 51.937008l-610.3307 0z" fill-rule="evenodd"/><path fill="#000000" fill-opacity="0.0" d="m24.341558 174.79721l743.1181 0" fill-rule="evenodd"/><path stroke="#000000" stroke-width="3.0" stroke-linejoin="round" stroke-linecap="butt" d="m41.226387 174.79723l709.34845 0" fill-rule="evenodd"/><path fill="#000000" stroke="#000000" stroke-width="3.0" stroke-linecap="butt" d="m41.226387 174.79723l-7.1348305 -4.995865l-7.1348286 4.995865l7.1348286 4.995865z" fill-rule="evenodd"/><path fill="#000000" stroke="#000000" stroke-width="3.0" stroke-linecap="butt" d="m750.5748 174.79723l7.1348267 4.995865l7.1348267 -4.995865l-7.1348267 -4.995865z" fill-rule="evenodd"/></g></svg>