<svg version="1.1" viewBox="0.0 0.0 800.0 200.0" fill="none" stroke="none" stroke-linecap="square" stroke-miterlimit="10" xmlns:xlink="http://www.w3.org/1999/xlink" xmlns="http://www.w3.org/2000/svg"><clipPath id="p.0"><path d="m0 0l800.0 0l0 200.0l-800.0 0l0 -200.0z" clip-rule="nonzero"/></clipPath><g clip-path="url(#p.0)"><path fill="#000000" fill-opacity="0.0" d="m0 0l800.0 0l0 200.0l-800.0 0z" fill-rule="evenodd"/><path fill="#000000" fill-opacity="0.0" d="m7.684011 -39.989502l775.81104 0l0 249.88977l-775.81104 0z" fill-rule="evenodd"/><path fill="#000000" d="m182.46822 90.88464l0 38.578125q0 12.5 2.734375 15.53125q3.71875 4.296875 11.234375 4.296875l5.078125 0l0 3.609375l-56.734375 0l0 -3.609375l4.96875 0q8.40625 0 12.015625 -5.46875q1.953125 -3.03125 1.953125 -14.359375l0 -85.546875q0 -12.5 -2.640625 -15.53125q-3.796875 -4.296875 -11.328125 -4.296875l-4.96875 0l0 -3.609375l48.53125 0q17.765625 0 28.015625 3.671875q10.265625 3.65625 17.296875 12.34375q7.03125 8.6875 7.03125 20.609375q0 16.203125 -10.703125 26.359375q-10.6875 10.15625 -30.21875 10.15625q-4.78125 0 -10.359375 -0.671875q-5.5625 -0.6875 -11.90625 -2.0625zm0 -5.5625q5.171875 0.96875 9.171875 1.46875q4.015625 0.484375 6.84375 0.484375q10.15625 0 17.53125 -7.859375q7.375 -7.859375 7.375 -20.359375q0 -8.59375 -3.515625 -15.96875q-3.515625 -7.375 -9.96875 -11.03125q-6.4375 -3.671875 -14.640625 -3.671875q-4.984375 0 -12.796875 1.859375l0 55.078125z" fill-rule="nonzero"/><path fill="#000000" d="m281.0112 120.71277l0 19.796875q0 5.71875 0.703125 7.203125q0.703125 1.484375 2.46875 2.375q1.78125 0.890625 6.625 0.890625l0 1.921875l-36.14064 0l0 -1.921875q4.8906403 0 6.6250153 -0.90625q1.75 -0.921875 2.453125 -2.375q0.703125 -1.46875 0.703125 -7.1875l0 -45.828125q0 -5.734375 -0.703125 -7.21875q-0.703125 -1.484375 -2.46875 -2.359375q-1.765625 -0.890625 -6.6093903 -0.890625l0 -1.9375l32.79689 0q12.8125 0 18.75 1.78125q5.9375 1.765625 9.6875 6.53125q3.75 4.765625 3.75 11.171875q0 7.8125 -5.625 12.921875q-3.59375 3.21875 -10.046875 4.84375l16.984375 23.890625q3.328125 4.640625 4.734375 5.78125q2.140625 1.625 4.953125 1.78125l0 1.921875l-22.25 0l-22.75 -32.1875l-4.640625 0zm0 -34.625l0 30.9375l2.96875 0q7.234375 0 10.828125 -1.328125q3.59375 -1.328125 5.65625 -4.796875q2.0625 -3.46875 2.0625 -9.03125q0 -8.078125 -3.78125 -11.921875q-3.78125 -3.859375 -12.15625 -3.859375l-5.578125 0zm77.75809 0.25l0 28.75l1.40625 0q6.71875 0 9.734375 -4.21875q3.015625 -4.21875 3.859375 -12.4375l1.96875 0l0 36.96875l-1.96875 0q-0.625 -6.046875 -2.640625 -9.890625q-2.0 -3.859375 -4.65625 -5.1875q-2.65625 -1.328125 -7.703125 -1.328125l0 19.890625q0 5.84375 0.484375 7.140625q0.5 1.296875 1.84375 2.140625q1.359375 0.828125 4.390625 0.828125l4.21875 0q9.890625 0 15.84375 -4.578125q5.96875 -4.59375 8.578125 -13.96875l1.921875 0l-3.171875 22.453125l-61.03125 0l0 -1.921875l2.34375 0q3.0625 0 4.9375 -1.09375q1.359375 -0.734375 2.09375 -2.5q0.5625 -1.25 0.5625 -6.5625l0 -46.453125q0 -4.796875 -0.25 -5.890625q-0.53125 -1.828125 -1.9375 -2.8125q-1.96875 -1.453125 -5.40625 -1.453125l-2.34375 0l0 -1.9375l59.109375 0l0 20.890625l-1.984375 0q-1.515625 -7.65625 -4.25 -10.984375q-2.734375 -3.34375 -7.734375 -4.90625q-2.90625 -0.9375 -10.9375 -0.9375l-7.28125 0zm147.79517 -4.0625l0 1.9375q-1.984375 0.15625 -3.34375 1.09375q-1.34375 0.9375 -2.390625 2.859375q-0.3125 0.625 -3.28125 8.078125l-22.125 58.265625l-2.03125 0l-17.5 -45.515625l-19.265625 45.515625l-1.9375 0l-23.21875 -57.640625q-3.546875 -8.703125 -4.953125 -10.515625q-1.40625 -1.828125 -4.734375 -2.140625l0 -1.9375l30.625 0l0 1.9375q-3.703125 0.09375 -4.921875 1.109375q-1.21875 1.015625 -1.21875 2.53125q0 1.984375 2.546875 8.390625l13.84375 34.265625l11.09375 -26.765625l-2.90625 -7.5q-2.40625 -6.15625 -3.703125 -8.203125q-1.296875 -2.0625 -3.0 -2.9375q-1.6875 -0.890625 -4.96875 -0.890625l0 -1.9375l34.21875 0l0 1.9375q-3.59375 0.046875 -5.15625 0.5625q-1.09375 0.375 -1.71875 1.234375q-0.625 0.859375 -0.625 1.953125q0 1.1875 2.34375 7.34375l12.859375 33.421875l11.515625 -30.25q1.8125 -4.6875 2.234375 -6.40625q0.421875 -1.71875 0.421875 -3.171875q0 -2.140625 -1.46875 -3.359375q-1.453125 -1.234375 -5.5625 -1.328125l0 -1.9375l18.328125 0zm33.489563 50.515625l-24.953125 0l-2.96875 6.875q-1.453125 3.4375 -1.453125 5.6875q0 2.96875 2.390625 4.375q1.40625 0.828125 6.9375 1.25l0 1.921875l-23.5 0l0 -1.921875q3.8125 -0.578125 6.25 -3.15625q2.453125 -2.578125 6.046875 -10.65625l25.25 -56.34375l1.0 0l25.46875 57.90625q3.640625 8.234375 5.984375 10.375q1.765625 1.609375 5.0 1.875l0 1.921875l-34.171875 0l0 -1.921875l1.40625 0q4.125 0 5.78125 -1.15625q1.15625 -0.828125 1.15625 -2.390625q0 -0.9375 -0.3125 -1.921875q-0.109375 -0.46875 -1.5625 -3.90625l-3.75 -8.8125zm-1.78125 -3.84375l-10.515625 -24.328125l-10.828125 24.328125l21.34375 0zm62.758057 -8.234375l0 19.796875q0 5.71875 0.703125 7.203125q0.703125 1.484375 2.46875 2.375q1.78125 0.890625 6.625 0.890625l0 1.921875l-36.140625 0l0 -1.921875q4.890625 0 6.625 -0.90625q1.75 -0.921875 2.453125 -2.375q0.703125 -1.46875 0.703125 -7.1875l0 -45.828125q0 -5.734375 -0.703125 -7.21875q-0.703125 -1.484375 -2.46875 -2.359375q-1.765625 -0.890625 -6.609375 -0.890625l0 -1.9375l32.796875 0q12.8125 0 18.75 1.78125q5.9375 1.765625 9.6875 6.53125q3.75 4.765625 3.75 11.171875q0 7.8125 -5.625 12.921875q-3.59375 3.21875 -10.046875 4.84375l16.984375 23.890625q3.328125 4.640625 4.734375 5.78125q2.140625 1.625 4.953125 1.78125l0 1.921875l-22.25 0l-22.75 -32.1875l-4.640625 0zm0 -34.625l0 30.9375l2.96875 0q7.234375 0 10.828125 -1.328125q3.59375 -1.328125 5.65625 -4.796875q2.0625 -3.46875 2.0625 -9.03125q0 -8.078125 -3.78125 -11.921875q-3.78125 -3.859375 -12.15625 -3.859375l-5.578125 0z" fill-rule="nonzero"/><path fill="#000000" fill-opacity="0.0" d="m189.6693 -0.6771653l610.3307 0l0 51.937008l-610.3307 0z" fill-rule="evenodd"/><path fill="#000000" fill-opacity="0.0" d="m24.341558 174.79721l743.1181 0" fill-rule="evenodd"/><path stroke="#000000" stroke-width="3.0" stroke-linejoin="round" stroke-linecap="butt" d="m41.226387 174.79723l709.34845 0" fill-rule="evenodd"/><path fill="#000000" stroke="#000000" stroke-width="3.0" stroke-linecap="butt" d="m41.226387 174.79723l-7.1348305 -4.995865l-7.1348286 4.995865l7.1348286 4.995865z" fill-rule="evenodd"/><path fill="#000000" stroke="#000000" stroke-width="3.0" stroke-linecap="butt" d="m750.5748 174.79723l7.1348267 4.995865l7.1348267 -4.995865l-7.1348267 -4.995865z" fill-rule="evenodd"/></g></svg>