<svg version="1.1" viewBox="0.0 0.0 800.0 200.0" fill="none" stroke="none" stroke-linecap="square" stroke-miterlimit="10" xmlns:xlink="http://www.w3.org/1999/xlink" xmlns="http://www.w3.org/2000/svg"><clipPath id="p.0"><path d="m0 0l800.0 0l0 200.0l-800.0 0l0 -200.0z" clip-rule="nonzero"/></clipPath><g clip-path="url(#p.0)"><path fill="#000000" fill-opacity="0.0" d="m0 0l800.0 0l0 200.0l-800.0 0z" fill-rule="evenodd"/><path fill="#000000" fill-opacity="0.0" d="m-3.0866141 -15.989501l806.1732 0l0 249.88977l-806.1732 0z" fill-rule="evenodd"/><path fill="#000000" d="m231.39685 176.90027l-35.34375 0l-44.828125 -61.921875q-4.984375 0.203125 -8.109375 0.203125q-1.265625 0 -2.734375 -0.046875q-1.46875 -0.046875 -3.03125 -0.15625l0 38.484375q0 12.5 2.734375 15.53125q3.71875 4.296875 11.140625 4.296875l5.171875 0l0 3.609375l-56.734383 0l0 -3.609375l4.984375 0q8.390625 0 12.0 -5.46875q2.0625 -3.03125 2.0625 -14.359375l0 -85.546875q0 -12.5 -2.734375 -15.53125q-3.8125 -4.296875 -11.328125 -4.296875l-4.984375 0l0 -3.609375l48.234383 0q21.09375 0 31.109375 3.078125q10.015625 3.078125 16.984375 11.328125q6.984375 8.25 6.984375 19.671875q0 12.203125 -7.953125 21.1875q-7.953125 8.984375 -24.65625 12.703125l27.34375 37.984375q9.375 13.09375 16.109375 17.390625q6.734375 4.296875 17.578125 5.46875l0 3.609375zm-94.046875 -68.0625q1.859375 0 3.21875 0.046875q1.375 0.046875 2.25 0.046875q18.953125 0 28.5625 -8.203125q9.625 -8.203125 9.625 -20.90625q0 -12.390625 -7.765625 -20.15625q-7.765625 -7.765625 -20.546875 -7.765625q-5.671875 0 -15.34375 1.859375l0 55.078125z" fill-rule="nonzero"/><path fill="#000000" d="m258.70154 110.33777l0 28.75l1.40625 0q6.71875 0 9.734375 -4.21875q3.015625 -4.21875 3.859375 -12.4375l1.96875 0l0 36.96875l-1.96875 0q-0.625 -6.046875 -2.640625 -9.890625q-2.0 -3.859375 -4.65625 -5.1875q-2.65625 -1.328125 -7.703125 -1.328125l0 19.890625q0 5.84375 0.484375 7.140625q0.5 1.296875 1.84375 2.140625q1.359375 0.828125 4.390625 0.828125l4.21875 0q9.890625 0 15.84375 -4.578125q5.96875 -4.59375 8.578125 -13.96875l1.921875 0l-3.171875 22.453125l-61.03125 0l0 -1.921875l2.34375 0q3.0625 0 4.9375 -1.09375q1.359375 -0.734375 2.09375 -2.5q0.5625 -1.25 0.5625 -6.5625l0 -46.453125q0 -4.796875 -0.25 -5.890625q-0.53125 -1.828125 -1.9375 -2.8125q-1.96875 -1.453125 -5.40625 -1.453125l-2.34375 0l0 -1.9375l59.109375 0l0 20.890625l-1.984375 0q-1.515625 -7.65625 -4.25 -10.984375q-2.734375 -3.34375 -7.734375 -4.90625q-2.90625 -0.9375 -10.9375 -0.9375l-7.28125 0zm70.87326 34.59375l0 19.578125q0 5.71875 0.703125 7.203125q0.703125 1.484375 2.5 2.375q1.796875 0.890625 6.59375 0.890625l0 1.921875l-35.890625 0l0 -1.921875q4.90625 0 6.640625 -0.90625q1.75 -0.921875 2.453125 -2.375q0.703125 -1.46875 0.703125 -7.1875l0 -45.828125q0 -5.734375 -0.703125 -7.21875q-0.703125 -1.484375 -2.484375 -2.359375q-1.765625 -0.890625 -6.609375 -0.890625l0 -1.9375l30.78125 0q15.203125 0 21.8125 5.421875q6.625 5.421875 6.625 13.546875q0 6.875 -4.28125 11.765625q-4.265625 4.890625 -11.765625 6.671875q-5.046875 1.25 -17.078125 1.25zm0 -34.59375l0 30.53125q1.71875 0.09375 2.609375 0.09375q6.34375 0 9.78125 -3.765625q3.4375 -3.78125 3.4375 -11.703125q0 -7.859375 -3.4375 -11.5q-3.4375 -3.65625 -10.25 -3.65625l-2.140625 0zm38.852997 -4.0625l36.453125 0l0 1.9375l-1.828125 0q-4.109375 0 -5.65625 0.859375q-1.53125 0.859375 -2.1875 2.375q-0.640625 1.5 -0.640625 7.546875l0 34.578125q0 9.46875 1.421875 12.546875q1.4375 3.078125 4.71875 5.109375q3.28125 2.03125 8.28125 2.03125q5.734375 0 9.765625 -2.578125q4.046875 -2.578125 6.046875 -7.109375q2.0 -4.53125 2.0 -15.78125l0 -28.796875q0 -4.75 -0.984375 -6.78125q-0.984375 -2.03125 -2.5 -2.8125q-2.34375 -1.1875 -6.609375 -1.1875l0 -1.9375l24.421875 0l0 1.9375l-1.453125 0q-2.96875 0 -4.953125 1.203125q-1.984375 1.1875 -2.859375 3.578125q-0.6875 1.671875 -0.6875 6.0l0 26.8125q0 12.453125 -1.640625 17.96875q-1.640625 5.515625 -8.0 10.15625q-6.34375 4.640625 -17.328125 4.640625q-9.171875 0 -14.171875 -2.453125q-6.8125 -3.328125 -9.625 -8.53125q-2.8125 -5.21875 -2.8125 -14.015625l0 -34.578125q0 -6.09375 -0.6875 -7.578125q-0.671875 -1.484375 -2.34375 -2.375q-1.65625 -0.890625 -6.140625 -0.828125l0 -1.9375zm121.96124 33.1875q10.0625 2.34375 14.125 5.671875q5.828125 4.734375 5.828125 12.28125q0 7.96875 -6.40625 13.1875q-7.859375 6.296875 -22.859375 6.296875l-35.890625 0l0 -1.921875q4.90625 0 6.640625 -0.90625q1.75 -0.921875 2.453125 -2.375q0.703125 -1.46875 0.703125 -7.1875l0 -45.828125q0 -5.734375 -0.703125 -7.21875q-0.703125 -1.484375 -2.484375 -2.359375q-1.765625 -0.890625 -6.609375 -0.890625l0 -1.9375l33.859375 0q12.125 0 17.171875 2.171875q5.0625 2.15625 7.96875 6.453125q2.921875 4.296875 2.921875 9.140625q0 5.109375 -3.703125 9.09375q-3.6875 3.984375 -13.015625 6.328125zm-18.953125 -1.40625q7.390625 0 10.90625 -1.671875q3.515625 -1.671875 5.390625 -4.6875q1.875 -3.015625 1.875 -7.703125q0 -4.6875 -1.84375 -7.6875q-1.84375 -3.0 -5.28125 -4.5625q-3.4375 -1.5625 -11.046875 -1.5l0 27.8125zm0 4.0625l0 22.640625l-0.046875 2.609375q0 2.8125 1.421875 4.25q1.4375 1.421875 4.25 1.421875q4.171875 0 7.6875 -1.84375q3.515625 -1.84375 5.390625 -5.359375q1.875 -3.515625 1.875 -7.84375q0 -4.953125 -2.296875 -8.875q-2.296875 -3.9375 -6.3125 -5.5q-4.0 -1.5625 -11.96875 -1.5zm109.99823 9.984375l-2.65625 24.796875l-62.703125 0l0 -1.921875l2.34375 0q3.0625 0 4.9375 -1.09375q1.359375 -0.734375 2.09375 -2.5q0.5625 -1.25 0.5625 -6.5625l0 -46.453125q0 -5.421875 -0.578125 -6.765625q-0.5625 -1.359375 -2.3125 -2.375q-1.734375 -1.015625 -4.703125 -1.015625l-2.34375 0l0 -1.9375l37.640625 0l0 1.9375l-3.0625 0q-3.078125 0 -4.953125 1.09375q-1.359375 0.71875 -2.140625 2.5q-0.5625 1.25 -0.5625 6.5625l0 44.984375q0 5.421875 0.625 6.90625q0.625 1.484375 2.4375 2.21875q1.3125 0.46875 6.3125 0.46875l5.875 0q5.625 0 9.375 -1.984375q3.75 -1.984375 6.484375 -6.25q2.734375 -4.265625 5.1875 -12.609375l2.140625 0zm42.857666 22.875l0 1.921875l-36.921875 0l0 -1.921875l2.34375 0q3.0625 0 4.9375 -1.09375q1.359375 -0.734375 2.09375 -2.5q0.5625 -1.25 0.5625 -6.5625l0 -46.453125q0 -5.421875 -0.578125 -6.765625q-0.5625 -1.359375 -2.3125 -2.375q-1.734375 -1.015625 -4.703125 -1.015625l-2.34375 0l0 -1.9375l36.921875 0l0 1.9375l-2.34375 0q-3.078125 0 -4.953125 1.09375q-1.359375 0.71875 -2.140625 2.5q-0.5625 1.25 -0.5625 6.5625l0 46.453125q0 5.40625 0.59375 6.765625q0.59375 1.359375 2.34375 2.375q1.75 1.015625 4.71875 1.015625l2.34375 0zm73.63135 -70.3125l0 24.484375l-2.03125 0q-2.28125 -9.59375 -8.53125 -14.6875q-6.25 -5.109375 -14.171875 -5.109375q-6.609375 0 -12.140625 3.8125q-5.515625 3.796875 -8.0625 9.9375q-3.28125 7.859375 -3.28125 17.5q0 9.484375 2.390625 17.265625q2.390625 7.78125 7.5 11.765625q5.109375 3.984375 13.234375 3.984375q6.65625 0 12.203125 -2.90625q5.546875 -2.921875 11.703125 -10.0625l0 6.09375q-5.9375 6.203125 -12.375 8.984375q-6.4375 2.78125 -15.03125 2.78125q-11.296875 0 -20.078125 -4.53125q-8.765625 -4.53125 -13.53125 -13.015625q-4.765625 -8.484375 -4.765625 -18.0625q0 -10.109375 5.28125 -19.171875q5.296875 -9.0625 14.265625 -14.0625q8.984375 -5.0 19.09375 -5.0q7.453125 0 15.734375 3.234375q4.78125 1.875 6.09375 1.875q1.65625 0 2.875 -1.21875q1.234375 -1.234375 1.59375 -3.890625l2.03125 0z" fill-rule="nonzero"/><path fill="#000000" fill-opacity="0.0" d="m269.66928 23.322834l610.3307 0l0 87.055115l-610.3307 0z" fill-rule="evenodd"/><path fill="#000000" d="m288.04428 46.10783l32.1875 0l-3.46875 11.25l-1.1875 0q0.59375 -2.46875 0.59375 -4.40625q0 -2.28125 -1.40625 -3.4375q-1.0625 -0.875 -5.46875 -0.875l-3.34375 0l-8.375 29.187504q-1.59375 5.5 -1.59375 6.78125q0 1.1875 1.0 1.953125q1.0 0.765625 3.53125 0.765625l1.4375 0l-0.375 1.15625l-18.4375 0l0.34375 -1.15625l0.8125 0q2.4375 0 3.75 -0.78125q0.90625 -0.53125 1.640625 -1.921875q0.734375 -1.390625 2.046875 -5.890625l8.78125 -30.093754l-2.53125 0q-3.65625 0 -5.890625 0.9375q-2.234375 0.9375 -3.609375 2.71875q-1.375 1.78125 -2.25 5.0625l-1.15625 0l2.96875 -11.25zm61.203125 2.28125l-4.84375 16.750004l3.96875 0q4.25 0 6.15625 -1.2968788q1.90625 -1.296875 3.28125 -4.796875l1.15625 0l-4.34375 15.375004l-1.25 0q0.5625 -1.9375 0.5625 -3.3125q0 -1.34375 -0.546875 -2.15625q-0.546875 -0.8125 -1.5 -1.203125q-0.953125 -0.390625 -4.015625 -0.390625l-4.03125 0l-4.09375 14.03125q-0.59375 2.03125 -0.59375 3.09375q0 0.8125 0.78125 1.4375q0.53125 0.4375 2.65625 0.4375l3.75 0q6.09375 0 9.765625 -2.15625q3.671875 -2.15625 6.578125 -7.5l1.15625 0l-4.0 11.78125l-32.75 0l0.40625 -1.15625q2.4375 -0.0625 3.28125 -0.4375q1.25 -0.5625 1.8125 -1.4375q0.84375 -1.28125 2.0 -5.375l7.4375 -25.562504q0.875 -3.09375 0.875 -4.71875q0 -1.1875 -0.828125 -1.859375q-0.828125 -0.671875 -3.234375 -0.671875l-0.65625 0l0.375 -1.15625l30.4375 0l-2.625 10.21875l-1.15625 0q0.21875 -1.4375 0.21875 -2.40625q0 -1.65625 -0.8125 -2.78125q-1.0625 -1.4375 -3.09375 -2.1875q-1.5 -0.5625 -6.90625 -0.5625l-5.375 0zm60.96875 40.093754l-6.78125 -20.59375q-2.375 0.03125 -4.875 -0.46875l-3.65625 12.8125q-0.71875 2.5 -0.71875 4.21875q0 1.3125 0.90625 2.0625q0.6875 0.5625 3.75 0.8125l-0.28125 1.15625l-16.40625 0l0.34375 -1.15625q2.3125 -0.09375 3.125 -0.46875q1.28125 -0.53125 1.875 -1.4375q1.0 -1.46875 2.09375 -5.1875l7.40625 -25.593754q0.75 -2.5625 0.75 -3.96875q0 -1.4375 -1.171875 -2.4375q-1.171875 -1.0 -3.359375 -0.96875l0.375 -1.15625l13.8125 0q6.9375 0 10.0 2.625q3.0625 2.625 3.0625 6.90625q0 4.09375 -3.140625 7.484375q-3.140625 3.3906288 -8.609375 4.296879l4.125 12.40625q1.5 4.5625 3.0 5.9375q1.5 1.375 4.84375 1.5625l-0.34375 1.15625l-10.125 0zm-11.125 -22.84375q2.0 0.28125 3.5625 0.28125q5.375 0 8.5 -2.9843788q3.125 -2.984375 3.125 -7.421875q0 -3.46875 -1.953125 -5.3125q-1.953125 -1.84375 -5.859375 -1.84375q-1.0 0 -2.375 0.25l-5.0 17.031254zm70.859375 -20.500004l-3.21875 35.250004q-0.25 2.46875 -0.25 3.25q0 1.25 0.46875 1.90625q0.59375 0.90625 1.609375 1.34375q1.015625 0.4375 3.421875 0.4375l-0.34375 1.15625l-16.6875 0l0.34375 -1.15625l0.71875 0q2.03125 0 3.3125 -0.875q0.90625 -0.59375 1.40625 -1.96875q0.34375 -0.96875 0.65625 -4.5625l0.5 -5.375l-12.125 0l-4.3125 5.84375q-1.46875 1.96875 -1.84375 2.828125q-0.375 0.859375 -0.375 1.609375q0 1.0 0.8125 1.71875q0.8125 0.71875 2.6875 0.78125l-0.34375 1.15625l-12.53125 0l0.34375 -1.15625q2.3125 -0.09375 4.078125 -1.546875q1.765625 -1.453125 5.265625 -6.203125l25.3125 -34.437504l1.09375 0zm-6.1875 10.40625l-12.28125 16.718754l10.65625 0l1.625 -16.718754zm44.921875 -9.4375l13.0937805 33.218754l7.09375 -24.812504q0.875 -3.0625 0.875 -4.75q0 -1.15625 -0.8125 -1.8125q-0.8125 -0.65625 -3.03125 -0.65625q-0.375 0 -0.78125 -0.03125l0.34375 -1.15625l13.625 0l-0.375 1.15625q-2.125 -0.03125 -3.15625 0.4375q-1.46875 0.65625 -2.1875 1.6875q-1.0 1.46875 -2.03125 5.125l-9.96875 34.937504l-1.125 0l-14.0937805 -35.750004l-7.53125 26.406254q-0.84375 3.0 -0.84375 4.59375q0 1.1875 0.765625 1.796875q0.765625 0.609375 3.640625 0.828125l-0.3125 1.15625l-13.3125 0l0.4375 -1.15625q2.5 -0.0625 3.34375 -0.4375q1.28125 -0.5625 1.90625 -1.46875q0.90625 -1.375 2.03125 -5.3125l8.40625 -29.468754q-1.21875 -1.875 -2.609375 -2.578125q-1.390625 -0.703125 -4.328125 -0.796875l0.34375 -1.15625l10.59375 0zm61.06253 2.28125l-4.84375 16.750004l3.96875 0q4.25 0 6.15625 -1.2968788q1.90625 -1.296875 3.28125 -4.796875l1.15625 0l-4.34375 15.375004l-1.25 0q0.5625 -1.9375 0.5625 -3.3125q0 -1.34375 -0.546875 -2.15625q-0.546875 -0.8125 -1.5 -1.203125q-0.953125 -0.390625 -4.015625 -0.390625l-4.03125 0l-4.09375 14.03125q-0.59375 2.03125 -0.59375 3.09375q0 0.8125 0.78125 1.4375q0.53125 0.4375 2.65625 0.4375l3.75 0q6.09375 0 9.765625 -2.15625q3.671875 -2.15625 6.578125 -7.5l1.15625 0l-4.0 11.78125l-32.75 0l0.40625 -1.15625q2.4375 -0.0625 3.28125 -0.4375q1.25 -0.5625 1.8125 -1.4375q0.84375 -1.28125 2.0 -5.375l7.4375 -25.562504q0.875 -3.09375 0.875 -4.71875q0 -1.1875 -0.828125 -1.859375q-0.828125 -0.671875 -3.234375 -0.671875l-0.65625 0l0.375 -1.15625l30.4375 0l-2.625 10.21875l-1.15625 0q0.21875 -1.4375 0.21875 -2.40625q0 -1.65625 -0.8125 -2.78125q-1.0625 -1.4375 -3.09375 -2.1875q-1.5 -0.5625 -6.90625 -0.5625l-5.375 0z" fill-rule="nonzero"/></g></svg>