<svg version="1.1" viewBox="0.0 0.0 800.0 200.0" fill="none" stroke="none" stroke-linecap="square" stroke-miterlimit="10" xmlns:xlink="http://www.w3.org/1999/xlink" xmlns="http://www.w3.org/2000/svg"><clipPath id="p.0"><path d="m0 0l800.0 0l0 200.0l-800.0 0l0 -200.0z" clip-rule="nonzero"/></clipPath><g clip-path="url(#p.0)"><path fill="#000000" fill-opacity="0.0" d="m0 0l800.0 0l0 200.0l-800.0 0z" fill-rule="evenodd"/><path fill="#000000" fill-opacity="0.0" d="m-2.6246718E-7 -15.989501l800.0 0l0 249.88977l-800.0 0z" fill-rule="evenodd"/><path fill="#000000" d="m189.35345 173.2909l0 3.609375l-56.734375 0l0 -3.609375l4.6875 0q8.203125 0 11.90625 -4.796875q2.34375 -3.125 2.34375 -15.03125l0 -85.546875q0 -10.0625 -1.265625 -13.28125q-0.96875 -2.4375 -4.0 -4.203125q-4.296875 -2.34375 -8.984375 -2.34375l-4.6875 0l0 -3.609375l56.734375 0l0 3.609375l-4.78125 0q-8.109375 0 -11.8125 4.78125q-2.453125 3.125 -2.453125 15.046875l0 85.546875q0 10.0625 1.28125 13.28125q0.96875 2.4375 4.09375 4.203125q4.203125 2.34375 8.890625 2.34375l4.78125 0z" fill-rule="nonzero"/><path fill="#000000" d="m220.79877 106.27527l34.84375 43.8125l0 -30.375q0 -6.34375 -1.828125 -8.59375q-2.5 -3.015625 -8.390625 -2.90625l0 -1.9375l23.34375 0l0 1.9375q-4.484375 0.5625 -6.03125 1.484375q-1.53125 0.90625 -2.390625 2.96875q-0.859375 2.046875 -0.859375 7.046875l0 58.796875l-1.765625 0l-47.75 -58.796875l0 44.890625q0 6.09375 2.78125 8.234375q2.78125 2.140625 6.375 2.140625l1.671875 0l0 1.921875l-25.046875 0l0 -1.921875q5.828125 -0.0625 8.109375 -2.40625q2.296875 -2.34375 2.296875 -7.96875l0 -49.828125l-1.5 -1.875q-2.25 -2.8125 -3.96875 -3.703125q-1.71875 -0.890625 -4.9375 -0.984375l0 -1.9375l25.046875 0zm126.39874 0l0 1.9375q-3.859375 0.625 -6.875 4.109375q-2.1875 2.609375 -6.515625 12.234375l-24.328125 53.953125l-1.71875 0l-24.203125 -56.140625q-4.375 -10.15625 -5.859375 -11.921875q-1.484375 -1.765625 -5.609375 -2.234375l0 -1.9375l33.859375 0l0 1.9375l-1.15625 0q-4.578125 0 -6.25 1.140625q-1.1875 0.78125 -1.1875 2.296875q0 0.9375 0.40625 2.21875q0.421875 1.265625 2.8125 6.84375l15.0625 35.140625l13.953125 -31.296875q2.5 -5.671875 3.0625 -7.59375q0.578125 -1.9375 0.578125 -3.28125q0 -1.5625 -0.828125 -2.765625q-0.828125 -1.203125 -2.453125 -1.828125q-2.234375 -0.875 -5.9375 -0.875l0 -1.9375l23.1875 0zm31.711212 50.515625l-24.953125 0l-2.96875 6.875q-1.453125 3.4375 -1.453125 5.6875q0 2.96875 2.390625 4.375q1.40625 0.828125 6.9375 1.25l0 1.921875l-23.5 0l0 -1.921875q3.8125 -0.578125 6.25 -3.15625q2.453125 -2.578125 6.046875 -10.65625l25.25 -56.34375l1.0 0l25.46875 57.90625q3.640625 8.234375 5.984375 10.375q1.765625 1.609375 5.0 1.875l0 1.921875l-34.171875 0l0 -1.921875l1.40625 0q4.125 0 5.78125 -1.15625q1.15625 -0.828125 1.15625 -2.390625q0 -0.9375 -0.3125 -1.921875q-0.109375 -0.46875 -1.5625 -3.90625l-3.75 -8.8125zm-1.78125 -3.84375l-10.515625 -24.328125l-10.828125 24.328125l21.34375 0zm84.52371 -48.28125l0.578125 23.546875l-2.140625 0q-1.5 -8.859375 -7.421875 -14.25q-5.90625 -5.390625 -12.78125 -5.390625q-5.3125 0 -8.40625 2.84375q-3.09375 2.828125 -3.09375 6.53125q0 2.34375 1.09375 4.171875q1.5 2.4375 4.84375 4.84375q2.4375 1.71875 11.296875 6.09375q12.390625 6.09375 16.71875 11.5q4.265625 5.421875 4.265625 12.390625q0 8.859375 -6.90625 15.25q-6.890625 6.375 -17.515625 6.375q-3.34375 0 -6.3125 -0.6875q-2.953125 -0.671875 -7.4375 -2.546875q-2.5 -1.046875 -4.109375 -1.046875q-1.359375 0 -2.875 1.046875q-1.5 1.046875 -2.4375 3.171875l-1.9375 0l0 -26.65625l1.9375 0q2.28125 11.25 8.8125 17.15625q6.546875 5.90625 14.09375 5.90625q5.828125 0 9.296875 -3.171875q3.46875 -3.171875 3.46875 -7.390625q0 -2.5 -1.328125 -4.84375q-1.328125 -2.34375 -4.046875 -4.453125q-2.703125 -2.109375 -9.578125 -5.5q-9.625 -4.734375 -13.84375 -8.0625q-4.21875 -3.34375 -6.484375 -7.453125q-2.265625 -4.109375 -2.265625 -9.0625q0 -8.4375 6.1875 -14.375q6.203125 -5.9375 15.625 -5.9375q3.4375 0 6.671875 0.828125q2.4375 0.625 5.953125 2.328125q3.515625 1.6875 4.921875 1.6875q1.359375 0 2.140625 -0.828125q0.78125 -0.84375 1.453125 -4.015625l1.5625 0zm48.28589 70.3125l0 1.921875l-36.921875 0l0 -1.921875l2.34375 0q3.0625 0 4.9375 -1.09375q1.359375 -0.734375 2.09375 -2.5q0.5625 -1.25 0.5625 -6.5625l0 -46.453125q0 -5.421875 -0.578125 -6.765625q-0.5625 -1.359375 -2.3125 -2.375q-1.734375 -1.015625 -4.703125 -1.015625l-2.34375 0l0 -1.9375l36.921875 0l0 1.9375l-2.34375 0q-3.078125 0 -4.953125 1.09375q-1.359375 0.71875 -2.140625 2.5q-0.5625 1.25 -0.5625 6.5625l0 46.453125q0 5.40625 0.59375 6.765625q0.59375 1.359375 2.34375 2.375q1.75 1.015625 4.71875 1.015625l2.34375 0zm43.631348 -69.6875q16.875 -0.625 27.421875 9.84375q10.546875 10.46875 10.546875 26.203125q0 13.421875 -7.859375 23.640625q-10.421875 13.53125 -29.421875 13.53125q-19.0625 0 -29.484375 -12.90625q-8.21875 -10.21875 -8.21875 -24.21875q0 -15.734375 10.703125 -26.21875q10.703125 -10.5 26.3125 -9.875zm0.625 3.328125q-9.6875 0 -14.734375 9.90625q-4.109375 8.125 -4.109375 23.328125q0 18.0625 6.34375 26.71875q4.4375 6.03125 12.40625 6.03125q5.359375 0 8.953125 -2.59375q4.578125 -3.34375 7.125 -10.65625q2.5625 -7.3125 2.5625 -19.078125q0 -14.015625 -2.609375 -20.96875q-2.59375 -6.953125 -6.640625 -9.8125q-4.03125 -2.875 -9.296875 -2.875zm67.71063 -2.34375l34.84375 43.8125l0 -30.375q0 -6.34375 -1.828125 -8.59375q-2.5 -3.015625 -8.390625 -2.90625l0 -1.9375l23.34375 0l0 1.9375q-4.484375 0.5625 -6.03125 1.484375q-1.53125 0.90625 -2.390625 2.96875q-0.859375 2.046875 -0.859375 7.046875l0 58.796875l-1.765625 0l-47.75 -58.796875l0 44.890625q0 6.09375 2.78125 8.234375q2.78125 2.140625 6.375 2.140625l1.671875 0l0 1.921875l-25.046875 0l0 -1.921875q5.828125 -0.0625 8.109375 -2.40625q2.296875 -2.34375 2.296875 -7.96875l0 -49.828125l-1.5 -1.875q-2.25 -2.8125 -3.96875 -3.703125q-1.71875 -0.890625 -4.9375 -0.984375l0 -1.9375l25.046875 0z" fill-rule="nonzero"/><path fill="#000000" fill-opacity="0.0" d="m189.6693 -0.6771653l610.3307 0l0 51.937008l-610.3307 0z" fill-rule="evenodd"/></g></svg>