<svg version="1.1" viewBox="0.0 0.0 800.0 200.0" fill="none" stroke="none" stroke-linecap="square" stroke-miterlimit="10" xmlns:xlink="http://www.w3.org/1999/xlink" xmlns="http://www.w3.org/2000/svg"><clipPath id="p.0"><path d="m0 0l800.0 0l0 200.0l-800.0 0l0 -200.0z" clip-rule="nonzero"/></clipPath><g clip-path="url(#p.0)"><path fill="#000000" fill-opacity="0.0" d="m0 0l800.0 0l0 200.0l-800.0 0z" fill-rule="evenodd"/><path fill="#000000" fill-opacity="0.0" d="m-2.6246718E-7 -39.989502l800.0 0l0 249.88977l-800.0 0z" fill-rule="evenodd"/><path fill="#000000" d="m169.36914 17.447144l0 45.796875l-3.609375 0q-1.765625 -13.171875 -6.3125 -20.984375q-4.53125 -7.8125 -12.9375 -12.40625q-8.390625 -4.59375 -17.375 -4.59375q-10.15625 0 -16.796875 6.203125q-6.640625 6.203125 -6.640625 14.109375q0 6.0625 4.203125 11.03125q6.046875 7.328125 28.796875 19.53125q18.5625 9.96875 25.34375 15.296875q6.796875 5.3125 10.453125 12.546875q3.65625 7.21875 3.65625 15.125q0 15.046875 -11.671875 25.9375q-11.65625 10.890625 -30.015625 10.890625q-5.765625 0 -10.84375 -0.875q-3.03125 -0.5 -12.5625 -3.578125q-9.515625 -3.078125 -12.046875 -3.078125q-2.4375 0 -3.859375 1.46875q-1.421875 1.46875 -2.09375 6.0625l-3.625 0l0 -45.421875l3.625 0q2.53125 14.265625 6.828125 21.34375q4.296875 7.078125 13.125 11.765625q8.84375 4.6875 19.390625 4.6875q12.21875 0 19.296875 -6.4375q7.078125 -6.453125 7.078125 -15.234375q0 -4.890625 -2.6875 -9.859375q-2.6875 -4.984375 -8.34375 -9.28125q-3.8125 -2.9375 -20.8125 -12.453125q-16.984375 -9.53125 -24.171875 -15.1875q-7.171875 -5.671875 -10.890625 -12.5q-3.703125 -6.84375 -3.703125 -15.046875q0 -14.25 10.9375 -24.546875q10.9375 -10.3125 27.828125 -10.3125q10.546875 0 22.375 5.171875q5.46875 2.453125 7.703125 2.453125q2.546875 0 4.15625 -1.515625q1.609375 -1.515625 2.59375 -6.109375l3.609375 0z" fill-rule="nonzero"/><path fill="#000000" d="m217.69336 120.93152l0 19.578125q0 5.71875 0.703125 7.203125q0.703125 1.484375 2.5 2.375q1.796875 0.890625 6.59375 0.890625l0 1.921875l-35.890625 0l0 -1.921875q4.90625 0 6.640625 -0.90625q1.75 -0.921875 2.453125 -2.375q0.703125 -1.46875 0.703125 -7.1875l0 -45.828125q0 -5.734375 -0.703125 -7.21875q-0.703125 -1.484375 -2.484375 -2.359375q-1.765625 -0.890625 -6.609375 -0.890625l0 -1.9375l30.78125 0q15.203125 0 21.8125 5.421875q6.625 5.421875 6.625 13.546875q0 6.875 -4.28125 11.765625q-4.265625 4.890625 -11.765625 6.671875q-5.046875 1.25 -17.078125 1.25zm0 -34.59375l0 30.53125q1.71875 0.09375 2.609375 0.09375q6.34375 0 9.78125 -3.765625q3.4375 -3.78125 3.4375 -11.703125q0 -7.859375 -3.4375 -11.5q-3.4375 -3.65625 -10.25 -3.65625l-2.140625 0zm103.69678 41.765625l-2.65625 24.796875l-62.703125 0l0 -1.921875l2.34375 0q3.0625 0 4.9375 -1.09375q1.359375 -0.734375 2.09375 -2.5q0.5625 -1.25 0.5625 -6.5625l0 -46.453125q0 -5.421875 -0.578125 -6.765625q-0.5625 -1.359375 -2.3125 -2.375q-1.734375 -1.015625 -4.703125 -1.015625l-2.34375 0l0 -1.9375l37.640625 0l0 1.9375l-3.0625 0q-3.078125 0 -4.953125 1.09375q-1.359375 0.71875 -2.140625 2.5q-0.5625 1.25 -0.5625 6.5625l0 44.984375q0 5.421875 0.625 6.90625q0.625 1.484375 2.4375 2.21875q1.3125 0.46875 6.3125 0.46875l5.875 0q5.625 0 9.375 -1.984375q3.75 -1.984375 6.484375 -6.25q2.734375 -4.265625 5.1875 -12.609375l2.140625 0zm42.857605 22.875l0 1.921875l-36.921875 0l0 -1.921875l2.34375 0q3.0625 0 4.9375 -1.09375q1.359375 -0.734375 2.09375 -2.5q0.5625 -1.25 0.5625 -6.5625l0 -46.453125q0 -5.421875 -0.578125 -6.765625q-0.5625 -1.359375 -2.3125 -2.375q-1.734375 -1.015625 -4.703125 -1.015625l-2.34375 0l0 -1.9375l36.921875 0l0 1.9375l-2.34375 0q-3.078125 0 -4.953125 1.09375q-1.359375 0.71875 -2.140625 2.5q-0.5625 1.25 -0.5625 6.5625l0 46.453125q0 5.40625 0.59375 6.765625q0.59375 1.359375 2.34375 2.375q1.75 1.015625 4.71875 1.015625l2.34375 0zm29.006378 -68.703125l34.84375 43.8125l0 -30.375q0 -6.34375 -1.828125 -8.59375q-2.5 -3.015625 -8.390625 -2.90625l0 -1.9375l23.34375 0l0 1.9375q-4.484375 0.5625 -6.03125 1.484375q-1.53125 0.90625 -2.390625 2.96875q-0.859375 2.046875 -0.859375 7.046875l0 58.796875l-1.765625 0l-47.75 -58.796875l0 44.890625q0 6.09375 2.78125 8.234375q2.78125 2.140625 6.375 2.140625l1.671875 0l0 1.921875l-25.046875 0l0 -1.921875q5.828125 -0.0625 8.109375 -2.40625q2.296875 -2.34375 2.296875 -7.96875l0 -49.828125l-1.5 -1.875q-2.25 -2.8125 -3.96875 -3.703125q-1.71875 -0.890625 -4.9375 -0.984375l0 -1.9375l25.046875 0zm117.74246 0l0 19.125l-1.875 0q-1.65625 -6.625 -3.6875 -9.515625q-2.03125 -2.890625 -5.578125 -4.609375q-1.984375 -0.9375 -6.921875 -0.9375l-5.265625 0l0 54.484375q0 5.40625 0.59375 6.765625q0.609375 1.359375 2.34375 2.375q1.75 1.015625 4.765625 1.015625l2.34375 0l0 1.921875l-36.96875 0l0 -1.921875l2.34375 0q3.078125 0 4.953125 -1.09375q1.34375 -0.734375 2.125 -2.5q0.578125 -1.25 0.578125 -6.5625l0 -54.484375l-5.109375 0q-7.125 0 -10.359375 3.03125q-4.53125 4.21875 -5.734375 12.03125l-1.96875 0l0 -19.125l63.421875 0zm32.920166 4.0625l0 28.75l1.40625 0q6.71875 0 9.734375 -4.21875q3.015625 -4.21875 3.859375 -12.4375l1.96875 0l0 36.96875l-1.96875 0q-0.625 -6.046875 -2.640625 -9.890625q-2.0 -3.859375 -4.65625 -5.1875q-2.65625 -1.328125 -7.703125 -1.328125l0 19.890625q0 5.84375 0.484375 7.140625q0.5 1.296875 1.84375 2.140625q1.359375 0.828125 4.390625 0.828125l4.21875 0q9.890625 0 15.84375 -4.578125q5.96875 -4.59375 8.578125 -13.96875l1.921875 0l-3.171875 22.453125l-61.03125 0l0 -1.921875l2.34375 0q3.0625 0 4.9375 -1.09375q1.359375 -0.734375 2.09375 -2.5q0.5625 -1.25 0.5625 -6.5625l0 -46.453125q0 -4.796875 -0.25 -5.890625q-0.53125 -1.828125 -1.9375 -2.8125q-1.96875 -1.453125 -5.40625 -1.453125l-2.34375 0l0 -1.9375l59.109375 0l0 20.890625l-1.984375 0q-1.515625 -7.65625 -4.25 -10.984375q-2.734375 -3.34375 -7.734375 -4.90625q-2.90625 -0.9375 -10.9375 -0.9375l-7.28125 0zm70.40454 34.375l0 19.796875q0 5.71875 0.703125 7.203125q0.703125 1.484375 2.46875 2.375q1.78125 0.890625 6.625 0.890625l0 1.921875l-36.140625 0l0 -1.921875q4.890625 0 6.625 -0.90625q1.75 -0.921875 2.453125 -2.375q0.703125 -1.46875 0.703125 -7.1875l0 -45.828125q0 -5.734375 -0.703125 -7.21875q-0.703125 -1.484375 -2.46875 -2.359375q-1.765625 -0.890625 -6.609375 -0.890625l0 -1.9375l32.796875 0q12.8125 0 18.75 1.78125q5.9375 1.765625 9.6875 6.53125q3.75 4.765625 3.75 11.171875q0 7.8125 -5.625 12.921875q-3.59375 3.21875 -10.046875 4.84375l16.984375 23.890625q3.328125 4.640625 4.734375 5.78125q2.140625 1.625 4.953125 1.78125l0 1.921875l-22.25 0l-22.75 -32.1875l-4.640625 0zm0 -34.625l0 30.9375l2.96875 0q7.234375 0 10.828125 -1.328125q3.59375 -1.328125 5.65625 -4.796875q2.0625 -3.46875 2.0625 -9.03125q0 -8.078125 -3.78125 -11.921875q-3.78125 -3.859375 -12.15625 -3.859375l-5.578125 0zm98.78931 -5.421875l0.578125 23.546875l-2.140625 0q-1.5 -8.859375 -7.421875 -14.25q-5.90625 -5.390625 -12.78125 -5.390625q-5.3125 0 -8.40625 2.84375q-3.09375 2.828125 -3.09375 6.53125q0 2.34375 1.09375 4.171875q1.5 2.4375 4.84375 4.84375q2.4375 1.71875 11.296875 6.09375q12.390625 6.09375 16.71875 11.5q4.265625 5.421875 4.265625 12.390625q0 8.859375 -6.90625 15.25q-6.890625 6.375 -17.515625 6.375q-3.34375 0 -6.3125 -0.6875q-2.953125 -0.671875 -7.4375 -2.546875q-2.5 -1.046875 -4.109375 -1.046875q-1.359375 0 -2.875 1.046875q-1.5 1.046875 -2.4375 3.171875l-1.9375 0l0 -26.65625l1.9375 0q2.28125 11.25 8.8125 17.15625q6.546875 5.90625 14.09375 5.90625q5.828125 0 9.296875 -3.171875q3.46875 -3.171875 3.46875 -7.390625q0 -2.5 -1.328125 -4.84375q-1.328125 -2.34375 -4.046875 -4.453125q-2.703125 -2.109375 -9.578125 -5.5q-9.625 -4.734375 -13.84375 -8.0625q-4.21875 -3.34375 -6.484375 -7.453125q-2.265625 -4.109375 -2.265625 -9.0625q0 -8.4375 6.1875 -14.375q6.203125 -5.9375 15.625 -5.9375q3.4375 0 6.671875 0.828125q2.4375 0.625 5.953125 2.328125q3.515625 1.6875 4.921875 1.6875q1.359375 0 2.140625 -0.828125q0.78125 -0.84375 1.453125 -4.015625l1.5625 0z" fill-rule="nonzero"/><path fill="#000000" fill-opacity="0.0" d="m189.6693 -0.6771653l610.3307 0l0 51.937008l-610.3307 0z" fill-rule="evenodd"/><path fill="#000000" fill-opacity="0.0" d="m24.341558 174.79721l743.1181 0" fill-rule="evenodd"/><path stroke="#000000" stroke-width="3.0" stroke-linejoin="round" stroke-linecap="butt" d="m41.226387 174.79723l709.34845 0" fill-rule="evenodd"/><path fill="#000000" stroke="#000000" stroke-width="3.0" stroke-linecap="butt" d="m41.226387 174.79723l-7.1348305 -4.995865l-7.1348286 4.995865l7.1348286 4.995865z" fill-rule="evenodd"/><path fill="#000000" stroke="#000000" stroke-width="3.0" stroke-linecap="butt" d="m750.5748 174.79723l7.1348267 4.995865l7.1348267 -4.995865l-7.1348267 -4.995865z" fill-rule="evenodd"/></g></svg>