<svg version="1.1" viewBox="0.0 0.0 800.0 100.0" fill="none" stroke="none" stroke-linecap="square" stroke-miterlimit="10" xmlns:xlink="http://www.w3.org/1999/xlink" xmlns="http://www.w3.org/2000/svg"><clipPath id="p.0"><path d="m0 0l800.0 0l0 100.0l-800.0 0l0 -100.0z" clip-rule="nonzero"/></clipPath><g clip-path="url(#p.0)"><path fill="#000000" fill-opacity="0.0" d="m0 0l800.0 0l0 100.0l-800.0 0z" fill-rule="evenodd"/><path fill="#000000" fill-opacity="0.0" d="m0 6.2834644l800.0 0l0 87.433075l-800.0 0z" fill-rule="evenodd"/><path fill="#000000" d="m64.11914 78.61625l4.15625 -18.671871l1.265625 0q-0.265625 2.703125 -0.265625 4.484371q0 5.09375 3.25 8.28125q3.25 3.1875 8.484375 3.1875q4.859375 0 7.375 -2.984375q2.53125 -2.984375 2.53125 -6.890625q0 -2.5156212 -1.15625 -4.593746q-1.734375 -3.078125 -9.3125 -10.84375q-3.671875 -3.703125 -4.703125 -5.515625q-1.71875 -3.015625 -1.71875 -6.3125q0 -5.265625 3.9375 -9.015627q3.9375 -3.75 10.09375 -3.75q2.078125 0 3.9375 0.40625q1.15625 0.21875 4.1875 1.484375q2.15625 0.859375 2.375 0.921875q0.53125 0.109375 1.15625 0.109375q1.078125 0 1.859375 -0.546875q0.78125 -0.5625 1.8125 -2.375l1.40625 0l-3.859375 16.703127l-1.25 0q0.140625 -2.234375 0.140625 -3.609375q0 -4.484375 -2.96875 -7.343752q-2.96875 -2.859375 -7.828125 -2.859375q-3.859375 0 -6.28125 2.265625q-2.40625 2.265627 -2.40625 5.234377q0 2.59375 1.53125 4.953125q1.546875 2.359375 7.09375 7.6875q5.546875 5.3125 7.171875 8.3125q1.640625 2.984375 1.640625 6.359375q0 3.8124962 -2.015625 7.406246q-2.015625 3.578125 -5.8125 5.546875q-3.78125 1.96875 -8.265625 1.96875q-2.234375 0 -4.171875 -0.421875q-1.921875 -0.40625 -6.15625 -2.0q-1.4375 -0.546875 -2.40625 -0.546875q-2.1875 0 -3.40625 2.96875l-1.421875 0zm54.296875 -34.73437l-2.5625 8.53125q4.046875 -4.75 7.21875 -6.640625q3.171875 -1.890625 6.46875 -1.890625q3.3125 0 5.640625 2.609375q2.34375 2.609375 2.34375 6.8125q0 8.15625 -6.640625 16.609371q-6.640625 8.4375 -15.46875 8.4375q-1.859375 0 -3.296875 -0.40625q-1.421875 -0.40625 -3.203125 -1.453125l-2.703125 9.578125q-0.828125 2.828125 -0.828125 3.671875q0 0.8125 0.421875 1.390625q0.4375 0.578125 1.390625 0.890625q0.96875 0.3125 3.828125 0.3125l-0.328125 1.375l-17.484375 0l0.375 -1.375q3.453125 -0.140625 4.65625 -1.1875q1.203125 -1.03125 2.546875 -5.75l9.390625 -32.499996q0.84375 -3.078125 0.84375 -3.828125q0 -1.0 -0.578125 -1.546875q-0.5625 -0.5625 -1.75 -0.5625q-1.078125 0 -3.015625 0.25l0 -1.4375l12.734375 -1.890625zm-8.640625 29.687496q2.296875 2.734375 6.1875 2.734375q1.9375 0 3.9375 -1.0625q2.0 -1.078125 3.90625 -3.1875q1.921875 -2.125 3.4375 -4.890625q1.53125 -2.765625 2.734375 -6.515621q1.203125 -3.75 1.203125 -7.421875q0 -2.96875 -1.359375 -4.546875q-1.34375 -1.578125 -3.171875 -1.578125q-4.0 0 -7.921875 4.609375q-3.90625 4.59375 -5.734375 10.75l-3.21875 11.109371zm52.421875 -48.875l-12.6875 44.15625q-0.921875 3.296875 -0.921875 4.046875q0 0.546875 0.34375 0.921875q0.359375 0.375 0.875 0.375q0.703125 0 1.53125 -0.625q1.921875 -1.53125 4.03125 -4.71875l1.125 1.15625q-3.53125 4.96875 -6.5 6.9375q-2.1875 1.40625 -4.15625 1.40625q-1.40625 0 -2.359375 -0.96875q-0.9375 -0.96875 -0.9375 -2.21875q0 -1.34375 1.1875 -5.5l10.046875 -34.812496q1.234375 -4.265627 1.234375 -4.890627q0 -0.890625 -0.71875 -1.46875q-0.703125 -0.578125 -2.1875 -0.578125q-0.84375 0 -2.59375 0.265625l0 -1.375l12.6875 -2.109375zm15.521484 4.453125q1.5625 0 2.625 1.078125q1.078125 1.0625 1.078125 2.625002q0 1.53125 -1.09375 2.625q-1.09375 1.09375 -2.609375 1.09375q-1.53125 0 -2.625 -1.09375q-1.09375 -1.09375 -1.09375 -2.625q0 -1.5625019 1.078125 -2.625002q1.078125 -1.078125 2.640625 -1.078125zm0.484375 14.734377l-7.359375 25.999996q-0.734375 2.640625 -0.734375 3.15625q0 0.59375 0.34375 0.96875q0.359375 0.375 0.84375 0.375q0.5625 0 1.328125 -0.59375q2.125 -1.671875 4.28125 -4.75l1.296875 0.84375q-2.53125 3.859375 -5.9375 6.5q-2.53125 1.96875 -4.828125 1.96875q-1.515625 0 -2.484375 -0.90625q-0.96875 -0.90625 -0.96875 -2.28125q0 -1.375 0.921875 -4.5625l4.828125 -16.624996q1.1875 -4.09375 1.1875 -5.125q0 -0.8125 -0.578125 -1.328125q-0.5625 -0.53125 -1.578125 -0.53125q-0.8125 0 -3.375 0.40625l0 -1.4375l12.8125 -2.078125zm20.41211 0l-4.9375 16.875q6.9375 -10.34375 10.625 -13.609375q3.6875 -3.265625 7.109375 -3.265625q1.859375 0 3.0625 1.21875q1.203125 1.21875 1.203125 3.1875q0 2.234375 -1.078125 5.9375l-4.53125 15.624996q-0.765625 2.703125 -0.765625 3.296875q0 0.53125 0.296875 0.890625q0.296875 0.34375 0.625 0.34375q0.4375 0 1.078125 -0.484375q1.96875 -1.5625 4.296875 -4.75l1.15625 0.703125q-3.453125 4.9375 -6.53125 7.046875q-2.15625 1.453125 -3.859375 1.453125q-1.375 0 -2.1875 -0.84375q-0.8125 -0.828125 -0.8125 -2.234375q0 -1.78125 1.25 -6.125l4.3125 -14.921871q0.8125 -2.78125 0.8125 -4.34375q0 -0.734375 -0.484375 -1.203125q-0.484375 -0.46875 -1.1875 -0.46875q-1.03125 0 -2.484375 0.890625q-2.75 1.671875 -5.71875 5.515625q-2.96875 3.84375 -6.265625 9.812496q-1.75 3.15625 -2.890625 6.90625l-1.859375 6.125l-5.5625 0l6.75 -23.234371q1.1875 -4.1875 1.1875 -5.046875q0 -0.8125 -0.65625 -1.421875q-0.640625 -0.609375 -1.609375 -0.609375q-0.4375 0 -1.5625 0.140625l-1.40625 0.21875l-0.21875 -1.328125l12.84375 -2.296875zm40.96875 -9.203125l-2.90625 10.09375l5.828125 0l-0.625 2.328125l-5.796875 0l-6.375 21.890621q-1.046875 3.53125 -1.046875 4.578125q0 0.625 0.296875 0.96875q0.296875 0.328125 0.703125 0.328125q0.9375 0 2.453125 -1.296875q0.890625 -0.75 3.96875 -4.578125l1.234375 0.9375q-3.421875 4.96875 -6.46875 7.015625q-2.078125 1.40625 -4.1875 1.40625q-1.625 0 -2.671875 -1.015625q-1.03125 -1.03125 -1.03125 -2.625q0 -2.0 1.1875 -6.125l6.1875 -21.484371l-5.59375 0l0.359375 -1.4375q4.09375 -1.125 6.796875 -3.328125q2.703125 -2.203125 6.046875 -7.65625l1.640625 0zm10.427734 28.796875q-0.265625 1.8437462 -0.265625 3.0781212q0 3.296875 2.328125 5.625q2.34375 2.3125 5.6875 2.3125q2.671875 0 5.140625 -1.09375q2.46875 -1.09375 7.328125 -4.84375l0.78125 1.078125q-8.796875 8.71875 -16.78125 8.71875q-5.40625 0 -8.15625 -3.40625q-2.75 -3.421875 -2.75 -7.546875q0 -5.531246 3.40625 -11.312496q3.421875 -5.796875 8.578125 -9.0q5.15625 -3.203125 10.609375 -3.203125q3.9375 0 5.828125 1.59375q1.890625 1.59375 1.890625 3.78125q0 3.078125 -2.4375 5.90625q-3.234375 3.671875 -9.5 5.9375q-4.15625 1.515625 -11.6875 2.375zm0.25 -1.828125q5.5 -0.625 8.953125 -2.15625q4.5625 -2.03125 6.84375 -4.875q2.28125 -2.84375 2.28125 -5.390625q0 -1.5625 -0.984375 -2.53125q-0.984375 -0.96875 -2.796875 -0.96875q-3.796875 0 -8.046875 4.03125q-4.25 4.03125 -6.25 11.890625zm28.388672 -15.6875l12.8125 -2.078125l-5.34375 18.03125q6.484375 -11.09375 11.796875 -15.515625q3.0 -2.515625 4.890625 -2.515625q1.234375 0 1.9375 0.71875q0.703125 0.71875 0.703125 2.09375q0 2.453125 -1.265625 4.671875q-0.890625 1.671875 -2.5625 1.671875q-0.84375 0 -1.46875 -0.546875q-0.609375 -0.5625 -0.75 -1.71875q-0.078125 -0.703125 -0.34375 -0.921875q-0.296875 -0.296875 -0.703125 -0.296875q-0.625 0 -1.1875 0.296875q-0.953125 0.515625 -2.921875 2.890625q-3.078125 3.640625 -6.6875 9.421875q-1.5625 2.4531212 -2.671875 5.531246q-1.5625 4.234375 -1.78125 5.09375l-1.1875 4.671875l-5.671875 0l6.859375 -23.046871q1.1875 -4.0 1.1875 -5.71875q0 -0.65625 -0.546875 -1.109375q-0.75 -0.59375 -1.96875 -0.59375q-0.78125 0 -2.859375 0.328125l-0.265625 -1.359375zm53.185547 -2.078125l-2.265625 11.390625l-1.375 0q-0.1875 -4.984375 -2.125 -7.234375q-1.921875 -2.265625 -4.78125 -2.265625q-2.296875 0 -3.65625 1.265625q-1.34375 1.25 -1.34375 3.03125q0 1.234375 0.53125 2.34375q0.53125 1.109375 2.359375 3.109375q4.828125 5.28125 6.234375 7.953125q1.40625 2.6718712 1.40625 5.046871q0 3.859375 -3.21875 6.84375q-3.203125 2.984375 -8.09375 2.984375q-2.671875 0 -6.171875 -1.265625q-1.21875 -0.4375 -1.890625 -0.4375q-1.671875 0 -2.515625 1.703125l-1.375 0l2.265625 -12.03125l1.375 0q0.21875 5.640625 2.328125 7.984375q2.125 2.34375 5.796875 2.34375q2.8125 0 4.46875 -1.578125q1.65625 -1.578125 1.65625 -3.875q0 -1.484375 -0.59375 -2.75q-1.046875 -2.234375 -4.375 -6.156246q-3.3125 -3.9375 -4.265625 -5.90625q-0.9375 -1.96875 -0.9375 -3.9375q0 -3.59375 2.609375 -6.078125q2.625 -2.484375 6.734375 -2.484375q1.1875 0 2.15625 0.171875q0.515625 0.125 2.421875 0.84375q1.921875 0.71875 2.546875 0.71875q1.609375 0 2.671875 -1.734375l1.421875 0zm30.982422 -19.187502l-28.28125 53.921875l-3.265625 0l28.46875 -53.921875l3.078125 0zm-7.3535156 53.921875l4.15625 -18.671871l1.265625 0q-0.265625 2.703125 -0.265625 4.484371q0 5.09375 3.25 8.28125q3.25 3.1875 8.484375 3.1875q4.859375 0 7.375 -2.984375q2.53125 -2.984375 2.53125 -6.890625q0 -2.5156212 -1.15625 -4.593746q-1.734375 -3.078125 -9.3125 -10.84375q-3.671875 -3.703125 -4.703125 -5.515625q-1.71875 -3.015625 -1.71875 -6.3125q0 -5.265625 3.9375 -9.015627q3.9375 -3.75 10.09375 -3.75q2.078125 0 3.9375 0.40625q1.15625 0.21875 4.1875 1.484375q2.15625 0.859375 2.375 0.921875q0.53125 0.109375 1.15625 0.109375q1.078125 0 1.859375 -0.546875q0.78125 -0.5625 1.8125 -2.375l1.40625 0l-3.859375 16.703127l-1.25 0q0.140625 -2.234375 0.140625 -3.609375q0 -4.484375 -2.96875 -7.343752q-2.96875 -2.859375 -7.828125 -2.859375q-3.859375 0 -6.28125 2.265625q-2.40625 2.265627 -2.40625 5.234377q0 2.59375 1.53125 4.953125q1.546875 2.359375 7.09375 7.6875q5.546875 5.3125 7.171875 8.3125q1.640625 2.984375 1.640625 6.359375q0 3.8124962 -2.015625 7.406246q-2.015625 3.578125 -5.8125 5.546875q-3.78125 1.96875 -8.265625 1.96875q-2.234375 0 -4.171875 -0.421875q-1.921875 -0.40625 -6.15625 -2.0q-1.4375 -0.546875 -2.40625 -0.546875q-2.1875 0 -3.40625 2.96875l-1.421875 0zm59.71875 0l-9.578125 7.75q2.265625 -0.40625 4.1875 -0.40625q1.859375 0 3.4375 0.21875q1.578125 0.21875 6.75 1.390625q5.1875 1.171875 9.046875 1.171875q4.109375 0 6.984375 -1.4375q2.875 -1.421875 5.59375 -4.765625l1.21875 0.59375q-3.828125 5.5 -9.03125 7.921875q-5.1875 2.4375 -11.0 2.4375q-3.234375 0 -8.84375 -1.265625q-8.5625 -1.890625 -11.984375 -1.890625q-1.296875 0 -2.109375 0.1875q-0.8125 0.1875 -2.453125 0.890625l-0.859375 -1.0l15.21875 -12.03125q-7.046875 -0.953125 -10.6875 -6.1875q-3.640625 -5.234375 -3.640625 -11.171871q0 -8.125 4.921875 -16.8125q4.921875 -8.6875 12.578125 -13.453127q7.671875 -4.765625 15.046875 -4.765625q5.5 0 9.375 2.234375q3.875 2.21875 5.984375 6.468752q2.125 4.25 2.125 8.703125q0 8.53125 -4.859375 17.296875q-4.859375 8.749996 -12.078125 13.265621q-7.21875 4.5 -15.34375 4.65625zm13.90625 -50.25q-3.703125 0 -7.25 1.84375q-3.546875 1.8281269 -7.03125 6.000002q-3.484375 4.171875 -6.265625 10.9375q-3.390625 8.3125 -3.390625 15.6875q0 5.265621 2.703125 9.343746q2.71875 4.0625 8.328125 4.0625q3.34375 0 6.609375 -1.671875q3.265625 -1.671875 6.75 -5.6875q4.453125 -5.109371 7.453125 -13.015621q3.015625 -7.90625 3.015625 -14.703125q0 -5.0 -2.71875 -8.890625q-2.703125 -3.906252 -8.203125 -3.906252zm57.90039 -2.375l-3.828125 41.859375q-0.296875 2.921875 -0.296875 3.859375q0 1.484375 0.5625 2.265625q0.703125 1.078125 1.90625 1.59375q1.203125 0.515625 4.0625 0.515625l-0.40625 1.375l-19.8125 0l0.40625 -1.375l0.84375 0q2.421875 0 3.9375 -1.03125q1.078125 -0.71875 1.671875 -2.34375q0.40625 -1.15625 0.78125 -5.421875l0.59375 -6.374996l-14.40625 0l-5.109375 6.937496q-1.75 2.328125 -2.203125 3.359375q-0.4375 1.015625 -0.4375 1.90625q0 1.1875 0.96875 2.046875q0.96875 0.84375 3.1875 0.921875l-0.40625 1.375l-14.890625 0l0.421875 -1.375q2.734375 -0.109375 4.828125 -1.828125q2.109375 -1.734375 6.265625 -7.375l30.0625 -40.890625l1.296875 0zm-7.359375 12.359377l-14.578125 19.84375l12.65625 0l1.921875 -19.84375zm46.20508 39.10937l-8.046875 -24.453121q-2.828125 0.03125 -5.796875 -0.5625l-4.34375 15.218746q-0.84375 2.96875 -0.84375 5.015625q0 1.546875 1.078125 2.4375q0.8125 0.671875 4.453125 0.96875l-0.34375 1.375l-19.484375 0l0.40625 -1.375q2.75 -0.109375 3.71875 -0.5625q1.515625 -0.625 2.234375 -1.703125q1.1875 -1.734375 2.484375 -6.15625l8.796875 -30.390621q0.890625 -3.046875 0.890625 -4.71875q0 -1.7031269 -1.40625 -2.890627q-1.390625 -1.1875 -3.984375 -1.15625l0.453125 -1.375l16.390625 0q8.25 0 11.875 3.125q3.640625 3.109377 3.640625 8.203127q0 4.859375 -3.734375 8.890625q-3.71875 4.015625 -10.21875 5.09375l4.90625 14.734371q1.78125 5.421875 3.5625 7.0625q1.78125 1.625 5.75 1.84375l-0.40625 1.375l-12.03125 0zm-13.203125 -27.124996q2.375 0.328125 4.21875 0.328125q6.390625 0 10.09375 -3.53125q3.71875 -3.546875 3.71875 -8.828125q0 -4.109375 -2.328125 -6.296875q-2.3125 -2.203127 -6.953125 -2.203127q-1.1875 0 -2.8125 0.296875l-5.9375 20.234377zm62.89258 27.124996l-37.296875 0l0.515625 -1.375q2.984375 -0.078125 3.984375 -0.484375q1.546875 -0.671875 2.296875 -1.734375q1.15625 -1.71875 2.453125 -6.171875l8.859375 -30.609371q1.125 -3.78125 1.125 -5.562502q0 -1.421875 -1.03125 -2.1875q-1.015625 -0.78125 -3.84375 -0.78125q-0.625 0 -1.0 -0.046875l0.453125 -1.375l20.515625 0l-0.296875 1.375q-3.453125 0 -4.90625 0.671875q-1.4375 0.671875 -2.40625 2.1875q-0.65625 1.0000019 -2.1875 6.234377l-8.71875 30.093746q-1.0 3.421875 -1.0 4.75q0 0.890625 1.0 1.71875q0.625 0.546875 2.859375 0.546875l4.859375 0q5.3125 0 8.421875 -1.328125q2.296875 -1.0 4.234375 -3.015625q1.03125 -1.109375 3.671875 -5.53125l0.96875 -1.6562462l1.375 0l-4.90625 14.281246zm46.58008 -51.46875l-3.828125 41.859375q-0.296875 2.921875 -0.296875 3.859375q0 1.484375 0.5625 2.265625q0.703125 1.078125 1.90625 1.59375q1.203125 0.515625 4.0625 0.515625l-0.40625 1.375l-19.8125 0l0.40625 -1.375l0.84375 0q2.421875 0 3.9375 -1.03125q1.078125 -0.71875 1.671875 -2.34375q0.40625 -1.15625 0.78125 -5.421875l0.59375 -6.374996l-14.40625 0l-5.109375 6.937496q-1.75 2.328125 -2.203125 3.359375q-0.4375 1.015625 -0.4375 1.90625q0 1.1875 0.96875 2.046875q0.96875 0.84375 3.1875 0.921875l-0.40625 1.375l-14.890625 0l0.421875 -1.375q2.734375 -0.109375 4.828125 -1.828125q2.109375 -1.734375 6.265625 -7.375l30.0625 -40.890625l1.296875 0zm-7.359375 12.359377l-14.578125 19.84375l12.65625 0l1.921875 -19.84375zm22.947266 -11.218752l38.21875 0l-4.125 13.359377l-1.40625 0q0.703125 -2.921875 0.703125 -5.21875q0 -2.71875 -1.671875 -4.093752q-1.265625 -1.03125 -6.484375 -1.03125l-3.984375 0l-9.9375 34.65625q-1.890625 6.53125 -1.890625 8.046875q0 1.421875 1.1875 2.328125q1.1875 0.90625 4.1875 0.90625l1.703125 0l-0.4375 1.375l-21.890625 0l0.40625 -1.375l0.96875 0q2.890625 0 4.453125 -0.921875q1.0625 -0.640625 1.9375 -2.28125q0.875 -1.65625 2.4375 -7.0l10.421875 -35.734375l-3.0 0q-4.34375 0 -7.0 1.109375q-2.65625 1.1093769 -4.296875 3.234377q-1.625 2.109375 -2.65625 6.0l-1.375 0l3.53125 -13.359377zm42.26758 0l38.21875 0l-4.125 13.359377l-1.40625 0q0.703125 -2.921875 0.703125 -5.21875q0 -2.71875 -1.671875 -4.093752q-1.265625 -1.03125 -6.484375 -1.03125l-3.984375 0l-9.9375 34.65625q-1.890625 6.53125 -1.890625 8.046875q0 1.421875 1.1875 2.328125q1.1875 0.90625 4.1875 0.90625l1.703125 0l-0.4375 1.375l-21.890625 0l0.40625 -1.375l0.96875 0q2.890625 0 4.453125 -0.921875q1.0625 -0.640625 1.9375 -2.28125q0.875 -1.65625 2.4375 -7.0l10.421875 -35.734375l-3.0 0q-4.34375 0 -7.0 1.109375q-2.65625 1.1093769 -4.296875 3.234377q-1.625 2.109375 -2.65625 6.0l-1.375 0l3.53125 -13.359377zm49.86133 48.953125l-0.40625 1.375l-20.703125 0l0.515625 -1.375q3.125 -0.078125 4.125 -0.515625q1.625 -0.640625 2.40625 -1.75q1.234375 -1.734375 2.53125 -6.234375l8.75 -30.359371q1.125 -3.78125 1.125 -5.703127q0 -0.96875 -0.484375 -1.640625q-0.484375 -0.671875 -1.46875 -1.015625q-0.984375 -0.359375 -3.84375 -0.359375l0.453125 -1.375l19.4375 0l-0.40625 1.375q-2.375 -0.03125 -3.53125 0.53125q-1.671875 0.734375 -2.546875 2.109375q-0.859375 1.3750019 -2.234375 6.078127l-8.71875 30.359371q-1.1875 4.203125 -1.1875 5.34375q0 0.9375 0.453125 1.59375q0.46875 0.640625 1.484375 1.0q1.03125 0.34375 4.25 0.5625z" fill-rule="nonzero"/></g></svg>