<svg version="1.1" viewBox="0.0 0.0 800.0 100.0" fill="none" stroke="none" stroke-linecap="square" stroke-miterlimit="10" xmlns:xlink="http://www.w3.org/1999/xlink" xmlns="http://www.w3.org/2000/svg"><clipPath id="p.0"><path d="m0 0l800.0 0l0 100.0l-800.0 0l0 -100.0z" clip-rule="nonzero"/></clipPath><g clip-path="url(#p.0)"><path fill="#000000" fill-opacity="0.0" d="m0 0l800.0 0l0 100.0l-800.0 0z" fill-rule="evenodd"/><path fill="#000000" fill-opacity="0.0" d="m0 6.2834644l800.0 0l0 87.433075l-800.0 0z" fill-rule="evenodd"/><path fill="#000000" d="m306.9746 27.131876l38.21875 0l-4.125 13.359377l-1.40625 0q0.703125 -2.921875 0.703125 -5.21875q0 -2.71875 -1.671875 -4.093752q-1.265625 -1.03125 -6.484375 -1.03125l-3.984375 0l-9.9375 34.65625q-1.890625 6.53125 -1.890625 8.046875q0 1.421875 1.1875 2.328125q1.1875 0.90625 4.1875 0.90625l1.703125 0l-0.4375 1.375l-21.890625 0l0.40625 -1.375l0.96875 0q2.890625 0 4.453125 -0.921875q1.0625 -0.640625 1.9375 -2.28125q0.875 -1.65625 2.4375 -7.0l10.421875 -35.734375l-3.0 0q-4.34375 0 -7.0 1.109375q-2.65625 1.1093769 -4.296875 3.234377q-1.625 2.109375 -2.65625 6.0l-1.375 0l3.53125 -13.359377zm33.21289 36.34375q-0.265625 1.8437462 -0.265625 3.0781212q0 3.296875 2.328125 5.625q2.34375 2.3125 5.6875 2.3125q2.671875 0 5.140625 -1.09375q2.46875 -1.09375 7.328125 -4.84375l0.78125 1.078125q-8.796875 8.71875 -16.78125 8.71875q-5.40625 0 -8.15625 -3.40625q-2.75 -3.421875 -2.75 -7.546875q0 -5.531246 3.40625 -11.312496q3.421875 -5.796875 8.578125 -9.0q5.15625 -3.203125 10.609375 -3.203125q3.9375 0 5.828125 1.59375q1.890625 1.59375 1.890625 3.78125q0 3.078125 -2.4375 5.90625q-3.234375 3.671875 -9.5 5.9375q-4.15625 1.515625 -11.6875 2.375zm0.25 -1.828125q5.5 -0.625 8.953125 -2.15625q4.5625 -2.03125 6.84375 -4.875q2.28125 -2.84375 2.28125 -5.390625q0 -1.5625 -0.984375 -2.53125q-0.984375 -0.96875 -2.796875 -0.96875q-3.796875 0 -8.046875 4.03125q-4.25 4.03125 -6.25 11.890625zm28.388672 -15.6875l12.8125 -2.078125l-5.34375 18.03125q6.484375 -11.09375 11.796875 -15.515625q3.0 -2.515625 4.890625 -2.515625q1.234375 0 1.9375 0.71875q0.703125 0.71875 0.703125 2.09375q0 2.453125 -1.265625 4.671875q-0.890625 1.671875 -2.5625 1.671875q-0.84375 0 -1.46875 -0.546875q-0.609375 -0.5625 -0.75 -1.71875q-0.078125 -0.703125 -0.34375 -0.921875q-0.296875 -0.296875 -0.703125 -0.296875q-0.625 0 -1.1875 0.296875q-0.953125 0.515625 -2.921875 2.890625q-3.078125 3.640625 -6.6875 9.421875q-1.5625 2.4531212 -2.671875 5.531246q-1.5625 4.234375 -1.78125 5.09375l-1.1875 4.671875l-5.671875 0l6.859375 -23.046871q1.1875 -4.0 1.1875 -5.71875q0 -0.65625 -0.546875 -1.109375q-0.75 -0.59375 -1.96875 -0.59375q-0.78125 0 -2.859375 0.328125l-0.265625 -1.359375zm61.26367 -2.078125l-7.234375 25.156246l-0.8125 3.375q-0.109375 0.484375 -0.109375 0.8125q0 0.59375 0.375 1.046875q0.296875 0.328125 0.734375 0.328125q0.484375 0 1.265625 -0.59375q1.453125 -1.078125 3.859375 -4.453125l1.265625 0.890625q-2.5625 3.859375 -5.28125 5.890625q-2.703125 2.015625 -5.0 2.015625q-1.59375 0 -2.390625 -0.796875q-0.796875 -0.796875 -0.796875 -2.328125q0 -1.8125 0.8125 -4.78125l0.78125 -2.78125q-4.859375 6.34375 -8.953125 8.875q-2.921875 1.8125 -5.75 1.8125q-2.703125 0 -4.671875 -2.234375q-1.96875 -2.25 -1.96875 -6.1875q0 -5.90625 3.546875 -12.453121q3.546875 -6.546875 9.0 -10.484375q4.265625 -3.109375 8.046875 -3.109375q2.265625 0 3.765625 1.1875q1.5 1.1875 2.28125 3.921875l1.34375 -4.21875l5.890625 -0.890625zm-13.203125 1.921875q-2.375 0 -5.046875 2.234375q-3.78125 3.140625 -6.734375 9.34375q-2.953125 6.203125 -2.953125 11.203121q0 2.53125 1.265625 4.0q1.265625 1.453125 2.890625 1.453125q4.046875 0 8.796875 -5.96875q6.34375 -7.937496 6.34375 -16.296871q0 -3.140625 -1.234375 -4.546875q-1.21875 -1.421875 -3.328125 -1.421875zm32.328125 -1.921875l-4.9375 16.875q6.9375 -10.34375 10.625 -13.609375q3.6875 -3.265625 7.109375 -3.265625q1.859375 0 3.0625 1.21875q1.203125 1.21875 1.203125 3.1875q0 2.234375 -1.078125 5.9375l-4.53125 15.624996q-0.765625 2.703125 -0.765625 3.296875q0 0.53125 0.296875 0.890625q0.296875 0.34375 0.625 0.34375q0.4375 0 1.078125 -0.484375q1.96875 -1.5625 4.296875 -4.75l1.15625 0.703125q-3.453125 4.9375 -6.53125 7.046875q-2.15625 1.453125 -3.859375 1.453125q-1.375 0 -2.1875 -0.84375q-0.8125 -0.828125 -0.8125 -2.234375q0 -1.78125 1.25 -6.125l4.3125 -14.921871q0.8125 -2.78125 0.8125 -4.34375q0 -0.734375 -0.484375 -1.203125q-0.484375 -0.46875 -1.1875 -0.46875q-1.03125 0 -2.484375 0.890625q-2.75 1.671875 -5.71875 5.515625q-2.96875 3.84375 -6.265625 9.812496q-1.75 3.15625 -2.890625 6.90625l-1.859375 6.125l-5.5625 0l6.75 -23.234371q1.1875 -4.1875 1.1875 -5.046875q0 -0.8125 -0.65625 -1.421875q-0.640625 -0.609375 -1.609375 -0.609375q-0.4375 0 -1.5625 0.140625l-1.40625 0.21875l-0.21875 -1.328125l12.84375 -2.296875zm30.28125 19.59375q-0.265625 1.8437462 -0.265625 3.0781212q0 3.296875 2.328125 5.625q2.34375 2.3125 5.6875 2.3125q2.671875 0 5.140625 -1.09375q2.46875 -1.09375 7.328125 -4.84375l0.78125 1.078125q-8.796875 8.71875 -16.78125 8.71875q-5.40625 0 -8.15625 -3.40625q-2.75 -3.421875 -2.75 -7.546875q0 -5.531246 3.40625 -11.312496q3.421875 -5.796875 8.578125 -9.0q5.15625 -3.203125 10.609375 -3.203125q3.9375 0 5.828125 1.59375q1.890625 1.59375 1.890625 3.78125q0 3.078125 -2.4375 5.90625q-3.234375 3.671875 -9.5 5.9375q-4.15625 1.515625 -11.6875 2.375zm0.25 -1.828125q5.5 -0.625 8.953125 -2.15625q4.5625 -2.03125 6.84375 -4.875q2.28125 -2.84375 2.28125 -5.390625q0 -1.5625 -0.984375 -2.53125q-0.984375 -0.96875 -2.796875 -0.96875q-3.796875 0 -8.046875 4.03125q-4.25 4.03125 -6.25 11.890625z" fill-rule="nonzero"/></g></svg>