<svg version="1.1" viewBox="0.0 0.0 800.0 100.0" fill="none" stroke="none" stroke-linecap="square" stroke-miterlimit="10" xmlns:xlink="http://www.w3.org/1999/xlink" xmlns="http://www.w3.org/2000/svg"><clipPath id="p.0"><path d="m0 0l800.0 0l0 100.0l-800.0 0l0 -100.0z" clip-rule="nonzero"/></clipPath><g clip-path="url(#p.0)"><path fill="#000000" fill-opacity="0.0" d="m0 0l800.0 0l0 100.0l-800.0 0z" fill-rule="evenodd"/><path fill="#000000" fill-opacity="0.0" d="m0 6.2834644l800.0 0l0 87.433075l-800.0 0z" fill-rule="evenodd"/><path fill="#000000" d="m318.76953 78.61625l4.34375 -41.937496q0.25 -2.421875 0.25 -3.71875q0 -2.140627 -1.21875 -3.250002q-1.21875 -1.125 -4.421875 -1.203125l0.421875 -1.375l18.84375 0l-0.40625 1.375q-3.78125 -0.03125 -5.171875 1.359375q-1.390625 1.390625 -1.921875 6.812502l-2.78125 27.15625l19.109375 -29.5q0.046875 -0.734375 0.046875 -1.265625q0 -2.078127 -1.234375 -3.187502q-1.21875 -1.109375 -5.265625 -1.375l0.296875 -1.375l20.375 0l-0.40625 1.375q-3.53125 0.046875 -4.75 0.59375q-0.890625 0.40625 -1.515625 1.328125q-0.609375 0.90625 -0.96875 3.093752q-0.109375 0.625 -0.921875 8.609375q-0.796875 7.984375 -2.390625 21.703125l15.921875 -24.1875q2.59375 -3.96875 3.265625 -5.5625q0.671875 -1.609375 0.671875 -2.718752q0 -1.03125 -0.890625 -1.828125q-0.890625 -0.796875 -3.046875 -1.03125l0.296875 -1.375l14.921875 0l-0.375 1.375q-1.96875 0.15625 -3.484375 0.96875q-1.515625 0.8125 -3.59375 3.125002q-1.1875 1.328125 -4.90625 7.046875l-25.265625 38.968746l-1.375 0l4.078125 -38.968746l-25.265625 38.968746l-1.265625 0zm81.19141 -23.124996q0 5.5625 -2.953125 11.015621q-2.9375 5.453125 -8.21875 8.65625q-5.265625 3.1875 -10.234375 3.1875q-5.09375 0 -8.296875 -3.25q-3.203125 -3.25 -3.203125 -8.40625q0 -5.453121 3.125 -10.937496q3.140625 -5.5 8.390625 -8.6875q5.25 -3.1875 10.15625 -3.1875q4.890625 0 8.0625 3.234375q3.171875 3.21875 3.171875 8.375zm-6.15625 -2.5625q0 -3.453125 -1.6875 -5.28125q-1.6875 -1.84375 -4.359375 -1.84375q-5.453125 0 -10.046875 7.8125q-4.578125 7.8125 -4.578125 15.531246q0 3.53125 1.78125 5.4375q1.78125 1.90625 4.484375 1.90625q5.234375 0 9.8125 -7.765625q4.59375 -7.781246 4.59375 -15.796871zm12.984375 -6.96875l12.8125 -2.078125l-5.34375 18.03125q6.484375 -11.09375 11.796875 -15.515625q3.0 -2.515625 4.890625 -2.515625q1.234375 0 1.9375 0.71875q0.703125 0.71875 0.703125 2.09375q0 2.453125 -1.265625 4.671875q-0.890625 1.671875 -2.5625 1.671875q-0.84375 0 -1.46875 -0.546875q-0.609375 -0.5625 -0.75 -1.71875q-0.078125 -0.703125 -0.34375 -0.921875q-0.296875 -0.296875 -0.703125 -0.296875q-0.625 0 -1.1875 0.296875q-0.953125 0.515625 -2.921875 2.890625q-3.078125 3.640625 -6.6875 9.421875q-1.5625 2.4531212 -2.671875 5.531246q-1.5625 4.234375 -1.78125 5.09375l-1.1875 4.671875l-5.671875 0l6.859375 -23.046871q1.1875 -4.0 1.1875 -5.71875q0 -0.65625 -0.546875 -1.109375q-0.75 -0.59375 -1.96875 -0.59375q-0.78125 0 -2.859375 0.328125l-0.265625 -1.359375zm48.20117 -21.265627l-12.6875 44.15625q-0.921875 3.296875 -0.921875 4.046875q0 0.546875 0.34375 0.921875q0.359375 0.375 0.875 0.375q0.703125 0 1.53125 -0.625q1.921875 -1.53125 4.03125 -4.71875l1.125 1.15625q-3.53125 4.96875 -6.5 6.9375q-2.1875 1.40625 -4.15625 1.40625q-1.40625 0 -2.359375 -0.96875q-0.9375 -0.96875 -0.9375 -2.21875q0 -1.34375 1.1875 -5.5l10.046875 -34.812496q1.234375 -4.265627 1.234375 -4.890627q0 -0.890625 -0.71875 -1.46875q-0.703125 -0.578125 -2.1875 -0.578125q-0.84375 0 -2.59375 0.265625l0 -1.375l12.6875 -2.109375zm39.646484 0l-12.765625 43.78125q-1.046875 3.5625 -1.046875 4.671875q0 0.375 0.3125 0.71875q0.3125 0.328125 0.65625 0.328125q0.484375 0 1.140625 -0.484375q1.265625 -0.890625 4.234375 -4.453125l1.265625 0.78125q-2.671875 3.703125 -5.40625 6.015625q-2.71875 2.296875 -5.09375 2.296875q-1.265625 0 -2.078125 -0.890625q-0.8125 -0.890625 -0.8125 -2.53125q0 -2.109375 1.109375 -5.671875l1.4375 -4.59375q-5.375 8.3125 -9.796875 11.5q-3.03125 2.1875 -5.8125 2.1875q-2.828125 0 -4.921875 -2.5q-2.09375 -2.515625 -2.09375 -6.8125q0 -5.531246 3.515625 -11.796871q3.53125 -6.28125 9.3125 -10.21875q4.578125 -3.140625 8.390625 -3.140625q2.0 0 3.453125 0.8125q1.453125 0.8125 2.859375 2.703125l3.640625 -12.90625q0.40625 -1.375 0.65625 -2.1875q0.453125 -1.4843769 0.453125 -2.453127q0 -0.78125 -0.5625 -1.296875q-0.78125 -0.640625 -2.0 -0.640625q-0.859375 0 -2.8125 0.265625l0 -1.375l12.765625 -2.109375zm-13.78125 26.343752q0 -2.375 -1.375 -3.8125q-1.359375 -1.453125 -3.484375 -1.453125q-4.671875 0 -9.734375 7.71875q-5.0625 7.71875 -5.0625 14.765621q0 2.78125 1.21875 4.25q1.21875 1.46875 2.9375 1.46875q3.859375 0 9.671875 -8.34375q5.828125 -8.359371 5.828125 -14.593746z" fill-rule="nonzero"/></g></svg>