<svg version="1.1" viewBox="0.0 0.0 800.0 200.0" fill="none" stroke="none" stroke-linecap="square" stroke-miterlimit="10" xmlns:xlink="http://www.w3.org/1999/xlink" xmlns="http://www.w3.org/2000/svg"><clipPath id="p.0"><path d="m0 0l800.0 0l0 200.0l-800.0 0l0 -200.0z" clip-rule="nonzero"/></clipPath><g clip-path="url(#p.0)"><path fill="#000000" fill-opacity="0.0" d="m0 0l800.0 0l0 200.0l-800.0 0z" fill-rule="evenodd"/><path fill="#000000" fill-opacity="0.0" d="m-216.0 -39.989502l800.0 0l0 249.88977l-800.0 0z" fill-rule="evenodd"/><path fill="#000000" d="m276.81836 20.478394l0 3.609375q-5.171875 0 -8.390625 1.859375q-3.21875 1.859375 -6.15625 6.9375q-1.953125 3.40625 -6.15625 16.296875l-36.90625 106.75l-3.90625 0l-30.171875 -84.671875l-29.984375 84.671875l-3.515625 0l-39.359375 -109.96875q-4.390625 -12.296875 -5.5625 -14.546875q-1.953125 -3.71875 -5.328125 -5.515625q-3.359375 -1.8125 -9.125 -1.8125l0 -3.609375l49.015625 0l0 3.609375l-2.34375 0q-5.171875 0 -7.90625 2.34375q-2.734375 2.34375 -2.734375 5.671875q0 3.40625 4.296875 15.71875l26.078125 74.3125l21.96875 -63.1875l-3.90625 -11.125l-3.125 -8.890625q-2.046875 -4.875 -4.59375 -8.59375q-1.265625 -1.859375 -3.125 -3.125q-2.4375 -1.75 -4.875 -2.53125q-1.859375 -0.59375 -5.859375 -0.59375l0 -3.609375l51.5625 0l0 3.609375l-3.515625 0q-5.46875 0 -8.015625 2.34375q-2.53125 2.34375 -2.53125 6.34375q0 4.984375 4.390625 17.390625l25.390625 71.96875l25.203125 -72.953125q4.296875 -12.109375 4.296875 -16.796875q0 -2.234375 -1.421875 -4.1875q-1.421875 -1.953125 -3.5625 -2.734375q-3.71875 -1.375 -9.671875 -1.375l0 -3.609375l39.546875 0z" fill-rule="nonzero"/><path fill="#000000" fill-opacity="0.0" d="m24.341558 174.79721l743.1181 0" fill-rule="evenodd"/><path stroke="#000000" stroke-width="3.0" stroke-linejoin="round" stroke-linecap="butt" d="m41.226387 174.79723l709.34845 0" fill-rule="evenodd"/><path fill="#000000" stroke="#000000" stroke-width="3.0" stroke-linecap="butt" d="m41.226387 174.79723l-7.1348305 -4.995865l-7.1348286 4.995865l7.1348286 4.995865z" fill-rule="evenodd"/><path fill="#000000" stroke="#000000" stroke-width="3.0" stroke-linecap="butt" d="m750.5748 174.79723l7.1348267 4.995865l7.1348267 -4.995865l-7.1348267 -4.995865z" fill-rule="evenodd"/><path fill="#000000" fill-opacity="0.0" d="m105.38058 -39.989502l670.6142 0l0 249.88977l-670.6142 0z" fill-rule="evenodd"/><path fill="#000000" d="m292.68826 132.7909l-24.953125 0l-2.96875 6.875q-1.453125 3.4375 -1.453125 5.6875q0 2.96875 2.390625 4.375q1.40625 0.828125 6.9375 1.25l0 1.921875l-23.499985 0l0 -1.921875q3.8125 -0.578125 6.25 -3.15625q2.4531097 -2.578125 6.0468597 -10.65625l25.25 -56.34375l1.0 0l25.46875 57.90625q3.640625 8.234375 5.984375 10.375q1.765625 1.609375 5.0 1.875l0 1.921875l-34.171875 0l0 -1.921875l1.40625 0q4.125 0 5.78125 -1.15625q1.15625 -0.828125 1.15625 -2.390625q0 -0.9375 -0.3125 -1.921875q-0.109375 -0.46875 -1.5625 -3.90625l-3.75 -8.8125zm-1.78125 -3.84375l-10.515625 -24.328125l-10.828125 24.328125l21.34375 0zm62.758118 -8.234375l0 19.796875q0 5.71875 0.703125 7.203125q0.703125 1.484375 2.46875 2.375q1.78125 0.890625 6.625 0.890625l0 1.921875l-36.140625 0l0 -1.921875q4.890625 0 6.625 -0.90625q1.75 -0.921875 2.453125 -2.375q0.703125 -1.46875 0.703125 -7.1875l0 -45.828125q0 -5.734375 -0.703125 -7.21875q-0.703125 -1.484375 -2.46875 -2.359375q-1.765625 -0.890625 -6.609375 -0.890625l0 -1.9375l32.796875 0q12.8125 0 18.75 1.78125q5.9375 1.765625 9.6875 6.53125q3.75 4.765625 3.75 11.171875q0 7.8125 -5.625 12.921875q-3.59375 3.21875 -10.046875 4.84375l16.984375 23.890625q3.328125 4.640625 4.734375 5.78125q2.140625 1.625 4.953125 1.78125l0 1.921875l-22.25 0l-22.75 -32.1875l-4.640625 0zm0 -34.625l0 30.9375l2.96875 0q7.234375 0 10.828125 -1.328125q3.59375 -1.328125 5.65625 -4.796875q2.0625 -3.46875 2.0625 -9.03125q0 -8.078125 -3.78125 -11.921875q-3.78125 -3.859375 -12.15625 -3.859375l-5.578125 0zm112.22687 -3.8125l0 19.125l-1.875 0q-1.65625 -6.625 -3.6875 -9.515625q-2.03125 -2.890625 -5.578125 -4.609375q-1.984375 -0.9375 -6.921875 -0.9375l-5.265625 0l0 54.484375q0 5.40625 0.59375 6.765625q0.609375 1.359375 2.34375 2.375q1.75 1.015625 4.765625 1.015625l2.34375 0l0 1.921875l-36.96875 0l0 -1.921875l2.34375 0q3.078125 0 4.953125 -1.09375q1.34375 -0.734375 2.125 -2.5q0.578125 -1.25 0.578125 -6.5625l0 -54.484375l-5.109375 0q-7.125 0 -10.359375 3.03125q-4.53125 4.21875 -5.734375 12.03125l-1.96875 0l0 -19.125l63.421875 0zm42.920105 68.703125l0 1.921875l-36.921875 0l0 -1.921875l2.34375 0q3.0625 0 4.9375 -1.09375q1.359375 -0.734375 2.09375 -2.5q0.5625 -1.25 0.5625 -6.5625l0 -46.453125q0 -5.421875 -0.578125 -6.765625q-0.5625 -1.359375 -2.3125 -2.375q-1.734375 -1.015625 -4.703125 -1.015625l-2.34375 0l0 -1.9375l36.921875 0l0 1.9375l-2.34375 0q-3.078125 0 -4.953125 1.09375q-1.359375 0.71875 -2.140625 2.5q-0.5625 1.25 -0.5625 6.5625l0 46.453125q0 5.40625 0.59375 6.765625q0.59375 1.359375 2.34375 2.375q1.75 1.015625 4.71875 1.015625l2.34375 0zm53.271942 -22.140625l19.171875 -46.5625l28.734375 0l0 1.9375l-2.28125 0q-3.125 0 -5.0 1.09375q-1.3125 0.71875 -2.09375 2.4375q-0.5625 1.25 -0.5625 6.515625l0 46.5625q0 5.40625 0.5625 6.765625q0.578125 1.359375 2.34375 2.375q1.78125 1.015625 4.75 1.015625l2.28125 0l0 1.921875l-36.859375 0l0 -1.921875l2.28125 0q3.125 0 5.0 -1.09375q1.3125 -0.734375 2.09375 -2.5q0.5625 -1.25 0.5625 -6.5625l0 -52.34375l-27.078125 64.421875l-1.25 0l-27.5 -63.953125l0 49.734375q0 5.203125 0.265625 6.40625q0.671875 2.609375 2.9375 4.25q2.265625 1.640625 7.109375 1.640625l0 1.921875l-24.15625 0l0 -1.921875l0.71875 0q2.34375 0.046875 4.375 -0.75q2.03125 -0.8125 3.078125 -2.171875q1.046875 -1.359375 1.609375 -3.796875q0.109375 -0.578125 0.109375 -5.3125l0 -44.6875q0 -5.359375 -0.578125 -6.6875q-0.5625 -1.328125 -2.34375 -2.34375q-1.765625 -1.015625 -4.734375 -1.015625l-2.234375 0l0 -1.9375l28.84375 0l19.84375 46.5625zm78.90161 -42.5l0 28.75l1.40625 0q6.71875 0 9.734375 -4.21875q3.015625 -4.21875 3.859375 -12.4375l1.96875 0l0 36.96875l-1.96875 0q-0.625 -6.046875 -2.640625 -9.890625q-2.0 -3.859375 -4.65625 -5.1875q-2.65625 -1.328125 -7.703125 -1.328125l0 19.890625q0 5.84375 0.484375 7.140625q0.5 1.296875 1.84375 2.140625q1.359375 0.828125 4.390625 0.828125l4.21875 0q9.890625 0 15.84375 -4.578125q5.96875 -4.59375 8.578125 -13.96875l1.921875 0l-3.171875 22.453125l-61.03125 0l0 -1.921875l2.34375 0q3.0625 0 4.9375 -1.09375q1.359375 -0.734375 2.09375 -2.5q0.5625 -1.25 0.5625 -6.5625l0 -46.453125q0 -4.796875 -0.25 -5.890625q-0.53125 -1.828125 -1.9375 -2.8125q-1.96875 -1.453125 -5.40625 -1.453125l-2.34375 0l0 -1.9375l59.109375 0l0 20.890625l-1.984375 0q-1.515625 -7.65625 -4.25 -10.984375q-2.734375 -3.34375 -7.734375 -4.90625q-2.90625 -0.9375 -10.9375 -0.9375l-7.28125 0z" fill-rule="nonzero"/></g></svg>