<svg version="1.1" viewBox="0.0 0.0 800.0 200.0" fill="none" stroke="none" stroke-linecap="square" stroke-miterlimit="10" xmlns:xlink="http://www.w3.org/1999/xlink" xmlns="http://www.w3.org/2000/svg"><clipPath id="p.0"><path d="m0 0l800.0 0l0 200.0l-800.0 0l0 -200.0z" clip-rule="nonzero"/></clipPath><g clip-path="url(#p.0)"><path fill="#000000" fill-opacity="0.0" d="m0 0l800.0 0l0 200.0l-800.0 0z" fill-rule="evenodd"/><path fill="#000000" fill-opacity="0.0" d="m48.0 -39.989502l800.0 0l0 249.88977l-800.0 0z" fill-rule="evenodd"/><path fill="#000000" d="m292.761 150.9784l0 1.921875l-36.92186 0l0 -1.921875l2.3437347 0q3.0625 0 4.9375 -1.09375q1.359375 -0.734375 2.09375 -2.5q0.5625 -1.25 0.5625 -6.5625l0 -46.453125q0 -5.421875 -0.578125 -6.765625q-0.5625 -1.359375 -2.3125 -2.375q-1.734375 -1.015625 -4.703125 -1.015625l-2.3437347 0l0 -1.9375l36.92186 0l0 1.9375l-2.34375 0q-3.078125 0 -4.953125 1.09375q-1.359375 0.71875 -2.140625 2.5q-0.5625 1.25 -0.5625 6.5625l0 46.453125q0 5.40625 0.59375 6.765625q0.59375 1.359375 2.34375 2.375q1.75 1.015625 4.71875 1.015625l2.34375 0zm69.78763 -22.875l-2.65625 24.796875l-62.703125 0l0 -1.921875l2.34375 0q3.0625 0 4.9375 -1.09375q1.359375 -0.734375 2.09375 -2.5q0.5625 -1.25 0.5625 -6.5625l0 -46.453125q0 -5.421875 -0.578125 -6.765625q-0.5625 -1.359375 -2.3125 -2.375q-1.734375 -1.015625 -4.703125 -1.015625l-2.34375 0l0 -1.9375l37.640625 0l0 1.9375l-3.0625 0q-3.078125 0 -4.953125 1.09375q-1.359375 0.71875 -2.140625 2.5q-0.5625 1.25 -0.5625 6.5625l0 44.984375q0 5.421875 0.625 6.90625q0.625 1.484375 2.4375 2.21875q1.3125 0.46875 6.3125 0.46875l5.875 0q5.625 0 9.375 -1.984375q3.75 -1.984375 6.484375 -6.25q2.734375 -4.265625 5.1875 -12.609375l2.140625 0zm5.2013855 24.796875l0 -1.921875l2.34375 0q3.078125 0 4.71875 -0.96875q1.640625 -0.96875 2.421875 -2.625q0.46875 -1.09375 0.46875 -6.5625l0 -46.453125q0 -5.421875 -0.578125 -6.765625q-0.578125 -1.359375 -2.328125 -2.375q-1.734375 -1.015625 -4.703125 -1.015625l-2.34375 0l0 -1.9375l31.609375 0q12.65625 0 20.359375 3.4375q9.4375 4.21875 14.296875 12.765625q4.875 8.546875 4.875 19.328125q0 7.4375 -2.40625 13.71875q-2.390625 6.265625 -6.1875 10.359375q-3.796875 4.09375 -8.78125 6.5625q-4.96875 2.46875 -12.15625 3.828125q-3.171875 0.625 -10.0 0.625l-31.609375 0zm26.921875 -66.609375l0 55.09375q0 4.375 0.40625 5.375q0.421875 0.984375 1.421875 1.5q1.40625 0.78125 4.0625 0.78125q8.6875 0 13.28125 -5.9375q6.25 -8.015625 6.25 -24.890625q0 -13.59375 -4.28125 -21.71875q-3.375 -6.34375 -8.6875 -8.640625q-3.75 -1.609375 -12.453125 -1.5625zm116.03937 41.8125l-2.65625 24.796875l-62.703125 0l0 -1.921875l2.34375 0q3.0625 0 4.9375 -1.09375q1.359375 -0.734375 2.09375 -2.5q0.5625 -1.25 0.5625 -6.5625l0 -46.453125q0 -5.421875 -0.578125 -6.765625q-0.5625 -1.359375 -2.3125 -2.375q-1.734375 -1.015625 -4.703125 -1.015625l-2.34375 0l0 -1.9375l37.640625 0l0 1.9375l-3.0625 0q-3.078125 0 -4.953125 1.09375q-1.359375 0.71875 -2.140625 2.5q-0.5625 1.25 -0.5625 6.5625l0 44.984375q0 5.421875 0.625 6.90625q0.625 1.484375 2.4375 2.21875q1.3125 0.46875 6.3125 0.46875l5.875 0q5.625 0 9.375 -1.984375q3.75 -1.984375 6.484375 -6.25q2.734375 -4.265625 5.1875 -12.609375l2.140625 0zm42.857605 22.875l0 1.921875l-36.921875 0l0 -1.921875l2.34375 0q3.0625 0 4.9375 -1.09375q1.359375 -0.734375 2.09375 -2.5q0.5625 -1.25 0.5625 -6.5625l0 -46.453125q0 -5.421875 -0.578125 -6.765625q-0.5625 -1.359375 -2.3125 -2.375q-1.734375 -1.015625 -4.703125 -1.015625l-2.34375 0l0 -1.9375l36.921875 0l0 1.9375l-2.34375 0q-3.078125 0 -4.953125 1.09375q-1.359375 0.71875 -2.140625 2.5q-0.5625 1.25 -0.5625 6.5625l0 46.453125q0 5.40625 0.59375 6.765625q0.59375 1.359375 2.34375 2.375q1.75 1.015625 4.71875 1.015625l2.34375 0zm31.756348 -64.640625l0 29.015625l2.03125 0q4.6875 0 7.65625 -1.40625q2.96875 -1.40625 5.03125 -4.734375q2.0625 -3.34375 2.6875 -9.015625l1.8125 0l0 35.46875l-1.8125 0q-1.0 -10.046875 -5.40625 -13.25q-4.390625 -3.203125 -9.96875 -3.203125l-2.03125 0l0 21.609375q0 5.40625 0.59375 6.765625q0.609375 1.359375 2.34375 2.375q1.75 1.015625 4.71875 1.015625l2.34375 0l0 1.921875l-36.921875 0l0 -1.921875l2.34375 0q3.078125 0 4.953125 -1.09375q1.359375 -0.734375 2.078125 -2.5q0.578125 -1.25 0.578125 -6.5625l0 -46.453125q0 -5.421875 -0.578125 -6.765625q-0.5625 -1.359375 -2.3125 -2.375q-1.75 -1.015625 -4.71875 -1.015625l-2.34375 0l0 -1.9375l59.578125 0l0 20.265625l-2.125 0q-0.734375 -7.140625 -3.734375 -10.578125q-2.984375 -3.4375 -8.671875 -4.84375q-3.125 -0.78125 -11.5625 -0.78125l-6.5625 0zm64.8999 0l0 28.75l1.40625 0q6.71875 0 9.734375 -4.21875q3.015625 -4.21875 3.859375 -12.4375l1.96875 0l0 36.96875l-1.96875 0q-0.625 -6.046875 -2.640625 -9.890625q-2.0 -3.859375 -4.65625 -5.1875q-2.65625 -1.328125 -7.703125 -1.328125l0 19.890625q0 5.84375 0.484375 7.140625q0.5 1.296875 1.84375 2.140625q1.359375 0.828125 4.390625 0.828125l4.21875 0q9.890625 0 15.84375 -4.578125q5.96875 -4.59375 8.578125 -13.96875l1.921875 0l-3.171875 22.453125l-61.03125 0l0 -1.921875l2.34375 0q3.0625 0 4.9375 -1.09375q1.359375 -0.734375 2.09375 -2.5q0.5625 -1.25 0.5625 -6.5625l0 -46.453125q0 -4.796875 -0.25 -5.890625q-0.53125 -1.828125 -1.9375 -2.8125q-1.96875 -1.453125 -5.40625 -1.453125l-2.34375 0l0 -1.9375l59.109375 0l0 20.890625l-1.984375 0q-1.515625 -7.65625 -4.25 -10.984375q-2.734375 -3.34375 -7.734375 -4.90625q-2.90625 -0.9375 -10.9375 -0.9375l-7.28125 0z" fill-rule="nonzero"/><path fill="#000000" fill-opacity="0.0" d="m189.6693 -0.6771653l610.3307 0l0 51.937008l-610.3307 0z" fill-rule="evenodd"/><path fill="#000000" fill-opacity="0.0" d="m24.341558 174.79721l743.1181 0" fill-rule="evenodd"/><path stroke="#000000" stroke-width="3.0" stroke-linejoin="round" stroke-linecap="butt" d="m41.226387 174.79723l709.34845 0" fill-rule="evenodd"/><path fill="#000000" stroke="#000000" stroke-width="3.0" stroke-linecap="butt" d="m41.226387 174.79723l-7.1348305 -4.995865l-7.1348286 4.995865l7.1348286 4.995865z" fill-rule="evenodd"/><path fill="#000000" stroke="#000000" stroke-width="3.0" stroke-linecap="butt" d="m750.5748 174.79723l7.1348267 4.995865l7.1348267 -4.995865l-7.1348267 -4.995865z" fill-rule="evenodd"/><path fill="#000000" fill-opacity="0.0" d="m-192.06299 -39.989502l752.063 0l0 249.88977l-752.063 0z" fill-rule="evenodd"/><path fill="#000000" d="m276.78687 20.478394l0 3.609375q-5.171875 0 -8.390625 1.859375q-3.21875 1.859375 -6.15625 6.9375q-1.953125 3.40625 -6.15625 16.296875l-36.90625 106.75l-3.90625 0l-30.171875 -84.671875l-29.984375 84.671875l-3.515625 0l-39.359383 -109.96875q-4.390625 -12.296875 -5.5625 -14.546875q-1.953125 -3.71875 -5.328125 -5.515625q-3.359375 -1.8125 -9.125 -1.8125l0 -3.609375l49.015633 0l0 3.609375l-2.34375 0q-5.171875 0 -7.90625 2.34375q-2.734375 2.34375 -2.734375 5.671875q0 3.40625 4.296875 15.71875l26.078125 74.3125l21.96875 -63.1875l-3.90625 -11.125l-3.125 -8.890625q-2.046875 -4.875 -4.59375 -8.59375q-1.265625 -1.859375 -3.125 -3.125q-2.4375 -1.75 -4.875 -2.53125q-1.859375 -0.59375 -5.859375 -0.59375l0 -3.609375l51.5625 0l0 3.609375l-3.515625 0q-5.46875 0 -8.015625 2.34375q-2.53125 2.34375 -2.53125 6.34375q0 4.984375 4.390625 17.390625l25.390625 71.96875l25.203125 -72.953125q4.296875 -12.109375 4.296875 -16.796875q0 -2.234375 -1.421875 -4.1875q-1.421875 -1.953125 -3.5625 -2.734375q-3.71875 -1.375 -9.671875 -1.375l0 -3.609375l39.546875 0z" fill-rule="nonzero"/></g></svg>